<?xml version="1.0" encoding="utf-8"?>
<!-- Generated by IcoMoon.io -->
<!DOCTYPE svg PUBLIC "-//W3C//DTD SVG 1.1//EN" "http://www.w3.org/Graphics/SVG/1.1/DTD/svg11.dtd">
<svg version="1.1" xmlns="http://www.w3.org/2000/svg" xmlns:xlink="http://www.w3.org/1999/xlink" width="32" height="32" viewBox="0 0 32 32">
<path fill="#444444" d="M31.648 21.504c-0.16 0.128-0.352 0.192-0.544 0.192-0.064 0-0.16 0-0.224-0.032l-0.16-0.064c-2.72-1.76-6.592-2.304-10.112-2.752-0.128 2.944-0.352 5.984-0.704 8.224l2.784 1.472c0.16 0.128 0.256 0.352 0.256 0.544v2.176c0 0.288-0.16 0.512-0.384 0.64-0.096 0.064-0.224 0.096-0.352 0.096s-0.224-0.032-0.32-0.064l-5.856-1.984-5.856 1.984c-0.224 0.096-0.48 0.096-0.672 0-0.256-0.128-0.384-0.384-0.384-0.64v-2.176c0-0.192 0.096-0.416 0.256-0.544l0.096-0.064 2.656-1.408c-0.352-2.24-0.576-5.248-0.704-8.192-3.52 0.448-7.392 0.992-10.112 2.752l-0.16 0.064c-0.064 0.032-0.16 0.032-0.224 0.032-0.192 0-0.384-0.064-0.544-0.192-0.224-0.16-0.352-0.416-0.352-0.704v-2.88c0-0.32 0.192-0.64 0.48-0.8l1.12-0.704v-2.848c0-1.024 0.832-1.856 1.856-1.856s1.856 0.832 1.856 1.856v0.544l1.056-0.672v-3.616c0-1.024 0.832-1.856 1.856-1.856s1.856 0.832 1.856 1.856v1.312l1.056-0.672c0-1.12 0-1.856 0-1.984 0-1.856 0.32-3.552 0.96-5.024 0.512-1.216 1.984-3.488 3.84-3.488s3.328 2.272 3.84 3.488c0.64 1.504 0.96 3.2 0.96 5.024 0 0.128 0 0.864 0 1.984l1.056 0.672v-1.312c0-1.024 0.832-1.856 1.856-1.856s1.856 0.832 1.856 1.856v3.616l1.056 0.672v-0.544c0-1.024 0.832-1.856 1.856-1.856s1.856 0.832 1.856 1.856v2.848l1.12 0.704c0.288 0.16 0.48 0.448 0.48 0.8v2.88c0.096 0.224-0.032 0.48-0.256 0.64zM10.144 30.784l5.568-1.888c0.192-0.096 0.416-0.096 0.64 0l5.568 1.888v-1.536l-5.856-3.104-5.856 3.104v1.536zM4.256 13.6c0-0.448-0.352-0.8-0.8-0.8s-0.8 0.352-0.8 0.8v2.048l1.6-1.088v-0.96zM9.056 9.856c0-0.448-0.352-0.8-0.8-0.8s-0.8 0.352-0.8 0.8v2.496l1.6-1.088v-1.408zM11.2 11.776l-10.144 6.24v2.432c2.88-1.728 6.752-2.272 10.272-2.688-0.032-0.48-0.032-0.928-0.032-1.376-0.064-1.856-0.096-3.488-0.096-4.608zM19.744 8.544c0-1.696-0.288-3.264-0.864-4.608-0.608-1.376-1.792-2.848-2.848-2.848s-2.272 1.472-2.848 2.848c-0.576 1.376-0.864 2.912-0.864 4.608 0 0.032 0 0.512 0 1.312v0 0.096c0 1.568 0.032 4.256 0.128 7.2 0 0.352 0.032 0.704 0.064 1.056l0.032 0.48c0.128 2.784 0.32 5.664 0.64 7.808l0.512-0.256 1.984-1.056c0.032-0.032 0.096-0.064 0.128-0.064 0.192-0.096 0.384-0.096 0.576 0 0.064 0.032 0.096 0.032 0.16 0.064l0.064 0.032 2.4 1.248c0.32-2.176 0.512-5.088 0.64-7.936v-0.384c0.032-0.352 0.032-0.704 0.064-1.056 0.096-2.944 0.128-5.632 0.128-7.2v-0.064c-0.096-0.768-0.096-1.248-0.096-1.28zM24.544 9.856c0-0.448-0.352-0.8-0.8-0.8s-0.8 0.352-0.8 0.8v1.408l1.6 1.088v-2.496zM29.344 13.6c0-0.448-0.352-0.8-0.8-0.8s-0.8 0.352-0.8 0.8v0.96l1.6 1.088v-2.048zM30.944 18.016l-10.144-6.24c0 1.12-0.032 2.752-0.096 4.608 0 0.448-0.032 0.928-0.032 1.376 3.52 0.448 7.392 0.992 10.272 2.688v-2.432zM18.144 6.944c-0.128 0-0.288-0.064-0.384-0.16l-1.248-1.248c-0.288-0.288-0.736-0.288-1.024 0l-1.248 1.248c-0.224 0.224-0.544 0.224-0.768 0s-0.224-0.544 0-0.768l1.248-1.248c0.672-0.672 1.856-0.672 2.528 0l1.248 1.248c0.224 0.224 0.224 0.544 0 0.768-0.096 0.096-0.224 0.16-0.352 0.16z"></path>
</svg>
