<?xml version="1.0" encoding="utf-8"?>
<!-- Generator: Adobe Illustrator 19.0.1, SVG Export Plug-In . SVG Version: 6.00 Build 0)  -->
<svg version="1.1" xmlns="http://www.w3.org/2000/svg" xmlns:xlink="http://www.w3.org/1999/xlink" x="0px" y="0px"
	 viewBox="-247 370.9 100 100" style="enable-background:new -247 370.9 100 100;" xml:space="preserve">
<style type="text/css">
	.st0{display:none;}
	.st1{display:inline;}
</style>
<g id="Layer_1" class="st0">
	<g class="st1">
		<path d="M-197,371c-27.6,0-50,22.4-50,50s22.4,50,50,50s50-22.4,50-50S-169.4,371-197,371z M-197,466c-24.9,0-45-20.1-45-45
			c0-24.9,20.1-45,45-45s45,20.1,45,45C-152,445.9-172.1,466-197,466z"/>
		<g>
			<path d="M-201,427v15.3h-9v-43.5h17c3.3,0,6.1,0.6,8.6,1.8c2.5,1.2,4.4,2.9,5.7,5.1s2,4.7,2,7.5c0,4.3-1.5,7.6-4.4,10.1
				c-2.9,2.5-7,3.7-12.1,3.7H-201z M-201,419.8h8c2.4,0,4.2-0.6,5.4-1.7c1.2-1.1,1.9-2.7,1.9-4.8c0-2.1-0.6-3.9-1.9-5.2s-3-2-5.2-2
				h-8.2V419.8z"/>
		</g>
	</g>
</g>
<g id="Layer_2" class="st0">
	<g class="st1">
		<g>
			<path d="M-151.3,464.7l-25-26.8c6.3-7.1,10.1-16.6,10.1-26.9c0-22-17.4-40-38.8-40c-21.4,0-38.8,17.9-38.8,40
				c0,22,17.4,40,38.8,40c8.8,0,16.9-3,23.4-8.1l25.1,27c0.7,0.7,1.6,1.1,2.5,1.1c0.9,0,1.8-0.3,2.4-1
				C-150,468.4-149.9,466.1-151.3,464.7z M-236.7,410.9c0-18,14.2-32.7,31.7-32.7c17.5,0,31.7,14.7,31.7,32.7
				c0,18-14.2,32.7-31.7,32.7C-222.4,443.6-236.7,429-236.7,410.9z"/>
		</g>
	</g>
</g>
<g id="Layer_3" class="st0">
	<g class="st1">
		<g>
			<path d="M-197,370.9c-27.6,0-50,22.4-50,50c0,27.6,22.4,50,50,50c27.6,0,50-22.4,50-50C-147,393.3-169.4,370.9-197,370.9z
				 M-197,463.5c-23.5,0-42.6-19.1-42.6-42.6c0-23.5,19.1-42.6,42.6-42.6c23.5,0,42.6,19.1,42.6,42.6
				C-154.4,444.4-173.5,463.5-197,463.5z M-173.9,417.2h-19.4v-18.5c0-2-1.7-3.7-3.7-3.7c-2,0-3.7,1.7-3.7,3.7v18.5h-19.4
				c-2,0-3.7,1.7-3.7,3.7c0,2,1.7,3.7,3.7,3.7h19.4V445c0,2,1.7,3.7,3.7,3.7c2,0,3.7-1.7,3.7-3.7v-20.4h19.4c2,0,3.7-1.7,3.7-3.7
				C-170.2,418.9-171.8,417.2-173.9,417.2z"/>
		</g>
	</g>
</g>
<g id="Layer_4">
	<g>
		<g>
			<path d="M-227.5,410.9c-0.6-0.7-1.7-0.7-2.4,0l-6.7,6.7c-0.7,0.7-0.7,1.7,0,2.4c0.3,0.3,0.8,0.5,1.2,0.5c0.4,0,0.9-0.2,1.2-0.5
				l6.7-6.7C-226.8,412.6-226.8,411.5-227.5,410.9z M-218.2,410.9l-11.7,11.7c-0.7,0.7-0.7,1.7,0,2.4c0.3,0.3,0.8,0.5,1.2,0.5
				c0.4,0,0.9-0.2,1.2-0.5l11.7-11.7c0.7-0.7,0.7-1.7,0-2.4C-216.5,410.3-217.5,410.3-218.2,410.9z M-177.5,411.1
				c-0.6-0.7-1.7-0.7-2.4,0l-6.7,6.7c-0.7,0.7-0.7,1.7,0,2.4c0.3,0.3,0.8,0.5,1.2,0.5c0.4,0,0.9-0.2,1.2-0.5l6.7-6.7
				C-176.8,412.8-176.8,411.8-177.5,411.1z M-168.2,411.1l-11.7,11.7c-0.7,0.7-0.7,1.7,0,2.4c0.3,0.3,0.7,0.5,1.2,0.5
				c0.4,0,0.9-0.2,1.2-0.5l11.7-11.7c0.7-0.7,0.7-1.7,0-2.4C-166.5,410.5-167.5,410.5-168.2,411.1z M-148.7,412.4l-1.8,0
				c-0.6-2.7-2.5-4.9-5.7-6.5c-2.4-1.2-5.2-1.9-8.2-1.9l-19.2-0.1c0,0-0.1,0-0.1,0v0l-26.7-0.1l-19.2-0.1c-3,0-5.8,0.6-8.2,1.8
				c-3.2,1.6-5.2,3.8-5.8,6.5l-1.9,0c-0.9,0-1.7,0.7-1.7,1.7c0,0.9,0.7,1.7,1.7,1.7l1.7,0l-0.1,13.5c0.2,3.3,2.5,10.1,10.4,12.5
				c1.5,0.4,3,0.7,4.6,0.7c1.9,0,3.9-0.3,5.8-0.9c8.4-2.8,22.6-9.1,22.6-20.3c0-0.2,0.2-2,0-4.4c1.9-1.4,4.9-1.4,6.7,0.1
				c-0.2,2.3,0,4.1,0,4.2c0,11.4,14.1,17.9,22.5,20.7c1.9,0.7,3.9,1,5.8,1c1.6,0,3.1-0.2,4.6-0.6c7.8-2.3,10.3-9.1,10.5-12.5
				l0.1-13.4l1.6,0c0.9,0,1.7-0.7,1.7-1.7C-147,413.2-147.7,412.4-148.7,412.4z M-203.7,420.5c0,9.6-14.3,15.3-20.4,17.3
				c-2.9,0.9-5.8,1-8.3,0.2c-7.5-2.3-8-9.2-8-9.4l0.1-15.1c0-2.1,1.4-3.8,4.1-5.2c2-1,4.3-1.5,6.7-1.5l19.2,0.1
				c1.7,0,3.1,0.6,4.1,1.7C-202.9,412.5-203.7,420.3-203.7,420.5z M-193.1,412.8c-2.4-1.1-5.4-1.2-7.8-0.1c-0.4-2-1.2-4-2.4-5.6
				l12.7,0.1C-191.9,408.8-192.6,410.8-193.1,412.8z M-153.6,429c0,0.3-0.6,7.2-8.1,9.4c-2.6,0.8-5.5,0.7-8.3-0.3
				c-6.1-2.1-20.3-7.9-20.2-17.7c0-0.1-0.7-7.9,2.6-11.5c1.1-1.2,2.4-1.7,4.1-1.7l19.2,0.1c2.5,0,4.8,0.5,6.7,1.5
				c2.5,1.3,3.9,2.9,4,4.8c0,0.1,0,0.2,0,0.4c0,0.2,0,0.3,0.1,0.5L-153.6,429z"/>
		</g>
	</g>
	<g class="st0">
		<g class="st1">
			<path d="M-168.6,419.4c0-0.9-0.8-1.7-1.7-1.6c-0.9,0-1.7,0.8-1.7,1.7l0,1.8c-1.5,0.3-2.9,0.9-4.1,1.7l-1.3-1.3
				c-0.7-0.6-1.7-0.6-2.4,0c-0.6,0.7-0.6,1.7,0,2.4l1.3,1.3c-0.8,1.2-1.4,2.6-1.7,4.1l-1.8,0c-0.9,0-1.7,0.8-1.7,1.7
				c0,0.9,0.8,1.7,1.7,1.6l1.8,0c0.3,1.5,0.9,2.9,1.8,4.1l-1.3,1.3c-0.6,0.7-0.6,1.7,0,2.4c0.3,0.3,0.8,0.5,1.2,0.5
				c0.4,0,0.9-0.2,1.2-0.5l1.3-1.3c1.2,0.8,2.6,1.4,4.1,1.7l0,1.8c0,0.9,0.8,1.7,1.7,1.6c0.9,0,1.7-0.8,1.7-1.7l0-1.8
				c1.5-0.3,2.9-0.9,4.1-1.7l1.3,1.3c0.3,0.3,0.8,0.5,1.2,0.5c0.4,0,0.9-0.2,1.2-0.5c0.6-0.7,0.6-1.7,0-2.4l-1.3-1.3
				c0.8-1.2,1.4-2.6,1.7-4.1l1.8,0c0.9,0,1.7-0.8,1.7-1.7c0-0.9-0.8-1.7-1.7-1.6l-1.8,0c-0.3-1.5-0.9-2.9-1.8-4.1l1.3-1.3
				c0.6-0.7,0.6-1.7,0-2.4c-0.7-0.6-1.7-0.6-2.4,0l-1.3,1.3c-1.2-0.8-2.6-1.4-4.1-1.7L-168.6,419.4z M-163.5,431
				c0,3.7-2.9,6.7-6.6,6.7c-3.7,0-6.7-2.9-6.7-6.6c0-3.7,2.9-6.7,6.6-6.7C-166.6,424.4-163.5,427.3-163.5,431z M-146.9,435
				l-15.3-36.3c0,0,0,0,0,0l-3.4-8.2c-0.2-0.5-0.7-0.9-1.2-1c-0.5-0.1-1.1,0.1-1.5,0.4c0,0-4.5,2.9-28.9,3.2
				c-24.5,0.3-28.8-2.5-28.9-2.6c-0.4-0.4-1-0.5-1.5-0.4c-0.5,0.1-1,0.5-1.2,1l-3.3,8.3l-14.6,36.6c-0.1,0.2-0.1,0.4-0.1,0.7l0,0.4
				c0,0.2,0.1,0.5,0.2,0.7c0.9,1.8,9.6,17.7,31.9,18.6c0.1,0,0.2,0,0.4,0c2.3,0,4.4-1.2,5.6-3.1l12.1-14.6l12.3,14.4
				c1.3,2,3.6,3.1,6,2.9c22.2-1.4,30.6-17.5,31.5-19.3c0.1-0.2,0.2-0.5,0.2-0.7l0-0.4C-146.8,435.4-146.9,435.2-146.9,435z
				 M-226.4,394c3.2,1.1,10.9,2.6,29.2,2.4c18.3-0.2,26-1.8,29.1-3l2.2,5.2c0,0,0,0,0,0c-0.1,0.1-0.2,0.1-0.4,0.2c0,0-0.1,0-0.1,0.1
				c-0.1,0.1-0.2,0.1-0.4,0.2c0,0-0.1,0-0.1,0.1c-0.2,0.1-0.4,0.1-0.6,0.2c-0.1,0-0.1,0-0.2,0.1c-0.2,0.1-0.4,0.1-0.6,0.2
				c-0.1,0-0.1,0-0.2,0.1c-0.2,0.1-0.5,0.2-0.8,0.2c-0.1,0-0.1,0-0.2,0c-0.2,0.1-0.5,0.1-0.8,0.2c-0.1,0-0.1,0-0.2,0
				c-0.3,0.1-0.7,0.2-1,0.3c0,0-0.1,0-0.1,0c-0.3,0.1-0.7,0.2-1,0.2c-0.1,0-0.1,0-0.2,0c-0.4,0.1-0.8,0.2-1.3,0.3c0,0-0.1,0-0.1,0
				c-0.4,0.1-0.8,0.2-1.3,0.2c-0.1,0-0.2,0-0.3,0c-0.5,0.1-1,0.2-1.5,0.3c0,0,0,0-0.1,0c-0.5,0.1-1,0.2-1.6,0.2c-0.1,0-0.2,0-0.3,0
				c-1.1,0.2-2.3,0.3-3.6,0.4c-0.1,0-0.3,0-0.4,0c-1.3,0.1-2.7,0.2-4.2,0.3c-0.1,0-0.2,0-0.3,0c-0.3-0.4-0.7-0.8-1-1.1
				c-1.6-1.6-3.5-2.7-5.4-3.2c-0.3-0.1-0.6-0.1-0.9-0.2c-0.1,0-0.2,0-0.3,0c-0.2,0-0.4,0-0.7,0c0,0-0.1,0-0.1,0c0,0-0.1,0-0.1,0
				c-0.2,0-0.4,0-0.5,0c-0.1,0-0.2,0-0.2,0c-0.2,0-0.4,0.1-0.6,0.1c0,0-0.1,0-0.1,0c-0.2,0.1-0.5,0.2-0.7,0.3c0,0,0,0,0,0
				c-0.2,0.1-0.4,0.2-0.6,0.4c0,0,0,0,0,0c-0.2-0.1-0.3-0.2-0.5-0.3c-0.1,0-0.1,0-0.2-0.1c-0.1-0.1-0.3-0.1-0.4-0.2
				c-0.1,0-0.2,0-0.2-0.1c-0.1,0-0.3-0.1-0.4-0.1c-0.1,0-0.2,0-0.3,0c-0.1,0-0.3,0-0.4,0c-0.1,0-0.2,0-0.3,0c-0.1,0-0.3,0-0.4,0
				c-0.1,0-0.2,0-0.3,0c-0.2,0-0.3,0-0.5,0.1c-0.1,0-0.2,0-0.3,0c-0.2,0-0.5,0.1-0.7,0.2c-1.8,0.5-3.7,1.7-5.3,3.4
				c-0.3,0.3-0.5,0.6-0.8,0.9c-0.1,0-0.2,0-0.2,0c-0.6,0-1.2-0.1-1.7-0.1c-0.1,0-0.1,0-0.2,0c-0.5,0-1-0.1-1.5-0.1
				c-0.2,0-0.3,0-0.5,0c-0.4,0-0.9-0.1-1.3-0.1c-0.1,0-0.2,0-0.3,0c-0.5-0.1-1-0.1-1.4-0.2c-0.1,0-0.3,0-0.4-0.1
				c-0.4-0.1-0.7-0.1-1-0.2c-0.1,0-0.2,0-0.3-0.1c-0.4-0.1-0.8-0.1-1.2-0.2c-0.1,0-0.2,0-0.3-0.1c-0.3-0.1-0.6-0.1-0.9-0.2
				c-0.1,0-0.2,0-0.3-0.1c-0.3-0.1-0.7-0.1-1-0.2c-0.1,0-0.2,0-0.2-0.1c-0.3-0.1-0.5-0.1-0.7-0.2c-0.1,0-0.2,0-0.3-0.1
				c-0.3-0.1-0.5-0.1-0.7-0.2c-0.1,0-0.1,0-0.2,0c-0.2-0.1-0.5-0.1-0.7-0.2c-0.1,0-0.2-0.1-0.3-0.1c-0.2-0.1-0.3-0.1-0.5-0.1
				c-0.1,0-0.1,0-0.2-0.1c-0.2-0.1-0.4-0.1-0.6-0.2c-0.1,0-0.1-0.1-0.2-0.1c-0.1,0-0.2-0.1-0.3-0.1c-0.1,0-0.1,0-0.2-0.1
				c-0.1-0.1-0.3-0.1-0.4-0.2c-0.1,0-0.1,0-0.2-0.1c-0.1,0-0.1-0.1-0.2-0.1c0,0-0.1,0-0.1,0L-226.4,394z M-197.1,402.1
				c0,0,0-0.1,0-0.1c0-0.1,0.1-0.2,0.2-0.3c0.1-0.1,0.2-0.2,0.4-0.2c0,0,0.1,0,0.2,0c0.1,0,0.2,0,0.3,0c0.1,0,0.2,0,0.4,0
				c0.1,0,0.1,0,0.2,0c0.2,0,0.4,0.1,0.6,0.1c1.3,0.3,2.7,1.2,3.9,2.4c0.2,0.2,0.4,0.5,0.7,0.7c0.2,0.2,0.4,0.5,0.6,0.7c0,0,0,0,0,0
				c0.5,0.7,0.9,1.4,1.1,2.1c0,0,0,0,0,0.1c0.1,0.2,0.1,0.4,0.2,0.6c0,0,0,0,0,0c0,0.2,0.1,0.3,0.1,0.5c0,0.1,0,0.1,0,0.2
				c0,0.1,0,0.2,0,0.3c0,0.1,0,0.2,0,0.3c0,0,0,0.1,0,0.1c0,0.1-0.1,0.2-0.2,0.3c-0.3,0.3-1.1,0.4-2,0.1c-1.3-0.3-2.7-1.2-3.9-2.4
				c-0.3-0.3-0.6-0.6-0.8-0.9c0,0,0-0.1-0.1-0.1c-0.2-0.3-0.4-0.5-0.6-0.8c-0.1-0.2-0.2-0.3-0.3-0.4c-0.1-0.1-0.1-0.2-0.2-0.3
				c-0.2-0.3-0.3-0.7-0.4-0.9c0,0,0,0,0,0c-0.1-0.2-0.1-0.3-0.2-0.5c0-0.2-0.1-0.3-0.1-0.5C-197,402.8-197,402.5-197.1,402.1z
				 M-200.4,403.2c0,0.3-0.1,0.6-0.2,0.9c0,0,0,0.1-0.1,0.1c-0.2,0.6-0.5,1.2-0.9,1.8c0,0,0,0,0,0c-0.2,0.3-0.4,0.6-0.6,0.8
				c-0.2,0.3-0.5,0.6-0.8,0.9c-1.2,1.2-2.6,2.1-3.9,2.5c-0.5,0.1-0.9,0.2-1.2,0.2c-0.2,0-0.4-0.1-0.6-0.1c-0.1,0-0.2-0.1-0.2-0.1
				c-0.1-0.1-0.1-0.2-0.2-0.3c0-0.1,0-0.1-0.1-0.2c0-0.1,0-0.1,0-0.2c0-0.1,0-0.2,0-0.4c0,0,0-0.1,0-0.1c0-0.1,0-0.3,0.1-0.5
				c0,0,0,0,0-0.1c0.2-0.8,0.6-1.8,1.4-2.9c0,0,0,0,0,0c0.1-0.2,0.3-0.4,0.4-0.6c0.2-0.2,0.4-0.5,0.6-0.7c1.2-1.2,2.6-2.1,3.9-2.5
				c0.2-0.1,0.4-0.1,0.6-0.1c0.1,0,0.1,0,0.2,0c0.1,0,0.2,0,0.3,0c0.1,0,0.2,0,0.4,0c0,0,0.1,0,0.2,0c0.1,0,0.3,0.1,0.4,0.2
				c0.1,0.1,0.1,0.2,0.2,0.3c0,0.1,0,0.1,0,0.2C-200.5,402.6-200.5,402.9-200.4,403.2z M-178.7,452.7c-1.2,0.1-2.4-0.5-3.1-1.5
				c0-0.1-0.1-0.1-0.1-0.2l-13.5-15.7c-0.3-0.4-0.9-0.7-1.5-0.7c-0.5,0-1.1,0.3-1.4,0.7l0,0l-13.3,16.1c0,0.1-0.1,0.1-0.1,0.2
				c-0.7,1-1.8,1.7-3,1.6c-19-0.8-27.1-13.4-28.8-16.3l13.7-34.4c0,0,0.1,0,0.1,0c0.1,0,0.2,0.1,0.3,0.1c0,0,0.1,0,0.1,0.1
				c0.2,0.1,0.3,0.1,0.5,0.2c0,0,0,0,0,0c0.2,0.1,0.4,0.1,0.6,0.2c0,0,0.1,0,0.1,0.1c0.2,0.1,0.3,0.1,0.5,0.2c0,0,0.1,0,0.1,0
				c0.5,0.2,1,0.3,1.6,0.5c0,0,0.1,0,0.1,0c0.2,0.1,0.5,0.1,0.8,0.2c0.1,0,0.1,0,0.2,0c0.3,0.1,0.6,0.1,0.9,0.2c0,0,0,0,0.1,0
				c0.4,0.1,0.7,0.2,1.1,0.2c0,0,0,0,0.1,0c0.3,0.1,0.7,0.1,1.1,0.2c0.1,0,0.2,0,0.2,0c0.3,0.1,0.7,0.1,1.1,0.2c0.1,0,0.1,0,0.2,0
				c0.9,0.1,1.8,0.3,2.8,0.4c0.1,0,0.2,0,0.3,0c0.4,0.1,0.9,0.1,1.3,0.2c0.1,0,0.2,0,0.3,0c1.1,0.1,2.2,0.2,3.4,0.3c0,0,0,0,0,0
				c-0.8,1.9-1,3.8-0.4,5.2c0,0,0,0.1,0,0.1c0.1,0.2,0.2,0.4,0.3,0.5c0,0,0.1,0.1,0.1,0.1c0.1,0.2,0.3,0.4,0.5,0.6
				c0.2,0.2,0.4,0.3,0.6,0.5c0.1,0,0.1,0.1,0.2,0.1c0.2,0.1,0.3,0.2,0.5,0.3c0.1,0,0.1,0.1,0.2,0.1c0.2,0.1,0.5,0.2,0.8,0.2
				c0,0,0.1,0,0.1,0c0.2,0,0.5,0.1,0.7,0.1c0,0,0.1,0,0.1,0c0.1,0,0.1,0,0.2,0c0.2,0,0.4,0,0.6-0.1c0.1,0,0.2,0,0.3,0
				c0.3-0.1,0.6-0.1,0.9-0.2c0.5-0.1,0.9-0.3,1.4-0.5c0.6-0.3,1.1-0.6,1.7-0.9c-0.8,2.6-1,5.6-0.7,7.5c0.5,2.8,2.2,3.4,3.1,3.6
				c0.1,0,0.2,0,0.3,0c0.8,0,1.5-0.6,1.6-1.4c0.1-0.9-0.5-1.7-1.4-1.9c-0.1-0.1-0.6-1-0.5-3.2c0.1-1.3,0.4-2.7,0.7-3.8
				c0.9,2.1,2.4,4,4.2,5c0.3,0.2,0.6,0.2,0.8,0.2c0.6,0,1.1-0.3,1.4-0.8c0.5-0.8,0.2-1.8-0.6-2.3c-1.7-0.9-3-3.2-3.2-5.3
				c0.1,0.1,0.2,0.2,0.3,0.3c1.6,1.6,3.5,2.7,5.4,3.2c0.3,0.1,0.6,0.1,0.9,0.2c0.1,0,0.2,0,0.3,0c0.2,0,0.4,0,0.6,0
				c0.1,0,0.1,0,0.2,0c0,0,0.1,0,0.1,0c0.3,0,0.5,0,0.8-0.1c0,0,0.1,0,0.1,0c0.3-0.1,0.5-0.1,0.8-0.2c0.1,0,0.1-0.1,0.2-0.1
				c0.2-0.1,0.4-0.2,0.5-0.3c0.1,0,0.1-0.1,0.2-0.1c0.2-0.1,0.4-0.3,0.6-0.5c0,0,0,0,0,0c0.1-0.2,0.3-0.3,0.4-0.5
				c0.1-0.1,0.1-0.2,0.2-0.3c0-0.1,0.1-0.2,0.1-0.3c0.1-0.1,0.1-0.3,0.2-0.4c0-0.1,0-0.1,0.1-0.2c0.1-0.2,0.1-0.3,0.1-0.5
				c0,0,0-0.1,0-0.1c0-0.2,0-0.4,0.1-0.6c0-0.1,0-0.1,0-0.2c0-0.2,0-0.4,0-0.5c0-0.2,0-0.3-0.1-0.5c0-0.1,0-0.2,0-0.3
				c-0.1-0.3-0.1-0.5-0.2-0.8c-0.1-0.3-0.2-0.6-0.4-1c0.1,0,0.2,0,0.2,0c0.6,0,1.2-0.1,1.7-0.1c0.1,0,0.2,0,0.3,0
				c0.7-0.1,1.3-0.1,1.9-0.2c0.1,0,0.2,0,0.3,0c0.5-0.1,1-0.1,1.5-0.2c0.2,0,0.3,0,0.5-0.1c0.4-0.1,0.8-0.1,1.3-0.2
				c0.1,0,0.3,0,0.4-0.1c0.5-0.1,1-0.2,1.5-0.2c0.1,0,0.2,0,0.2,0c0.4-0.1,0.8-0.1,1.2-0.2c0.2,0,0.3-0.1,0.5-0.1
				c0.3-0.1,0.6-0.1,0.9-0.2c0.1,0,0.3-0.1,0.4-0.1c0.4-0.1,0.8-0.2,1.1-0.3c0.1,0,0.1,0,0.2,0c0.3-0.1,0.6-0.2,0.9-0.2
				c0.1,0,0.3-0.1,0.4-0.1c0.2-0.1,0.4-0.1,0.7-0.2c0.1,0,0.2-0.1,0.4-0.1c0.2-0.1,0.5-0.1,0.7-0.2c0.1,0,0.1,0,0.2-0.1
				c0.3-0.1,0.5-0.2,0.8-0.3c0.1,0,0.2-0.1,0.3-0.1c0.2-0.1,0.3-0.1,0.5-0.2c0.1,0,0.2-0.1,0.2-0.1c0.2-0.1,0.4-0.1,0.5-0.2
				c0,0,0.1,0,0.1,0c0.2-0.1,0.4-0.2,0.6-0.2c0,0,0.1,0,0.1,0c0.2-0.1,0.3-0.1,0.4-0.2c0,0,0,0,0,0l14.4,34.1
				C-151.8,438.8-159.6,451.5-178.7,452.7z"/>
		</g>
	</g>
	<g class="st0">
		<g class="st1">
			<path d="M-148.7,400.8c-0.6-0.8-1.6-1.2-2.6-1.2l-22.1,0l0-5.2c0-13-10.6-23.6-23.5-23.5c-13.1,0-23.8,10.7-23.7,23.9l0,4.9
				l-22.1,0c-1,0-1.9,0.4-2.6,1.2c-0.6,0.8-0.9,1.8-0.7,2.7l2.3,13h0l3.5,20.3h0l2.4,13.6h0l2.7,15.3c0.6,2.9,3.3,5,6.2,5l64.1-0.1
				c3,0,5.6-2.1,6.2-5.1l0-0.1c0,0,0,0,0,0l2.4-14.4l0.1-0.8h0l4.5-26.7l1.2-7.2h0l2.2-13C-147.8,402.6-148.1,401.6-148.7,400.8z
				 M-196.9,374.3c11.1,0,20.1,9,20.1,20.1l0,5.2l-5.1,0l0,1.7c0,8.4-6.8,15.2-15.2,15.2c-8.4,0-15.2-6.8-15.2-15.1l0-1.7l-5.1,0
				l0-4.9C-217.3,383.5-208.1,374.3-196.9,374.3z M-240.3,416.7l-2.4-13.6l27.2,0c0.5,5.6,3.6,10.5,8,13.5L-240.3,416.7z
				 M-161.6,463.3c-0.3-0.6-0.9-1-1.5-1c-0.9,0-1.7,0.8-1.7,1.7c0,0.9,0.8,1.7,1.7,1.7c0.5,0,0.9-0.2,1.2-0.5c0,0,0,0.1,0,0.1
				c0,0.1,0,0.1-0.1,0.2c0,0.1-0.1,0.2-0.1,0.2c0,0.1-0.1,0.1-0.1,0.2c0,0.1-0.1,0.1-0.2,0.2c0,0.1-0.1,0.1-0.1,0.2
				c-0.1,0.1-0.1,0.1-0.2,0.2c-0.1,0-0.1,0.1-0.2,0.2c-0.1,0.1-0.2,0.1-0.3,0.2c-0.1,0-0.1,0.1-0.2,0.1c-0.1,0.1-0.2,0.1-0.3,0.1
				c-0.1,0-0.1,0-0.1,0.1c-0.1,0-0.2,0.1-0.4,0.1c0,0-0.1,0-0.1,0c-0.2,0-0.3,0-0.5,0l-64.1,0.1c-1.4,0-2.6-1-2.9-2.3l-1.7-9.6
				c0.7-0.2,1.2-0.9,1.2-1.6l6.8,0c0,0.9,0.8,1.7,1.7,1.7c0.9,0,1.7-0.8,1.7-1.7v0l6.8,0c0,0.9,0.8,1.7,1.7,1.7
				c0.9,0,1.7-0.8,1.7-1.7l6.8,0c0,0.9,0.8,1.7,1.7,1.7c0.9,0,1.7-0.8,1.7-1.7l6.8,0v0c0,0.9,0.8,1.7,1.7,1.7c0.9,0,1.7-0.8,1.7-1.7
				v0l6.8,0c0,0.9,0.8,1.7,1.7,1.7c0.9,0,1.7-0.8,1.7-1.7v0l6.8,0c0,0.9,0.8,1.7,1.7,1.7c0.9,0,1.7-0.8,1.7-1.7l6.8,0c0,0,0,0,0,0
				c0,0.9,0.8,1.7,1.7,1.7c0.9,0,1.7-0.8,1.7-1.7l1.5,0L-161.6,463.3z M-159.4,450.5l-75,0.1l-2.4-13.6l79.7-0.1L-159.4,450.5z
				 M-154.6,422l-2,11.5l-57.3,0.1c0.9,0,1.7-0.8,1.7-1.7c0-0.9-0.8-1.7-1.7-1.7c-0.9,0-1.7,0.8-1.7,1.7c0,0.9,0.8,1.7,1.7,1.7
				l-20.3,0c0.9,0,1.7-0.8,1.7-1.7c0-0.9-0.8-1.7-1.7-1.7c-0.9,0-1.7,0.8-1.7,1.7c0,0.9,0.8,1.7,1.7,1.7l-3.3,0l-0.9-5.3
				c0.5-0.3,0.8-0.8,0.8-1.4c0-0.8-0.6-1.5-1.3-1.7l-0.9-5.1l5.6,0c-0.9,0-1.7,0.8-1.7,1.7c0,0.9,0.8,1.7,1.7,1.7
				c0.9,0,1.7-0.8,1.7-1.7c0-0.9-0.8-1.7-1.7-1.7l20.3,0c-0.9,0-1.7,0.8-1.7,1.7c0,0.9,0.8,1.7,1.7,1.7c0.9,0,1.7-0.8,1.7-1.7
				c0-0.9-0.8-1.7-1.7-1.7l10.1,0c-0.9,0-1.7,0.8-1.7,1.7c0,0.9,0.8,1.7,1.7,1.7c0.9,0,1.7-0.8,1.7-1.7c0-0.9-0.8-1.7-1.7-1.7
				l10.1,0c-0.9,0-1.7,0.8-1.7,1.7c0,0.9,0.8,1.7,1.7,1.7c0.9,0,1.7-0.8,1.7-1.7c0-0.9-0.8-1.7-1.7-1.7l10.1,0
				c-0.9,0-1.7,0.8-1.7,1.7c0,0.9,0.8,1.7,1.7,1.7c0.9,0,1.7-0.8,1.7-1.7c0-0.9-0.8-1.7-1.7-1.7l10.1,0c-0.9,0-1.7,0.8-1.7,1.7
				c0,0.9,0.8,1.7,1.7,1.7c0.9,0,1.7-0.8,1.7-1.7c0-0.9-0.8-1.7-1.7-1.7l10.1,0c-0.9,0-1.7,0.8-1.7,1.7c0,0.9,0.8,1.7,1.7,1.7
				c0.9,0,1.7-0.8,1.7-1.7c0-0.9-0.8-1.7-1.7-1.7l9,0L-154.6,422z M-153.6,416.6l-32.8,0c4.4-3.1,7.4-7.9,7.9-13.6l27.2,0
				L-153.6,416.6z M-228.9,457.3c-0.9,0-1.7,0.8-1.7,1.7c0,0.9,0.8,1.7,1.7,1.7c0.9,0,1.7-0.8,1.7-1.7
				C-227.3,458.1-228,457.3-228.9,457.3z M-223.9,462.4c-0.9,0-1.7,0.8-1.7,1.7s0.8,1.7,1.7,1.7c0.9,0,1.7-0.8,1.7-1.7
				C-222.2,463.2-222.9,462.4-223.9,462.4z M-218.8,457.3c-0.9,0-1.7,0.8-1.7,1.7c0,0.9,0.8,1.7,1.7,1.7s1.7-0.8,1.7-1.7
				C-217.1,458.1-217.9,457.3-218.8,457.3z M-208.7,457.3c-0.9,0-1.7,0.8-1.7,1.7c0,0.9,0.8,1.7,1.7,1.7c0.9,0,1.7-0.8,1.7-1.7
				C-207,458.1-207.8,457.3-208.7,457.3z M-213.7,462.4c-0.9,0-1.7,0.8-1.7,1.7c0,0.9,0.8,1.7,1.7,1.7c0.9,0,1.7-0.8,1.7-1.7
				C-212.1,463.2-212.8,462.4-213.7,462.4z M-203.6,462.4c-0.9,0-1.7,0.8-1.7,1.7c0,0.9,0.8,1.7,1.7,1.7c0.9,0,1.7-0.8,1.7-1.7
				C-201.9,463.1-202.7,462.4-203.6,462.4z M-198.6,457.3c-0.9,0-1.7,0.8-1.7,1.7c0,0.9,0.8,1.7,1.7,1.7c0.9,0,1.7-0.8,1.7-1.7
				C-196.9,458.1-197.6,457.3-198.6,457.3z M-188.4,457.3c-0.9,0-1.7,0.8-1.7,1.7c0,0.9,0.8,1.7,1.7,1.7c0.9,0,1.7-0.8,1.7-1.7
				C-186.7,458-187.5,457.3-188.4,457.3z M-193.5,462.4c-0.9,0-1.7,0.8-1.7,1.7c0,0.9,0.8,1.7,1.7,1.7c0.9,0,1.7-0.8,1.7-1.7
				C-191.8,463.1-192.6,462.4-193.5,462.4z M-183.4,462.4c-0.9,0-1.7,0.8-1.7,1.7c0,0.9,0.8,1.7,1.7,1.7c0.9,0,1.7-0.8,1.7-1.7
				C-181.7,463.1-182.4,462.4-183.4,462.4z M-178.3,457.3c-0.9,0-1.7,0.8-1.7,1.7c0,0.9,0.8,1.7,1.7,1.7c0.9,0,1.7-0.8,1.7-1.7
				C-176.6,458-177.4,457.3-178.3,457.3z M-168.2,457.3c-0.9,0-1.7,0.8-1.7,1.7c0,0.9,0.8,1.7,1.7,1.7c0.9,0,1.7-0.8,1.7-1.7
				C-166.5,458-167.2,457.3-168.2,457.3z M-173.2,462.3c-0.9,0-1.7,0.8-1.7,1.7c0,0.9,0.8,1.7,1.7,1.7c0.9,0,1.7-0.8,1.7-1.7
				C-171.5,463.1-172.3,462.3-173.2,462.3z M-223.9,423.4c0.9,0,1.7-0.8,1.7-1.7c0-0.9-0.8-1.7-1.7-1.7c-0.9,0-1.7,0.8-1.7,1.7
				C-225.6,422.7-224.9,423.4-223.9,423.4z M-229,425.1c-0.9,0-1.7,0.8-1.7,1.7c0,0.9,0.8,1.7,1.7,1.7c0.9,0,1.7-0.8,1.7-1.7
				C-227.3,425.9-228.1,425.1-229,425.1z M-223.9,430.2c-0.9,0-1.7,0.8-1.7,1.7c0,0.9,0.8,1.7,1.7,1.7c0.9,0,1.7-0.8,1.7-1.7
				C-222.2,431-223,430.2-223.9,430.2z M-218.9,425.1c-0.9,0-1.7,0.8-1.7,1.7c0,0.9,0.8,1.7,1.7,1.7s1.7-0.8,1.7-1.7
				C-217.2,425.9-217.9,425.1-218.9,425.1z M-208.7,425.1c-0.9,0-1.7,0.8-1.7,1.7c0,0.9,0.8,1.7,1.7,1.7c0.9,0,1.7-0.8,1.7-1.7
				C-207.1,425.9-207.8,425.1-208.7,425.1z M-203.7,430.2c-0.9,0-1.7,0.8-1.7,1.7c0,0.9,0.8,1.7,1.7,1.7c0.9,0,1.7-0.8,1.7-1.7
				C-202,431-202.7,430.2-203.7,430.2z M-198.6,425.1c-0.9,0-1.7,0.8-1.7,1.7c0,0.9,0.8,1.7,1.7,1.7c0.9,0,1.7-0.8,1.7-1.7
				C-196.9,425.9-197.7,425.1-198.6,425.1z M-188.5,425.1c-0.9,0-1.7,0.8-1.7,1.7c0,0.9,0.8,1.7,1.7,1.7c0.9,0,1.7-0.8,1.7-1.7
				C-186.8,425.8-187.6,425.1-188.5,425.1z M-193.5,430.2c-0.9,0-1.7,0.8-1.7,1.7c0,0.9,0.8,1.7,1.7,1.7c0.9,0,1.7-0.8,1.7-1.7
				C-191.9,430.9-192.6,430.2-193.5,430.2z M-183.4,430.2c-0.9,0-1.7,0.8-1.7,1.7c0,0.9,0.8,1.7,1.7,1.7c0.9,0,1.7-0.8,1.7-1.7
				C-181.7,430.9-182.5,430.2-183.4,430.2z M-178.4,425.1c-0.9,0-1.7,0.8-1.7,1.7c0,0.9,0.8,1.7,1.7,1.7c0.9,0,1.7-0.8,1.7-1.7
				C-176.7,425.8-177.4,425.1-178.4,425.1z M-168.2,425.1c-0.9,0-1.7,0.8-1.7,1.7c0,0.9,0.8,1.7,1.7,1.7c0.9,0,1.7-0.8,1.7-1.7
				C-166.5,425.8-167.3,425.1-168.2,425.1z M-173.3,430.2c-0.9,0-1.7,0.8-1.7,1.7c0,0.9,0.8,1.7,1.7,1.7c0.9,0,1.7-0.8,1.7-1.7
				C-171.6,430.9-172.4,430.2-173.3,430.2z M-163.2,430.1c-0.9,0-1.7,0.8-1.7,1.7c0,0.9,0.8,1.7,1.7,1.7c0.9,0,1.7-0.8,1.7-1.7
				C-161.5,430.9-162.2,430.1-163.2,430.1z M-158.1,428.4c0.9,0,1.7-0.8,1.7-1.7c0-0.9-0.8-1.7-1.7-1.7c-0.9,0-1.7,0.8-1.7,1.7
				C-159.8,427.7-159,428.4-158.1,428.4z"/>
		</g>
	</g>
	<g class="st0">
		<g class="st1">
			<path d="M-161.9,406.2c-3.2-1.9-7-2.9-11-2.9l-32.6,0c-4.1,0-7.9,1-11.1,2.9c-4.9,2.9-7.4,7.1-7.4,12l0,13.1
				c0,0.1-0.3,3.2,2.2,5.9c2.5,2.8,6.8,4.2,12.7,4.2c0.7,0,16.5-0.4,16.5-11.6l0,0c0-1.8,1.5-3.3,3.3-3.3c1.8,0,3.3,1.5,3.3,3.3l0,0
				c0,11.2,15.8,11.6,16.5,11.6c5.9,0,10.2-1.4,12.7-4.2c2.5-2.7,2.2-5.8,2.2-5.8l0-13.2C-154.5,413.2-157.1,409.1-161.9,406.2z
				 M-159.3,435c-1.8,2-5.4,3-10.2,3c-0.1,0-13.3-0.3-13.3-8.3l0,0c0-3.7-3-6.6-6.6-6.6c-3.6,0-6.6,3-6.6,6.6l0,0
				c0,7.9-13.1,8.3-13.2,8.3c-4.8,0-8.4-1.1-10.2-3c-1.5-1.6-1.4-3.4-1.4-3.6l0-13.2c0-3.7,2-6.8,5.8-9.1c2.7-1.6,5.9-2.4,9.3-2.4
				l32.6,0c3.5,0,6.7,0.9,9.3,2.5c3.9,2.3,5.8,5.4,5.8,9.1l0,13.4C-157.9,431.6-157.7,433.3-159.3,435z M-147.9,415.1
				c0-10.2-8.3-18.5-18.5-18.5l-45.8,0c-10.2,0-18.5,8.3-18.5,18.5l0,2.8l0,0.2l0,0.1l-3.3,0l0.1-46.3l-13.2,0l-0.1,77.8
				c0,11,8.9,19.9,19.8,19.9l17.2,0c0.7,1,1.8,1.7,3.1,1.7l19,0c2.1,0,3.7-1.7,3.7-3.7l0-9.1c0-2.1-1.7-3.7-3.7-3.7l-19,0
				c-1.3,0-2.4,0.7-3.1,1.7l-17.2,0c-3.7,0-6.6-3-6.6-6.6l0-21.5l3.3,0l0,3.1c-0.1,1.8,0.2,6.3,3.9,10.4c3.8,4.2,9.8,6.4,17.7,6.4
				c8.3-0.1,15.7-3.3,19.7-8.3c4,5.1,11.3,8.2,19.8,8.4c7.9,0,13.8-2.1,17.6-6.3c3.7-4.1,4-8.7,3.9-10.4L-147.9,415.1z
				 M-207.5,458.4l0.1-0.3c0.1-0.1,0.2-0.2,0.4-0.2l19,0c0.2,0,0.4,0.2,0.4,0.4l0,9.1c0,0.2-0.2,0.4-0.4,0.4l-19,0
				c-0.1,0-0.3-0.1-0.3-0.2l0-0.2L-207.5,458.4z M-243.8,375l6.6,0l0,9.9l-6.6,0L-243.8,375z M-227.4,459.5l16.5,0l0,6.6l-16.5,0
				c-9.1,0-16.5-7.4-16.5-16.6l0.1-61.2l6.6,0l-0.1,61.2C-237.3,455-232.9,459.5-227.4,459.5z M-230.7,424.7l-3.1,0l0-3.3l3.1,0
				L-230.7,424.7z M-151.2,421.5L-151.2,421.5l0,9.8c0,1.4-0.2,4.9-3.1,8.1c-3.2,3.5-8.3,5.2-15.2,5.2c-7.3-0.1-13.8-2.9-17.1-7.1
				c-0.6-0.8-1.6-1.3-2.6-1.3c-1,0-2,0.5-2.6,1.3c-3.3,4.2-9.9,6.9-17.1,7.1c-7,0-12.1-1.8-15.3-5.3c-2.9-3.2-3.1-6.7-3-8.1l0-3.2
				l0,0l0-9.9h0l0-3c0-8.4,6.8-15.2,15.2-15.2l45.8,0c8.4,0,15.2,6.8,15.2,15.2L-151.2,421.5z M-206.3,412c-0.6-0.6-1.7-0.6-2.3,0
				l-6.6,6.6c-0.6,0.6-0.6,1.7,0,2.3c0.3,0.3,0.7,0.5,1.2,0.5c0.4,0,0.8-0.2,1.2-0.5l6.6-6.6C-205.7,413.7-205.7,412.6-206.3,412z
				 M-197.1,412l-11.6,11.6c-0.6,0.6-0.6,1.7,0,2.3c0.3,0.3,0.7,0.5,1.2,0.5c0.4,0,0.8-0.2,1.2-0.5l11.6-11.6c0.6-0.6,0.6-1.7,0-2.3
				C-195.4,411.3-196.4,411.3-197.1,412z"/>
		</g>
	</g>
	<g class="st0">
		<g class="st1">
			<path d="M-164.6,432.8c-3.7-3.7-6.9-6.5-9.7-8.4c0-0.2,0.1-0.4,0.1-0.6l0-4.3c0-2.3-1.7-4.2-3.9-4.5c-0.4-5.6-2.9-6.9-5-6.9
				c-1.3,0-2.3,0.4-3.1,1.1c-0.9-0.7-2.2-1.1-3.7-1.1c-0.7,0-1.4,0.2-2.1,0.5c-1.3-5.2-5.1-9-9.7-9c-1.8,0-3.5,0.6-4.9,1.6
				l-2.9-13.6c3.3-2.5,5.6-6.6,6.1-11.2c0.1-1.5-0.4-3-1.6-4c-1.2-1-2.7-1.4-4.2-1.1l-17.9,3.8c-1.5,0.3-2.8,1.3-3.4,2.7
				c-0.6,1.4-0.6,3,0.2,4.3c2.1,3.7,5.5,6.4,9.2,7.5l3.8,17.7c-0.9,0.6-1.8,1.4-2.5,2.4c-1.1-0.9-2.4-1.4-3.8-1.4
				c-3.7,0-6.7,3.6-6.8,8c-0.8,0.8-1.3,1.9-1.3,3.2l0,4.3c0,2,1.3,3.7,3.1,4.3l5.3,38c0.4,2.6,2.6,4.6,5.3,4.6l29.5,0
				c2.7,0,4.9-2,5.3-4.6l0.3-2c1.6,0.5,3.3,0.7,4.9,0.7c5.2,0,10.2-2.4,13.8-6C-158.3,452.4-155.7,441.6-164.6,432.8z M-177.6,419.4
				l0,4.3c0,0.7-0.5,1.2-1.2,1.2l-48.5,0c-0.7,0-1.2-0.5-1.2-1.2l0-4.3c0-0.7,0.5-1.2,1.2-1.2l48.5,0
				C-178.1,418.2-177.6,418.7-177.6,419.4z M-227.6,380.4c-0.2-0.4-0.2-0.9-0.1-1.3c0.2-0.4,0.6-0.7,1-0.8l17.9-3.8
				c0.5-0.1,0.9,0,1.3,0.3c0.3,0.3,0.5,0.7,0.5,1.2c-0.4,4.5-3.1,8.3-6.7,9.9l-3.7,0.8C-221.4,386.8-225.4,384.4-227.6,380.4z
				 M-214.4,406.1l-3.4-15.8l0.8-0.2c0.7,0,1.4-0.1,2.2-0.3c0.7-0.1,1.4-0.4,2-0.6l3.2,14.8c-0.5,0.8-1,1.6-1.4,2.6
				c-0.9-0.4-1.8-0.6-2.8-0.6C-213.9,406.1-214.1,406.1-214.4,406.1z M-223.9,411.7c1,0,2,0.7,2.6,1.9c0.3,0.6,0.9,0.9,1.6,0.9
				c0.7,0,1.2-0.5,1.5-1.1c0.7-1.8,1.8-3,3.1-3.5c0,0,0,0,0,0c0,0,0.1,0,0.1,0c0.2-0.1,0.3-0.1,0.5-0.1c0.1,0,0.2,0,0.2,0
				c0.1,0,0.3,0,0.4,0c0.1,0,0.2,0,0.2,0c0.1,0,0.3,0,0.4,0c0.1,0,0.2,0,0.3,0.1c0.2,0,0.3,0.1,0.5,0.1c0.1,0,0.2,0.1,0.2,0.1
				c0.1,0.1,0.3,0.1,0.4,0.2c0.1,0,0.1,0.1,0.2,0.1c0.2,0.1,0.4,0.2,0.6,0.4c0.1,0.1,0.3,0.2,0.5,0.3c0,0,0.1,0,0.2,0
				c0.1,0,0.3,0.1,0.4,0.1c0,0,0.1,0,0.1,0c0,0,0,0,0.1,0c0.2,0,0.3,0,0.5-0.1c0.6-0.2,1-0.7,1.1-1.2c0,0,0,0,0,0
				c0.1-0.4,0.2-0.7,0.3-1c0,0,0-0.1,0-0.1c0.4-1.1,0.9-2.1,1.5-2.9c0,0,0-0.1,0.1-0.1c1.2-1.5,2.8-2.4,4.5-2.4c3.6,0,6.6,4,6.8,8.8
				c0,0.7,0.5,1.3,1.1,1.5c0.7,0.2,1.4,0,1.9-0.5c0.7-0.9,1.5-1.4,2.1-1.4c1.9,0,2,0.6,2,1.6c0,0.9,0.7,1.6,1.6,1.6
				c0.8,0.1,1.6-0.5,1.8-1.4c0.4-1.9,0.9-1.9,1.4-1.9c1.1,0,1.5,1.8,1.6,3.4l-45.6,0C-226.6,413-225.3,411.7-223.9,411.7z
				 M-186.8,465.7c-0.1,1-1,1.7-1.9,1.7l-29.5,0c-1,0-1.8-0.7-1.9-1.7l-5.2-37.3l3.5,0l40.2,0l-4.2,30.8c-0.8-0.5-1.7-1.2-2.5-1.9
				c-3.3-3.1-5.8-6.5-7.2-8.6c2.6-1,4.4-3.5,4.4-6.5c0-3.8-3.1-7-7-7c-3.8,0-7,3.1-7,7c0,3.4,2.5,6.3,5.8,6.9
				c1.1,1.8,4.1,6.5,8.7,10.7c1.4,1.3,2.8,2.3,4.3,3.1L-186.8,465.7z M-201.8,442.1c0-2,1.6-3.6,3.6-3.6c2,0,3.6,1.6,3.6,3.6
				c0,2-1.6,3.6-3.6,3.6C-200.2,445.7-201.8,444.1-201.8,442.1z M-166.9,456.5c-3.8,4-9.8,6.3-15.8,4.3l4.5-32.4
				c0.9-0.1,1.7-0.5,2.3-1c2.5,1.8,5.6,4.5,9,7.9C-159.7,442.4-161.9,451.2-166.9,456.5z"/>
		</g>
	</g>
	<g class="st0">
		<g class="st1">
			<path d="M-206,373.5c-3.4-2.5-7.7-3.2-11.8-2l-16.5,5c-5.8,1.7-10.4,8-10.4,14l0,13c0,1.9,0.3,3.8,0.8,5.6
				c0.3,1.2,0.8,2.6,1.4,4.3c0,0.1,0.1,0.2,0.1,0.3l0.3,0.8c0.9,2.8,2,6.1,2.5,9.2l0.1,0.9c0.1,0.9,0.2,1.8,0.2,2.6l0.1,27
				c0,9.3,7.7,16.8,17,16.8l1.3,0c0,0,0,0,0,0c4.5,0,8.8-1.8,12-5c3.2-3.2,5-7.4,5-12l-0.1-27c0-0.8,0-1.5,0.1-2.4l0.1-1.2
				c0.3-3.2,0.9-7,1.7-10.7l0,0c0.3-1.3,0.6-2.6,0.9-3.6c0.5-1.9,0.8-3.9,0.8-5.8l0-19.2C-200.6,379.9-202.5,376-206,373.5z
				 M-207.5,454c0,3.6-1.4,6.9-3.9,9.5c-2.5,2.5-5.9,3.9-9.5,3.9h0l-1.3,0c-7.4,0-13.5-6-13.5-13.3l-0.1-27c0-1-0.1-1.9-0.2-2.9
				c0.1-0.1,0.2-0.2,0.4-0.4l15.5-16.8l11.5,16.5l0.1,0.2c0.3,0.3,0.6,0.6,1,0.8c0,0.9-0.1,1.7-0.1,2.5L-207.5,454z M-207,419.7
				l-11.4-16.3c-0.3-0.5-0.9-0.8-1.5-0.8l-1,0l-16,17.3c-0.5-1.9-1.1-3.8-1.7-5.6l15-16.4l0-3.3c0-0.7,0.4-1.3,1.1-1.7
				c1.1-0.7,2.2-0.2,2.6,0c0.8,0.4,1.6,1.3,1.6,2.6l0,2.4l12.4,15C-206.2,415-206.7,417.4-207,419.7z M-204.7,408.2
				c0,0.1-0.1,0.2-0.1,0.3l-9.9-11.9l0-1.1c0-2.3-1.3-4.5-3.4-5.7c-2-1.1-4.3-1.1-6.2,0.1c-1.8,1.1-2.8,2.8-2.8,4.7l0,2l-12.8,13.9
				c-0.3-0.9-0.5-1.6-0.7-2.3c-0.4-1.5-0.6-3.1-0.6-4.7l0-13c0-4.5,3.6-9.3,7.9-10.6l16.5-5c3-0.9,6.1-0.4,8.7,1.5
				c2.5,1.8,4,4.7,4,7.8l0,19.2C-204,405-204.3,406.6-204.7,408.2z M-149.3,390.2c0-6-4.7-12.2-10.5-13.9l-16.5-4.9
				c-4.1-1.2-8.4-0.4-11.8,2.1c-3.4,2.5-5.4,6.4-5.3,10.6l0,19.2c0,1.9,0.3,3.8,0.8,5.7c0.3,1,0.5,2,0.8,3.2l0.1,0.5
				c0.8,3.7,1.5,7.6,1.7,10.7l0,0.1c0.1,1.2,0.2,2.3,0.2,3.4l0.1,27c0,4.5,1.8,8.7,5,11.9c3.2,3.2,7.5,4.9,12,4.9c0,0,0,0,0,0l1.3,0
				c9.4,0,17-7.6,16.9-16.9l-0.1-27c0-0.8,0.1-1.7,0.2-2.6l0.1-0.9c0.5-3.1,1.5-6.4,2.5-9.2l0.3-1c0,0,0-0.1,0-0.1
				c0.5-1.7,1-3.1,1.3-4.3c0.5-1.8,0.7-3.7,0.7-5.6L-149.3,390.2z M-158,453.9c0,7.4-6,13.4-13.4,13.4l-1.3,0l0,0c0,0,0,0,0,0
				c-3.6,0-7-1.4-9.5-3.9c-2.6-2.5-4-5.9-4-9.4l-0.1-27c0-0.8,0-1.6-0.1-2.5c0.4-0.3,0.7-0.5,1-0.8l11.6-16.7l15.6,16.6
				c0.1,0.1,0.3,0.3,0.4,0.4c-0.1,1-0.2,2-0.2,2.9L-158,453.9z M-157.1,419.7l-15.5-16.6c-0.4-0.4-0.9-0.6-1.4-0.6c0,0-0.1,0-0.1,0
				l-1,0.1l-11.8,17.1c-0.3-2.3-0.8-4.7-1.2-6.9c0,0,0,0,0,0l12.3-15.1l0-2.4c0-1.3,0.8-2.2,1.5-2.6c0.4-0.2,1.5-0.7,2.6,0
				c0.7,0.4,1.1,1.1,1.1,1.7l0,3.3l15.1,16.3C-156,415.9-156.6,417.8-157.1,419.7z M-153.4,407.9c-0.2,0.7-0.4,1.4-0.7,2.3
				l-12.8-13.8l0-2c0-1.9-1.1-3.7-2.9-4.7c-1.9-1.1-4.2-1.1-6.2,0c-2.1,1.2-3.3,3.3-3.3,5.7l0,1.1l-9.8,12c0-0.1-0.1-0.2-0.1-0.3
				c-0.4-1.6-0.7-3.3-0.7-4.9l0-19.2c0-3.1,1.4-6,3.9-7.8c1.7-1.3,3.7-1.9,5.8-1.9c0.9,0,1.9,0.1,2.8,0.4l16.5,4.9
				c4.3,1.3,8,6.1,8,10.6l0,13C-152.8,404.8-153,406.4-153.4,407.9z"/>
		</g>
	</g>
	<g class="st0">
		<g class="st1">
			<path d="M-147.1,411.6L-147.1,411.6l0-23.3l-99.9,0.1l0,23.3l0.1,41.6l99.9-0.1L-147.1,411.6z M-243.7,391.7l93.2-0.1l0,16.6
				l-46.5,0.1l-46.7,0.1L-243.7,391.7z M-193.6,449.9L-193.6,449.9l-3.3,0v0l-46.6,0.1l-0.1-38.3l46.6-0.1l0,3.3l3.3,0l0-3.3
				l43.3-0.1l0.1,38.3L-193.6,449.9z M-213.7,415l-26.6,0l0,13.3l26.6,0L-213.7,415z M-237,425l0-6.7l20,0l0,6.7L-237,425z
				 M-203.6,433.3l-25,0c-0.9,0-1.7,0.7-1.7,1.7c0,0.9,0.7,1.7,1.7,1.7l25,0c0.9,0,1.7-0.7,1.7-1.7
				C-202,434-202.7,433.3-203.6,433.3z M-207,441.6l-26.6,0c-0.9,0-1.7,0.7-1.7,1.7c0,0.9,0.7,1.7,1.7,1.7l26.6,0
				c0.9,0,1.7-0.7,1.7-1.7C-205.3,442.4-206,441.6-207,441.6z M-163.7,443.2l-16.7,0c-0.9,0-1.7,0.7-1.7,1.7c0,0.9,0.7,1.7,1.7,1.7
				l16.7,0c0.9,0,1.7-0.7,1.7-1.7C-162,444-162.7,443.2-163.7,443.2z M-197,443.3l0,5l3.3,0l0-5L-197,443.3z M-193.7,416.6l-3.3,0
				l0,5l3.3,0L-193.7,416.6z M-193.7,430l-3.3,0l0,5l3.3,0L-193.7,430z M-193.6,436.6l-3.3,0l0,5l3.3,0L-193.6,436.6z M-193.7,423.3
				l-3.3,0l0,5l3.3,0L-193.7,423.3z M-156.5,415.3l-7.2,6.3c0,0,0,0,0,0l-15,0c-0.9,0-1.7,0.7-1.7,1.7c0,0.9,0.7,1.7,1.7,1.7l11.2,0
				l-12.9,11.2l-5.6-4.2c-0.7-0.6-1.8-0.4-2.3,0.3c-0.6,0.7-0.4,1.8,0.3,2.3l6.7,5c0,0,0,0,0,0c0.1,0.1,0.3,0.2,0.4,0.2
				c0,0,0.1,0,0.1,0c0.1,0,0.3,0.1,0.5,0.1c0,0,0,0,0,0c0,0,0,0,0,0c0,0,0,0,0,0c0,0,0,0,0,0c0.2,0,0.3,0,0.5-0.1c0,0,0.1,0,0.1,0
				c0.2-0.1,0.3-0.2,0.5-0.3c0,0,0,0,0,0l13.9-12.1l0,9.1c0,0.9,0.7,1.7,1.7,1.7c0.9,0,1.7-0.7,1.7-1.7l0-12l7.7-6.7
				c0.7-0.6,0.8-1.7,0.2-2.3C-154.7,414.8-155.8,414.7-156.5,415.3z M-238.7,398.4l18.3,0c0.9,0,1.7-0.7,1.7-1.7
				c0-0.9-0.7-1.7-1.7-1.7l-18.3,0c-0.9,0-1.7,0.7-1.7,1.7C-240.3,397.6-239.6,398.4-238.7,398.4z M-230.3,401.7l-8.3,0
				c-0.9,0-1.7,0.7-1.7,1.7c0,0.9,0.7,1.7,1.7,1.7l8.3,0c0.9,0,1.7-0.7,1.7-1.7C-228.7,402.5-229.4,401.7-230.3,401.7z
				 M-193.7,403.3c0-0.9-0.7-1.7-1.7-1.7l-8.3,0c-0.9,0-1.7,0.7-1.7,1.7c0,0.9,0.7,1.7,1.7,1.7l8.3,0
				C-194.4,405-193.7,404.2-193.7,403.3z M-210.3,401.7l-13.3,0c-0.9,0-1.7,0.7-1.7,1.7c0,0.9,0.7,1.7,1.7,1.7l13.3,0
				c0.9,0,1.7-0.7,1.7-1.7C-208.7,402.4-209.4,401.7-210.3,401.7z M-213.7,398.4l25,0c0.9,0,1.7-0.7,1.7-1.7c0-0.9-0.7-1.7-1.7-1.7
				l-25,0c-0.9,0-1.7,0.7-1.7,1.7C-215.3,397.6-214.6,398.4-213.7,398.4z"/>
		</g>
	</g>
	<g class="st0">
		<g class="st1">
			<path d="M-160.3,378.9c0-4.4-3.6-8-8-8l-60.4,0c-0.9,0-1.7,0.7-1.7,1.7l0,96.7c0,0.9,0.7,1.7,1.7,1.7l60.4,0c4.4,0,8-3.6,8-8
				L-160.3,378.9z M-168.3,467.6l-58.7,0l0-93.4l58.7,0c2.6,0,4.7,2.1,4.7,4.7l0,84C-163.6,465.5-165.7,467.6-168.3,467.6z
				 M-174.9,389.6c-4.9-5.1-11.7-8.4-19.2-8.7l0,0l-1.2,0l-1.2,0l0,0c-7.5,0.3-14.3,3.6-19.2,8.7c-0.1,0.1-0.1,0.1-0.2,0.2
				c-4.8,5.1-7.7,11.9-7.7,19.4c0,7.2,2.7,13.7,7.1,18.7c0,0,0,0,0,0c0.1,0.1,0.2,0.2,0.2,0.3c4.9,5.4,12,9,19.8,9.3l0,0l1.2,0
				l1.2,0l0,0c7.9-0.3,14.9-3.9,19.9-9.4c0,0,0.1-0.1,0.1-0.1c0,0,0,0,0,0c4.4-5,7.1-11.6,7.1-18.7c0-7.5-2.9-14.3-7.7-19.4
				C-174.8,389.7-174.8,389.7-174.9,389.6z M-197,419c-2.7,0.1-5.4,0.6-8.1,1.3c-1.1-3-1.7-6.2-1.9-9.5l10,0L-197,419z M-197,407.5
				l-10,0c0.2-3.6,0.9-7.1,2.2-10.3c2.5,0.7,5.1,1.1,7.7,1.2L-197,407.5z M-197,395.1c-2.1-0.1-4.3-0.4-6.3-0.9
				c1.6-3.1,3.7-6,6.3-8.4L-197,395.1z M-200.8,384.8c-2.3,2.5-4.3,5.3-5.8,8.4c-1.9-0.7-3.7-1.5-5.4-2.6
				C-208.9,387.8-205,385.7-200.8,384.8z M-214.4,393c2.1,1.3,4.2,2.4,6.5,3.2c-1.4,3.6-2.2,7.4-2.4,11.3l-10,0
				C-219.9,402-217.8,397-214.4,393z M-220.3,410.9l10,0c0.2,3.6,0.9,7.2,2.1,10.5c-2.3,0.9-4.5,2-6.7,3.4
				C-218,420.9-220,416.1-220.3,410.9z M-212.6,427.3c1.8-1.1,3.7-2.1,5.7-2.8c1.6,3.3,3.6,6.4,6.2,9.2
				C-205.3,432.6-209.4,430.4-212.6,427.3z M-203.8,423.4c2.2-0.6,4.4-0.9,6.7-1.1l0,10.3C-199.8,430-202.1,426.9-203.8,423.4z
				 M-178.7,390.6c-1.7,1-3.6,1.9-5.4,2.6c-1.5-3-3.5-5.8-5.8-8.4C-185.7,385.8-181.8,387.8-178.7,390.6z M-193.7,385.7
				c2.6,2.5,4.7,5.3,6.3,8.4c-2.1,0.5-4.2,0.8-6.3,0.9L-193.7,385.7z M-193.7,398.4c2.6-0.1,5.2-0.5,7.7-1.2
				c1.3,3.3,2.1,6.7,2.2,10.3l-10,0L-193.7,398.4z M-193.7,410.9l10,0c-0.2,3.3-0.8,6.4-1.9,9.5c-2.6-0.7-5.3-1.2-8.1-1.3
				L-193.7,410.9z M-193.7,422.4c2.3,0.1,4.6,0.5,6.7,1.1c-1.7,3.4-3.9,6.6-6.7,9.3L-193.7,422.4z M-189.9,433.6
				c2.5-2.7,4.6-5.8,6.2-9.2c2,0.7,3.9,1.7,5.7,2.8C-181.3,430.4-185.4,432.6-189.9,433.6z M-175.8,424.8c-2.1-1.4-4.3-2.5-6.7-3.4
				c1.2-3.3,1.9-6.9,2.1-10.5l10,0C-170.7,416.1-172.7,420.9-175.8,424.8z M-180.4,407.6c-0.2-3.9-1-7.7-2.4-11.3
				c2.2-0.8,4.4-1.9,6.5-3.2c3.4,4,5.6,9,5.9,14.5L-180.4,407.6z M-220.4,449.2l50,0c0.9,0,1.7-0.7,1.7-1.7c0-0.9-0.7-1.7-1.7-1.7
				l-50,0c-0.9,0-1.7,0.7-1.7,1.7C-222,448.5-221.3,449.2-220.4,449.2z M-170.3,454.2l-50,0c-0.9,0-1.7,0.7-1.7,1.7
				c0,0.9,0.7,1.7,1.7,1.7l50,0c0.9,0,1.7-0.7,1.7-1.7S-169.4,454.2-170.3,454.2z"/>
		</g>
	</g>
	<g class="st0">
		<g class="st1">
			<path d="M-212,433.3l-3.5,0c-0.3-1.5-0.8-2.9-1.7-4.1l2.5-2.5c0.7-0.6,0.7-1.7,0-2.3c-0.7-0.6-1.7-0.6-2.4,0l-2.5,2.5
				c-1.2-0.9-2.6-1.4-4.1-1.7l0-3.5c0-0.9-0.7-1.7-1.7-1.7c-0.9,0-1.7,0.7-1.7,1.7l0,3.5c-1.5,0.3-2.9,0.8-4.1,1.7l-2.5-2.5
				c-0.6-0.6-1.7-0.6-2.4,0c-0.7,0.6-0.7,1.7,0,2.3l2.5,2.5c-0.9,1.2-1.5,2.6-1.7,4.1l-3.5,0c-0.9,0-1.7,0.7-1.7,1.7
				c0,0.9,0.7,1.7,1.7,1.7l3.5,0c0.3,1.5,0.8,2.9,1.7,4.1l-2.5,2.5c-0.7,0.6-0.7,1.7,0,2.3c0.3,0.3,0.8,0.5,1.2,0.5
				c0.4,0,0.9-0.2,1.2-0.5l2.5-2.5c1.2,0.9,2.6,1.4,4.1,1.7l0,3.5c0,0.9,0.7,1.7,1.7,1.7c0.9,0,1.7-0.7,1.7-1.7l0-3.5
				c1.5-0.3,2.9-0.8,4.1-1.7l2.5,2.5c0.3,0.3,0.8,0.5,1.2,0.5c0.4,0,0.9-0.2,1.2-0.5c0.7-0.6,0.7-1.7,0-2.3l-2.5-2.5
				c0.9-1.2,1.5-2.6,1.7-4.1l3.5,0c0.9,0,1.7-0.7,1.7-1.7C-210.3,434.1-211.1,433.3-212,433.3z M-225.3,441.6c-3.7,0-6.7-3-6.7-6.6
				c0-3.7,3-6.6,6.7-6.6c3.7,0,6.7,3,6.7,6.6C-218.7,438.7-221.6,441.6-225.3,441.6z M-187,415.1l3.5,0c0.3,1.5,0.8,2.9,1.7,4.1
				l-2.5,2.5c-0.7,0.6-0.7,1.7,0,2.3c0.3,0.3,0.8,0.5,1.2,0.5s0.9-0.2,1.2-0.5l2.5-2.5c1.2,0.9,2.6,1.4,4.1,1.7l0,3.5
				c0,0.9,0.7,1.7,1.7,1.7c0.9,0,1.7-0.7,1.7-1.7l0-3.5c1.5-0.3,2.9-0.8,4.1-1.7l2.5,2.5c0.3,0.3,0.8,0.5,1.2,0.5
				c0.4,0,0.9-0.2,1.2-0.5c0.7-0.6,0.7-1.7,0-2.3l-2.5-2.5c0.9-1.2,1.5-2.6,1.7-4.1l3.5,0c0.9,0,1.7-0.7,1.7-1.7
				c0-0.9-0.7-1.7-1.7-1.7l-3.5,0c-0.3-1.5-0.8-2.9-1.7-4.1l2.5-2.5c0.7-0.6,0.7-1.7,0-2.3c-0.7-0.6-1.7-0.6-2.4,0l-2.5,2.5
				c-1.2-0.9-2.6-1.4-4.1-1.7l0-3.5c0-0.9-0.7-1.7-1.7-1.7c-0.9,0-1.7,0.7-1.7,1.7l0,3.5c-1.5,0.3-2.9,0.8-4.1,1.7l-2.5-2.5
				c-0.6-0.6-1.7-0.6-2.4,0c-0.7,0.6-0.7,1.7,0,2.3l2.5,2.5c-0.9,1.2-1.5,2.6-1.7,4.1l-3.5,0c-0.9,0-1.7,0.7-1.7,1.7
				C-188.7,414.3-187.9,415.1-187,415.1z M-173.7,406.8c3.7,0,6.7,3,6.7,6.6c0,3.7-3,6.6-6.7,6.6c-3.7,0-6.7-3-6.7-6.6
				C-180.3,409.8-177.3,406.8-173.7,406.8z M-211.9,405.1l-5.1,0l0-6.6c0,0,0,0,0,0s0,0,0,0l0-10c0-0.9-0.7-1.7-1.7-1.7l-13.3,0
				c-0.9,0-1.7,0.7-1.7,1.7l0,16.6l-5.1,0c-4.5,0-8.3,3.7-8.3,8.2l0,44.9c0,4.5,3.7,8.2,8.3,8.2l26.8,0c4.6,0,8.3-3.7,8.3-8.2
				l0-44.9C-203.7,408.8-207.4,405.1-211.9,405.1z M-230.3,390.2l10,0l0,6.6l-10,0L-230.3,390.2z M-230.3,400.2l10,0l0,5l-10,0
				L-230.3,400.2z M-207,458.3c0,2.7-2.2,4.9-4.9,4.9l-26.8,0c-2.7,0-4.9-2.2-4.9-4.9l0-44.9c0-2.7,2.2-4.9,4.9-4.9l26.8,0
				c2.7,0,4.9,2.2,4.9,4.9L-207,458.3z M-225.3,391.9c-0.9,0-1.7,0.7-1.7,1.7c0,0.9,0.7,1.7,1.7,1.7c0.9,0,1.7-0.7,1.7-1.7
				C-223.6,392.6-224.4,391.9-225.3,391.9z M-153.7,375.3c-2,0-3.8,0.9-5,2.3c-1.2-1.4-3-2.3-5-2.3c-2,0-3.8,0.9-5,2.3
				c-1.2-1.4-3-2.3-5-2.3c-2,0-3.8,0.9-5,2.3c-1.2-1.4-3-2.3-5-2.3c-2,0-3.8,0.9-5,2.3c-1.2-1.4-3-2.3-5-2.3c-3.5,0-6.4,2.7-6.7,6.2
				c-0.1,0.2-0.1,0.5,0,0.7l0.1,0.8c0,0.1,0,0.3,0.1,0.3l11.5,65.1l0,8.1c0,0,0,0,0,0v0l0,8.3c0,0.9,0.7,1.7,1.7,1.7l25,0
				c0.9,0,1.7-0.7,1.7-1.7l0-8.3c0,0,0,0,0,0v0l0-8.1l13-64.4c0.2-0.7,0.4-1.4,0.4-2.1C-147,378.2-150,375.3-153.7,375.3z
				 M-163.7,463.2l-21.7,0l0-5l21.7,0L-163.7,463.2z M-163.7,454.9l-21.7,0l0-5l21.7,0L-163.7,454.9z M-163.4,446.6l-22.2,0
				l-10-56.4l43.6,0L-163.4,446.6z M-150.5,383c0,0.1-0.1,0.2-0.1,0.2l-0.7,3.6l-44.8,0l-0.7-4.2l-0.1-0.6c0,0,0-0.1,0-0.1
				c0-1.8,1.5-3.3,3.3-3.3c1.8,0,3.3,1.5,3.3,3.3c0,0.9,0.7,1.7,1.7,1.7c0.9,0,1.7-0.7,1.7-1.7c0-1.8,1.5-3.3,3.3-3.3
				c1.8,0,3.3,1.5,3.3,3.3c0,0.9,0.7,1.7,1.7,1.7c0.9,0,1.7-0.7,1.7-1.7c0-1.8,1.5-3.3,3.3-3.3c1.8,0,3.3,1.5,3.3,3.3
				c0,0.9,0.7,1.7,1.7,1.7c0.9,0,1.7-0.7,1.7-1.7c0-1.8,1.5-3.3,3.3-3.3c1.8,0,3.3,1.5,3.3,3.3c0,0.9,0.7,1.7,1.7,1.7
				c0.9,0,1.7-0.7,1.7-1.7c0-1.8,1.5-3.3,3.3-3.3c1.8,0,3.3,1.5,3.3,3.3C-150.3,382.3-150.4,382.6-150.5,383z"/>
		</g>
	</g>
	<g class="st0">
		<g class="st1">
			<path d="M-150.4,400.4l-88-14l0,7.4l-5.2-0.4l0,7l-3.4,0l0,58.3l99.9,0l0-58.3L-150.4,400.4z M-234.9,390.4l46.2,7.3l-46.2-3.7
				L-234.9,390.4z M-240.1,397.1l1.7,0.1v0l12.7,1l26.8,2.1l-23.2,0l-18.1,0L-240.1,397.1z M-150.5,455.3l-93,0l0-51.4l87.8,0l5.2,0
				L-150.5,455.3z M-166,447.6c0-4.3,3.5-7.7,7.8-7.7c0.2,0,0.5,0,0.7,0l1.9,0.2l0-21l-1.9,0.2c-0.2,0-0.5,0-0.7,0
				c-4.3,0-7.7-3.5-7.7-7.7c0-0.2,0-0.5,0-0.7l0.2-1.9l-18.8,0c-3.6-2.2-7.9-3.4-12.4-3.4c-4.5,0-8.8,1.3-12.4,3.4l-18.8,0l0.2,1.9
				c0,0.2,0,0.5,0,0.7c0,4.3-3.5,7.7-7.8,7.7c-0.2,0-0.5,0-0.7,0l-1.9-0.2l0,21l1.9-0.2c0.2,0,0.5,0,0.7,0c4.3,0,7.7,3.5,7.7,7.7
				c0,0.2,0,0.5,0,0.7l-0.2,1.9l18.8,0c0,0,0.1,0,0.1,0.1c0.2,0.1,0.4,0.3,0.7,0.4c0.3,0.2,0.6,0.3,0.9,0.5c0.3,0.1,0.6,0.3,0.8,0.4
				c0.3,0.1,0.6,0.2,0.8,0.4c0.2,0.1,0.4,0.2,0.6,0.2c0.4,0.2,0.9,0.3,1.3,0.5c0.1,0,0.3,0.1,0.4,0.1c0.4,0.1,0.7,0.2,1.1,0.3
				c0.2,0,0.3,0.1,0.5,0.1c0.5,0.1,1,0.2,1.5,0.3c0.1,0,0.2,0,0.2,0c0.5,0.1,0.9,0.1,1.4,0.2c0.1,0,0.3,0,0.4,0
				c0.5,0,1.1,0.1,1.6,0.1c0.5,0,1,0,1.6-0.1c0.1,0,0.2,0,0.4,0c0.5,0,0.9-0.1,1.4-0.2c0,0,0.1,0,0.1,0c0.6-0.1,1.1-0.2,1.6-0.3
				c0,0,0,0,0,0c2.6-0.6,5.1-1.5,7.3-2.9l18.8,0l-0.2-1.9C-166,448-166,447.8-166,447.6z M-224.6,446.7c-0.4-5.5-4.8-9.8-10.3-10.3
				l0-13.8c5.5-0.4,9.9-4.8,10.3-10.3l10.7,0c0,0,0,0-0.1,0.1c-0.2,0.2-0.3,0.3-0.5,0.5c-0.1,0.1-0.3,0.3-0.4,0.4
				c-0.1,0.1-0.1,0.1-0.2,0.2c-3.6,4-5.8,9.1-6.1,14.6c0,0,0,0.1,0,0.1c0,0.4,0,0.8,0,1.2c0,0.4,0,0.8,0,1.2c0,0.1,0,0.1,0,0.2
				c0.3,5.5,2.5,10.6,6.1,14.6c0.1,0.1,0.1,0.1,0.2,0.2c0.1,0.2,0.3,0.3,0.4,0.4c0.2,0.2,0.3,0.3,0.5,0.5c0,0,0,0,0.1,0.1
				L-224.6,446.7z M-188.5,448.3c-0.2,0.1-0.5,0.2-0.7,0.3c-0.4,0.2-0.8,0.3-1.2,0.4c-0.3,0.1-0.6,0.2-1,0.3c-0.1,0-0.1,0-0.2,0.1
				c-3.3,0.9-6.8,0.9-10.1,0.2c-0.4-0.1-0.7-0.2-1.1-0.3c-0.2-0.1-0.4-0.1-0.7-0.2c-0.5-0.2-1-0.3-1.5-0.6c0,0-0.1,0-0.1,0
				c-0.4-0.2-0.8-0.4-1.2-0.6l4.6-2.2c1-0.5,1.6-1.5,1.6-2.6l0-2.8l-1-0.4c-2.2-0.9-3.6-2.8-4.4-5.5l-0.2-0.9l-0.9-0.3
				c-0.5-0.2-0.9-0.7-0.9-1.2l0-1.5c0-0.5,0.4-0.9,0.7-1.1l0.8-0.4l0.1-0.9c0.1-1.4,0.5-2.6,0.9-3.8c0.2-0.5,0.4-0.8,0.5-1.1
				c0.5-1,0.7-1.6,0.6-2.5c1.7,0.9,3.8,1.3,5.9,1.1c0.2,0,0.5,0,0.7,0c5.5,0,8.1,2,8.7,6.4l0.1,0.9l0.8,0.4c0.3,0.2,0.7,0.6,0.7,1.1
				l0,1.5c0,0.6-0.4,1-0.9,1.2l-0.9,0.3l-0.2,0.9c-0.7,2.8-2.2,4.6-4.4,5.5l-1,0.4l0,2.8c0,1.1,0.6,2.1,1.6,2.5l4.8,2.4
				C-188.3,448.2-188.4,448.2-188.5,448.3z M-182.6,444.3c-0.3,0.3-0.6,0.5-0.9,0.8c-0.3,0.3-0.6,0.5-1,0.8
				c-0.1,0.1-0.2,0.2-0.3,0.2c-0.3-0.2-0.6-0.4-1-0.6l-5.3-2.7v-0.3c2.4-1.3,4.1-3.5,5.1-6.5c1.5-0.8,2.4-2.4,2.4-4.1l0-1.5
				c0-1.4-0.7-2.7-1.7-3.6c-0.7-4.1-3.5-8.6-12-8.6c-0.3,0-0.7,0-1,0c-1.3,0.1-3.1,0-4.7-1.1c-0.6-0.4-1-0.8-1.3-1.1
				c-0.6-0.7-1.5-1-2.4-0.6c-0.8,0.3-1.3,1.2-1.2,2.1c0.1,0.6,0.2,1.2,0.3,1.9c0.3,1.4,0.3,1.4-0.1,2.2c-0.2,0.3-0.3,0.7-0.6,1.3
				c-0.5,1.2-0.8,2.5-1.1,3.9c-1.1,0.9-1.7,2.2-1.7,3.6l0,1.5c0,1.7,0.9,3.3,2.4,4.1c1,3,2.7,5.1,5.1,6.5l0,0.3l-5.5,2.7
				c-0.2,0.1-0.4,0.2-0.5,0.3c-0.3-0.2-0.6-0.5-0.9-0.7c-0.3-0.3-0.6-0.5-0.9-0.8c-0.1-0.1-0.3-0.3-0.4-0.4
				c-0.8-0.9-1.6-1.8-2.3-2.8c0-0.1-0.1-0.1-0.1-0.2c-0.7-1-1.3-2.2-1.8-3.3c0,0,0-0.1-0.1-0.1c-0.2-0.6-0.5-1.2-0.7-1.8
				c0-0.1,0-0.1-0.1-0.2c-0.2-0.6-0.3-1.1-0.4-1.7c0-0.1,0-0.1,0-0.2c-0.1-0.6-0.2-1.2-0.3-1.8c0-0.1,0-0.3,0-0.4
				c-0.1-0.6-0.1-1.2-0.1-1.9c0-0.6,0-1.3,0.1-1.9c0-0.1,0-0.3,0-0.4c0.1-0.6,0.2-1.2,0.3-1.8c0-0.1,0-0.1,0-0.2
				c0.1-0.6,0.3-1.2,0.4-1.7c0-0.1,0-0.1,0.1-0.2c0.2-0.6,0.4-1.2,0.7-1.8c0,0,0-0.1,0.1-0.1c0.5-1.2,1.1-2.3,1.8-3.3
				c0-0.1,0.1-0.1,0.1-0.2c0.7-1,1.4-1.9,2.3-2.8c0.1-0.1,0.3-0.3,0.4-0.4c0.3-0.3,0.6-0.5,0.9-0.8c0.3-0.3,0.6-0.5,1-0.8
				c0.2-0.2,0.4-0.3,0.6-0.5c0.3-0.2,0.6-0.4,0.9-0.6c3.2-2,7-3.2,11.1-3.2c4.1,0,7.9,1.2,11.1,3.2c0.3,0.2,0.6,0.4,0.9,0.6
				c0.2,0.1,0.4,0.3,0.6,0.4c0.3,0.3,0.6,0.5,1,0.8c0.3,0.3,0.6,0.5,0.9,0.8c0.1,0.1,0.3,0.3,0.4,0.4c0.8,0.9,1.6,1.8,2.3,2.8
				c0,0.1,0.1,0.1,0.1,0.2c0.7,1,1.3,2.2,1.8,3.3c0,0,0,0.1,0.1,0.1c0.2,0.6,0.5,1.2,0.7,1.8c0,0.1,0,0.1,0.1,0.2
				c0.2,0.6,0.3,1.1,0.4,1.7c0,0.1,0,0.1,0,0.2c0.1,0.6,0.2,1.2,0.3,1.8c0,0.1,0,0.3,0,0.4c0.1,0.6,0.1,1.2,0.1,1.9
				c0,0.6,0,1.3-0.1,1.9c0,0.1,0,0.3,0,0.4c-0.1,0.6-0.2,1.2-0.3,1.8c0,0.1,0,0.1,0,0.2c-0.1,0.6-0.3,1.2-0.4,1.7
				c0,0.1,0,0.1-0.1,0.2c-0.2,0.6-0.4,1.2-0.7,1.8c0,0,0,0.1-0.1,0.1c-0.5,1.2-1.1,2.3-1.8,3.3c0,0.1-0.1,0.1-0.1,0.2
				c-0.7,1-1.4,1.9-2.3,2.8C-182.4,444-182.5,444.2-182.6,444.3z M-169.4,446.7l-10.7,0c0,0,0,0,0.1-0.1c0.2-0.2,0.3-0.3,0.5-0.5
				c0.1-0.1,0.3-0.3,0.4-0.4c0.1-0.1,0.1-0.1,0.2-0.2c3.6-4,5.8-9.1,6.1-14.6c0,0,0-0.1,0-0.1c0-0.4,0-0.8,0-1.2c0-0.4,0-0.8,0-1.2
				c0,0,0-0.1,0-0.1c-0.3-5.5-2.5-10.6-6.1-14.6c-0.1-0.1-0.1-0.1-0.2-0.2c-0.1-0.1-0.3-0.3-0.4-0.4c-0.2-0.2-0.3-0.3-0.5-0.5
				c0,0,0,0-0.1-0.1l10.7,0c0.4,5.5,4.8,9.8,10.3,10.3l0,13.8C-164.6,436.9-169,441.2-169.4,446.7z M-235.7,417.6c3.3,0,6-2.7,6-6
				c0-3.3-2.7-6-6-6c-3.3,0-6,2.7-6,6C-241.8,414.9-239.1,417.6-235.7,417.6z M-235.7,409c1.4,0,2.6,1.2,2.6,2.6
				c0,1.4-1.2,2.6-2.6,2.6c-1.4,0-2.6-1.2-2.6-2.6C-238.3,410.1-237.2,409-235.7,409z M-164.3,411.5c0,3.3,2.7,6,6,6
				c3.3,0,6-2.7,6-6c0-3.3-2.7-6-6-6C-161.6,405.5-164.3,408.2-164.3,411.5z M-155.7,411.5c0,1.4-1.2,2.6-2.6,2.6s-2.6-1.2-2.6-2.6
				c0-1.4,1.2-2.6,2.6-2.6C-156.8,409-155.7,410.1-155.7,411.5z M-235.8,441.6c-3.3,0-6,2.7-6,6c0,3.3,2.7,6,6,6c3.3,0,6-2.7,6-6
				C-229.7,444.3-232.4,441.6-235.8,441.6z M-235.8,450.1c-1.4,0-2.6-1.2-2.6-2.6c0-1.4,1.2-2.6,2.6-2.6c1.4,0,2.6,1.2,2.6,2.6
				C-233.2,449-234.3,450.1-235.8,450.1z M-158.3,441.6c-3.3,0-6,2.7-6,6c0,3.3,2.7,6,6,6c3.3,0,6-2.7,6-6
				C-152.2,444.2-154.9,441.6-158.3,441.6z M-158.3,450.1c-1.4,0-2.6-1.2-2.6-2.6c0-1.4,1.2-2.6,2.6-2.6c1.4,0,2.6,1.2,2.6,2.6
				C-155.7,449-156.8,450.1-158.3,450.1z"/>
		</g>
	</g>
	<g class="st0">
		<g class="st1">
			<path d="M-147.2,402.6c-1.5-16.1-12.8-27.8-27.1-27.8c-9.5,0-18.2,5.1-23,13.3c-4.8-8.3-13.2-13.3-22.5-13.3
				c-14.2,0-25.6,11.7-27.1,27.7c-0.1,0.7-0.6,4.4,0.9,10.5c2.1,8.8,6.9,16.8,13.9,23.1l34.8,31.7l35.4-31.6
				c7-6.3,11.8-14.3,13.8-23.1C-146.6,407.1-147.1,403.4-147.2,402.6z M-151.8,412.3c-1.9,8-6.3,15.3-12.7,21.1l-32.8,29.3
				l-32.3-29.3c-6.4-5.8-10.8-13.1-12.7-21.2c-1.4-5.8-0.8-9-0.8-9l0-0.2c1.2-14.1,11-24.3,23.2-24.3c9,0,17,5.5,20.7,14.5l1.8,4.2
				l1.8-4.2c3.7-8.8,12.1-14.5,21.3-14.5c12.2,0,22,10.2,23.3,24.5C-151,403.3-150.4,406.5-151.8,412.3z M-216.2,386.6
				c-10.6,0-19.2,8.6-19.2,19.2c0,1.1,0.9,1.9,1.9,1.9c1.1,0,1.9-0.9,1.9-1.9c0-8.5,6.9-15.4,15.4-15.4c1.1,0,1.9-0.9,1.9-1.9
				C-214.3,387.4-215.2,386.6-216.2,386.6z"/>
		</g>
	</g>
</g>
</svg>
