<?xml version="1.0" encoding="utf-8"?>
<!-- Generated by IcoMoon.io -->
<!DOCTYPE svg PUBLIC "-//W3C//DTD SVG 1.1//EN" "http://www.w3.org/Graphics/SVG/1.1/DTD/svg11.dtd">
<svg version="1.1" xmlns="http://www.w3.org/2000/svg" xmlns:xlink="http://www.w3.org/1999/xlink" width="32" height="32" viewBox="0 0 32 32">
<path fill="#444444" d="M12.448 15.68c-0.256 0-0.448-0.16-0.512-0.416-0.256-1.12-0.064-2.24 0.512-3.232 0.608-0.96 1.536-1.632 2.656-1.92 1.12-0.256 2.24-0.064 3.232 0.512 0.96 0.608 1.632 1.536 1.92 2.656 0.064 0.288-0.096 0.576-0.384 0.64s-0.576-0.096-0.64-0.384c-0.192-0.832-0.704-1.536-1.44-1.984s-1.6-0.576-2.432-0.384c-0.832 0.192-1.536 0.704-1.984 1.44s-0.576 1.6-0.384 2.432c0.064 0.288-0.096 0.576-0.384 0.64-0.064 0-0.096 0-0.16 0z"></path>
<path fill="#444444" d="M31.456 14.88c-0.288 0-0.544-0.224-0.544-0.544 0-1.76-1.44-3.2-3.2-3.2s-3.2 1.44-3.2 3.2c0 0.288-0.224 0.544-0.544 0.544-0.288 0-0.544-0.224-0.544-0.544 0-2.368 1.92-4.256 4.256-4.256s4.256 1.92 4.256 4.256c0.064 0.288-0.16 0.544-0.48 0.544z"></path>
<path fill="#444444" d="M9.12 19.904c-0.128 0-0.224-0.032-0.352-0.128-1.824-1.504-2.080-4.192-0.576-6.016 1.12-1.344 2.912-1.888 4.576-1.344 0.288 0.096 0.448 0.384 0.352 0.672s-0.384 0.448-0.672 0.352c-1.248-0.384-2.592 0-3.456 1.024-1.12 1.376-0.928 3.392 0.448 4.512 0.224 0.192 0.256 0.512 0.064 0.736-0.096 0.096-0.224 0.192-0.384 0.192z"></path>
<path fill="#444444" d="M3.232 27.968c-0.096 0-0.192-0.032-0.288-0.064-1.408-0.864-2.4-2.208-2.784-3.776-0.384-1.6-0.128-3.232 0.704-4.64 1.472-2.432 4.416-3.52 7.104-2.656 0.288 0.096 0.448 0.384 0.352 0.672s-0.384 0.448-0.672 0.352c-2.24-0.736-4.672 0.192-5.888 2.208-0.704 1.152-0.928 2.528-0.608 3.84s1.12 2.432 2.304 3.136c0.256 0.16 0.32 0.48 0.192 0.736-0.064 0.096-0.224 0.192-0.416 0.192z"></path>
<path fill="#444444" d="M27.744 10.88c-0.288 0-0.544-0.224-0.544-0.544 0-2.784-2.272-5.056-5.056-5.056s-5.056 2.272-5.056 5.056c0 0.288-0.224 0.544-0.544 0.544-0.288 0-0.544-0.224-0.544-0.544 0-3.392 2.752-6.144 6.144-6.144s6.144 2.752 6.144 6.144c-0.032 0.288-0.256 0.544-0.544 0.544z"></path>
<path fill="#444444" d="M31.456 27.136c-0.288 0-0.544-0.224-0.544-0.544 0-1.184-0.96-2.144-2.144-2.144s-2.144 0.96-2.144 2.144c0 0.288-0.224 0.544-0.544 0.544-0.288 0-0.544-0.224-0.544-0.544 0-1.76 1.44-3.2 3.2-3.2s3.2 1.44 3.2 3.2c0.064 0.32-0.16 0.544-0.48 0.544z"></path>
<path fill="#444444" d="M28.8 24.48c-0.288 0-0.544-0.224-0.544-0.544 0-1.76-1.44-3.2-3.2-3.2s-3.2 1.44-3.2 3.2c0 0.288-0.224 0.544-0.544 0.544-0.288 0-0.544-0.224-0.544-0.544 0-2.368 1.92-4.256 4.256-4.256s4.256 1.92 4.256 4.256c0.064 0.288-0.192 0.544-0.48 0.544z"></path>
</svg>
