<?xml version="1.0" encoding="utf-8"?>
<!-- Generated by IcoMoon.io -->
<!DOCTYPE svg PUBLIC "-//W3C//DTD SVG 1.1//EN" "http://www.w3.org/Graphics/SVG/1.1/DTD/svg11.dtd">
<svg version="1.1" xmlns="http://www.w3.org/2000/svg" xmlns:xlink="http://www.w3.org/1999/xlink" width="32" height="32" viewBox="0 0 32 32">
<path fill="#444444" d="M31.52 15.552c-0.288 0-0.544-0.224-0.544-0.544 0-1.76-1.44-3.2-3.2-3.2s-3.2 1.44-3.2 3.2c0 0.288-0.224 0.544-0.544 0.544-0.288 0-0.544-0.224-0.544-0.544 0-2.336 1.92-4.256 4.256-4.256s4.256 1.92 4.256 4.256c0.032 0.32-0.192 0.544-0.48 0.544z"></path>
<path fill="#444444" d="M16.096 28.32c-0.128 0-0.256-0.064-0.384-0.16-0.192-0.192-0.192-0.544 0-0.736l1.6-1.6c0.192-0.192 0.544-0.192 0.736 0s0.192 0.544 0 0.736l-1.6 1.6c-0.096 0.096-0.224 0.16-0.352 0.16z"></path>
<path fill="#444444" d="M12.896 31.488c-0.128 0-0.256-0.064-0.384-0.16-0.192-0.192-0.192-0.544 0-0.736l1.6-1.6c0.192-0.192 0.544-0.192 0.736 0s0.192 0.544 0 0.736l-1.6 1.6c-0.064 0.128-0.224 0.16-0.352 0.16z"></path>
<path fill="#444444" d="M23.52 25.12c-0.128 0-0.256-0.064-0.384-0.16-0.192-0.192-0.192-0.544 0-0.736l1.6-1.6c0.192-0.192 0.544-0.192 0.736 0s0.192 0.544 0 0.736l-1.6 1.6c-0.064 0.128-0.192 0.16-0.352 0.16z"></path>
<path fill="#444444" d="M20.352 28.32c-0.128 0-0.256-0.064-0.384-0.16-0.192-0.192-0.192-0.544 0-0.736l1.6-1.6c0.192-0.192 0.544-0.192 0.736 0s0.192 0.544 0 0.736l-1.6 1.6c-0.096 0.096-0.224 0.16-0.352 0.16z"></path>
<path fill="#444444" d="M15.040 25.12c-0.128 0-0.256-0.064-0.384-0.16-0.192-0.192-0.192-0.544 0-0.736l1.6-1.6c0.192-0.192 0.544-0.192 0.736 0s0.192 0.544 0 0.736l-1.6 1.6c-0.096 0.128-0.224 0.16-0.352 0.16z"></path>
<path fill="#444444" d="M19.296 25.12c-0.128 0-0.256-0.064-0.384-0.16-0.192-0.192-0.192-0.544 0-0.736l1.6-1.6c0.192-0.192 0.544-0.192 0.736 0s0.192 0.544 0 0.736l-1.6 1.6c-0.096 0.128-0.224 0.16-0.352 0.16z"></path>
<path fill="#444444" d="M11.84 28.32c-0.128 0-0.256-0.064-0.384-0.16-0.192-0.192-0.192-0.544 0-0.736l1.6-1.6c0.192-0.192 0.544-0.192 0.736 0s0.192 0.544 0 0.736l-1.6 1.6c-0.096 0.096-0.224 0.16-0.352 0.16z"></path>
<path fill="#444444" d="M12.576 16.608c-0.256 0-0.448-0.16-0.512-0.416-0.256-1.12-0.064-2.24 0.512-3.2 0.608-0.96 1.536-1.632 2.656-1.888 2.272-0.544 4.576 0.896 5.12 3.168 0.064 0.288-0.096 0.576-0.384 0.64s-0.576-0.096-0.64-0.384c-0.416-1.696-2.112-2.784-3.84-2.368-0.832 0.192-1.536 0.704-1.984 1.44s-0.576 1.568-0.384 2.4c0.064 0.288-0.096 0.576-0.384 0.64-0.096-0.064-0.128-0.032-0.16-0.032z"></path>
<path fill="#444444" d="M9.248 20.8c-0.128 0-0.224-0.032-0.352-0.128-1.824-1.504-2.080-4.16-0.576-5.984 1.12-1.344 2.912-1.888 4.576-1.344 0.288 0.096 0.448 0.384 0.352 0.672s-0.384 0.448-0.672 0.352c-1.248-0.384-2.592 0-3.424 1.024-1.12 1.344-0.928 3.36 0.448 4.48 0.224 0.192 0.256 0.512 0.064 0.736-0.128 0.128-0.288 0.192-0.416 0.192z"></path>
<path fill="#444444" d="M3.392 28.832c-0.096 0-0.192-0.032-0.288-0.064-1.408-0.832-2.368-2.176-2.752-3.776s-0.128-3.232 0.704-4.608c1.472-2.432 4.384-3.52 7.104-2.656 0.288 0.096 0.448 0.384 0.352 0.672s-0.384 0.448-0.672 0.352c-2.24-0.704-4.64 0.192-5.856 2.176-0.704 1.152-0.928 2.496-0.608 3.808s1.12 2.432 2.272 3.104c0.256 0.16 0.32 0.48 0.192 0.736-0.096 0.192-0.288 0.256-0.448 0.256z"></path>
<path fill="#444444" d="M27.776 11.808c-0.288 0-0.544-0.224-0.544-0.544 0-2.784-2.272-5.056-5.056-5.056s-5.056 2.272-5.056 5.056c0 0.288-0.224 0.544-0.544 0.544-0.288 0-0.544-0.224-0.544-0.544 0-3.36 2.752-6.112 6.112-6.112s6.112 2.752 6.112 6.112c0.064 0.288-0.192 0.544-0.48 0.544z"></path>
<path fill="#444444" d="M2.784 12.608h-2.208c-0.288 0-0.544-0.224-0.544-0.544s0.224-0.544 0.544-0.544h2.208c0.288 0 0.544 0.224 0.544 0.544s-0.256 0.544-0.544 0.544z"></path>
<path fill="#444444" d="M11.232 4.16c-0.288 0-0.544-0.224-0.544-0.544v-2.176c0-0.288 0.224-0.544 0.544-0.544s0.544 0.224 0.544 0.544v2.208c-0.032 0.288-0.256 0.512-0.544 0.512z"></path>
<path fill="#444444" d="M5.248 6.624c-0.128 0-0.256-0.064-0.384-0.16l-2.112-2.112c-0.192-0.192-0.192-0.512 0.032-0.736 0.192-0.192 0.544-0.192 0.736 0l2.112 2.112c0.192 0.192 0.192 0.544 0 0.736-0.096 0.128-0.256 0.16-0.384 0.16z"></path>
<path fill="#444444" d="M17.184 6.624c-0.128 0-0.256-0.064-0.384-0.16-0.192-0.192-0.192-0.544 0-0.736l2.112-2.112c0.192-0.192 0.544-0.192 0.736 0s0.192 0.544 0 0.736l-2.112 2.112c-0.096 0.128-0.224 0.16-0.352 0.16z"></path>
<path fill="#444444" d="M7.936 4.832c-0.192 0-0.416-0.128-0.48-0.32l-0.448-0.992c-0.128-0.256 0-0.576 0.288-0.704 0.256-0.128 0.576 0 0.704 0.288l0.416 1.024c0.128 0.256 0 0.576-0.288 0.704-0.064 0-0.128 0-0.192 0z"></path>
<path fill="#444444" d="M14.368 4.8c-0.064 0-0.128 0-0.192-0.032-0.256-0.096-0.416-0.416-0.288-0.704l0.416-1.024c0.096-0.288 0.416-0.416 0.672-0.288 0.256 0.096 0.416 0.416 0.288 0.704l-0.416 1.024c-0.064 0.192-0.256 0.32-0.48 0.32z"></path>
<path fill="#444444" d="M2.432 16.32c-0.192 0-0.416-0.128-0.48-0.32-0.128-0.256 0-0.576 0.288-0.704l1.024-0.416c0.256-0.128 0.576 0 0.704 0.288 0.128 0.256 0 0.576-0.288 0.704l-1.024 0.416c-0.064 0.032-0.128 0.032-0.224 0.032z"></path>
<path fill="#444444" d="M3.392 9.44c-0.064 0-0.128 0-0.192-0.032l-1.024-0.416c-0.256-0.096-0.416-0.416-0.288-0.704 0.096-0.256 0.416-0.416 0.704-0.288l1.024 0.416c0.256 0.096 0.416 0.416 0.288 0.704-0.096 0.192-0.288 0.32-0.512 0.32z"></path>
<path fill="#444444" d="M8.704 18.976l-0.896-0.288c-0.32-0.096-0.64-0.16-0.992-0.224h-0.128l-0.128-0.096c-2.016-1.504-3.2-3.808-3.2-6.304 0-4.32 3.52-7.872 7.872-7.872 2.784 0 5.28 1.44 6.72 3.808l0.16 0.288-0.16 0.288c-0.512 0.8-0.8 1.728-0.8 2.688 0 0.032 0 0.064 0 0.128l0.032 0.736-0.608-0.064c-0.384-0.032-0.736-0.032-1.12 0.064-1.024 0.224-1.856 0.96-2.24 1.92l-0.192 0.48-0.48-0.16c-1.248-0.384-2.592 0-3.424 1.024-0.64 0.768-0.864 1.76-0.64 2.72l0.224 0.864zM7.072 17.44c0.096 0 0.192 0.032 0.288 0.032-0.032-1.024 0.32-2.016 0.96-2.816 1.024-1.216 2.592-1.792 4.128-1.472 0.576-1.088 1.568-1.856 2.784-2.144 0.288-0.064 0.576-0.096 0.896-0.096 0.064-0.928 0.32-1.824 0.768-2.656-1.28-1.92-3.36-3.040-5.664-3.040-3.744 0-6.784 3.040-6.784 6.784-0.032 2.176 0.928 4.096 2.624 5.408z"></path>
</svg>
