<?xml version="1.0" encoding="utf-8"?>
<!-- Generated by IcoMoon.io -->
<!DOCTYPE svg PUBLIC "-//W3C//DTD SVG 1.1//EN" "http://www.w3.org/Graphics/SVG/1.1/DTD/svg11.dtd">
<svg version="1.1" xmlns="http://www.w3.org/2000/svg" xmlns:xlink="http://www.w3.org/1999/xlink" width="32" height="32" viewBox="0 0 32 32">
<path fill="#444444" d="M16 0.032c-8.832 0-16 7.168-16 16s7.168 16 16 16 16-7.168 16-16-7.168-16-16-16zM16 30.432c-7.968 0-14.4-6.432-14.4-14.4s6.432-14.4 14.4-14.4 14.4 6.432 14.4 14.4c0 7.968-6.432 14.4-14.4 14.4z"></path>
<path fill="#444444" d="M14.72 17.952v4.896h-2.88v-13.92h5.44c1.056 0 1.952 0.192 2.752 0.576s1.408 0.928 1.824 1.632 0.64 1.504 0.64 2.4c0 1.376-0.48 2.432-1.408 3.232s-2.24 1.184-3.872 1.184h-2.496zM14.72 15.648h2.56c0.768 0 1.344-0.192 1.728-0.544s0.608-0.864 0.608-1.536c0-0.672-0.192-1.248-0.608-1.664s-0.96-0.64-1.664-0.64h-2.624v4.384z"></path>
</svg>
