<?xml version="1.0" encoding="utf-8"?>
<!-- Generated by IcoMoon.io -->
<!DOCTYPE svg PUBLIC "-//W3C//DTD SVG 1.1//EN" "http://www.w3.org/Graphics/SVG/1.1/DTD/svg11.dtd">
<svg version="1.1" xmlns="http://www.w3.org/2000/svg" xmlns:xlink="http://www.w3.org/1999/xlink" width="32" height="32" viewBox="0 0 32 32">
<path fill="#444444" d="M16 0c-8.832 0-16 7.168-16 16s7.168 16 16 16c8.832 0 16-7.168 16-16s-7.168-16-16-16zM16 29.632c-7.52 0-13.632-6.112-13.632-13.632s6.112-13.632 13.632-13.632c7.52 0 13.632 6.112 13.632 13.632s-6.112 13.632-13.632 13.632zM23.392 14.816h-6.208v-5.92c0-0.64-0.544-1.184-1.184-1.184s-1.184 0.544-1.184 1.184v5.92h-6.208c-0.64 0-1.184 0.544-1.184 1.184s0.544 1.184 1.184 1.184h6.208v6.528c0 0.64 0.544 1.184 1.184 1.184s1.184-0.544 1.184-1.184v-6.528h6.208c0.64 0 1.184-0.544 1.184-1.184s-0.512-1.184-1.184-1.184z"></path>
</svg>
