<?xml version="1.0" encoding="utf-8"?>
<!-- Generated by IcoMoon.io -->
<!DOCTYPE svg PUBLIC "-//W3C//DTD SVG 1.1//EN" "http://www.w3.org/Graphics/SVG/1.1/DTD/svg11.dtd">
<svg version="1.1" xmlns="http://www.w3.org/2000/svg" xmlns:xlink="http://www.w3.org/1999/xlink" width="32" height="32" viewBox="0 0 32 32">
<path fill="#444444" d="M8.896 23.808c-0.096 0-0.192-0.032-0.256-0.064-0.256-0.16-0.352-0.48-0.224-0.736l1.12-2.048c0.16-0.256 0.48-0.352 0.736-0.224 0.256 0.16 0.352 0.48 0.224 0.736l-1.12 2.048c-0.096 0.192-0.256 0.288-0.48 0.288z"></path>
<path fill="#444444" d="M10.816 28.416c-0.096 0-0.192-0.032-0.256-0.064-0.256-0.16-0.352-0.48-0.224-0.736l1.12-2.048c0.16-0.256 0.48-0.352 0.736-0.224 0.256 0.16 0.352 0.48 0.224 0.736l-1.12 2.048c-0.096 0.192-0.288 0.288-0.48 0.288z"></path>
<path fill="#444444" d="M13.088 24.32c-0.096 0-0.192-0.032-0.256-0.064-0.256-0.16-0.352-0.48-0.224-0.736l1.12-2.048c0.16-0.256 0.48-0.352 0.736-0.224 0.256 0.16 0.352 0.48 0.224 0.736l-1.12 2.048c-0.096 0.192-0.288 0.288-0.48 0.288z"></path>
<path fill="#444444" d="M4.736 23.264c-0.096 0-0.192-0.032-0.256-0.064-0.256-0.16-0.352-0.48-0.224-0.736l1.12-2.048c0.16-0.256 0.48-0.352 0.736-0.224 0.256 0.16 0.352 0.48 0.224 0.736l-1.12 2.048c-0.096 0.192-0.288 0.288-0.48 0.288z"></path>
<path fill="#444444" d="M7.328 18.624c-0.096 0-0.192-0.032-0.256-0.064-0.256-0.16-0.352-0.48-0.224-0.736l1.12-2.048c0.16-0.256 0.48-0.352 0.736-0.224 0.256 0.16 0.352 0.48 0.224 0.736l-1.12 2.048c-0.096 0.192-0.288 0.288-0.48 0.288z"></path>
<path fill="#444444" d="M2.464 27.36c-0.096 0-0.192-0.032-0.256-0.064-0.288-0.128-0.384-0.48-0.224-0.736l1.12-2.048c0.16-0.256 0.48-0.352 0.736-0.224 0.256 0.16 0.352 0.48 0.224 0.736l-1.12 2.048c-0.096 0.192-0.288 0.288-0.48 0.288z"></path>
<path fill="#444444" d="M6.624 27.904c-0.096 0-0.192-0.032-0.256-0.064-0.256-0.16-0.352-0.48-0.224-0.736l1.12-2.048c0.16-0.256 0.48-0.352 0.736-0.224 0.256 0.16 0.352 0.48 0.224 0.736l-1.12 2.048c-0.096 0.192-0.256 0.288-0.48 0.288z"></path>
<path fill="#444444" d="M4.352 32c-0.096 0-0.192-0.032-0.256-0.064-0.256-0.16-0.352-0.48-0.224-0.736l1.12-2.048c0.16-0.256 0.48-0.352 0.736-0.224 0.256 0.16 0.352 0.48 0.224 0.736l-1.12 2.048c-0.096 0.192-0.256 0.288-0.48 0.288z"></path>
<path fill="#444444" d="M17.248 24.864c-0.096 0-0.192-0.032-0.256-0.064-0.256-0.16-0.352-0.48-0.224-0.736l1.12-2.048c0.16-0.256 0.48-0.352 0.736-0.224 0.256 0.16 0.352 0.48 0.224 0.736l-1.12 2.048c-0.096 0.16-0.288 0.288-0.48 0.288z"></path>
<path fill="#444444" d="M1.312 21.376c-0.096 0-0.192-0.032-0.256-0.064-0.256-0.16-0.352-0.48-0.224-0.736l1.12-2.048c0.16-0.256 0.48-0.352 0.736-0.224 0.256 0.16 0.352 0.48 0.224 0.736l-1.12 2.048c-0.096 0.192-0.288 0.288-0.48 0.288z"></path>
<path fill="#444444" d="M4.032 14.368c-0.32 0-0.544-0.256-0.544-0.544 0-2.752 2.24-4.96 4.96-4.96h12.16c2.144 0 3.872-1.728 3.872-3.872s-1.76-3.872-3.872-3.872c-0.32 0-0.544-0.256-0.544-0.544s0.224-0.576 0.544-0.576c2.752 0 4.96 2.24 4.96 4.96s-2.24 4.96-4.96 4.96h-12.16c-2.144 0-3.872 1.728-3.872 3.872 0 0.32-0.224 0.576-0.544 0.576z"></path>
<path fill="#444444" d="M24.448 25.408c-0.32 0-0.544-0.256-0.544-0.544s0.256-0.544 0.544-0.544c2.144 0 3.872-1.728 3.872-3.872s-1.728-3.872-3.872-3.872h-11.040c-0.32 0-0.544-0.256-0.544-0.544 0-0.32 0.256-0.544 0.544-0.544h11.040c2.752 0 4.96 2.24 4.96 4.96s-2.208 4.96-4.96 4.96z"></path>
<path fill="#444444" d="M20.608 7.744c-0.32 0-0.544-0.256-0.544-0.544 0-0.32 0.256-0.544 0.544-0.544 0.928 0 1.664-0.736 1.664-1.664s-0.736-1.664-1.664-1.664c-0.928 0-1.664 0.736-1.664 1.664 0 0.32-0.256 0.544-0.544 0.544-0.32 0-0.544-0.256-0.544-0.544 0-1.536 1.248-2.752 2.752-2.752 1.536 0 2.752 1.248 2.752 2.752s-1.248 2.752-2.752 2.752z"></path>
<path fill="#444444" d="M24.448 23.2c-1.536 0-2.752-1.248-2.752-2.752 0-0.32 0.256-0.544 0.544-0.544 0.32 0 0.544 0.256 0.544 0.544 0 0.928 0.736 1.664 1.664 1.664s1.664-0.736 1.664-1.664-0.736-1.664-1.664-1.664c-0.32 0-0.544-0.256-0.544-0.544 0-0.32 0.256-0.544 0.544-0.544 1.536 0 2.752 1.248 2.752 2.752s-1.216 2.752-2.752 2.752z"></path>
<path fill="#444444" d="M21.152 18.784h-3.328c-0.32 0-0.544-0.256-0.544-0.544 0-0.32 0.256-0.544 0.544-0.544h3.328c0.32 0 0.544 0.256 0.544 0.544s-0.224 0.544-0.544 0.544z"></path>
<path fill="#444444" d="M18.4 7.744h-3.328c-0.32 0-0.544-0.256-0.544-0.544 0-0.32 0.256-0.544 0.544-0.544h3.328c0.32 0 0.544 0.256 0.544 0.544s-0.256 0.544-0.544 0.544z"></path>
<path fill="#444444" d="M25.568 12.16h-17.12c-0.32 0-0.544-0.256-0.544-0.544s0.256-0.544 0.544-0.544h17.12c0.32 0 0.544 0.256 0.544 0.544s-0.224 0.544-0.544 0.544z"></path>
<path fill="#444444" d="M30.528 14.368h-19.872c-0.32 0-0.544-0.256-0.544-0.544 0-0.32 0.256-0.544 0.544-0.544h19.872c0.32 0 0.544 0.256 0.544 0.544 0.032 0.288-0.224 0.544-0.544 0.544z"></path>
</svg>
