<?xml version="1.0" encoding="utf-8"?>
<!-- Generated by IcoMoon.io -->
<!DOCTYPE svg PUBLIC "-//W3C//DTD SVG 1.1//EN" "http://www.w3.org/Graphics/SVG/1.1/DTD/svg11.dtd">
<svg version="1.1" xmlns="http://www.w3.org/2000/svg" xmlns:xlink="http://www.w3.org/1999/xlink" width="32" height="32" viewBox="0 0 32 32">
<path fill="#444444" d="M26.656 6.464l-2.432 2.112c-0.032 0-0.064-0.032-0.096-0.032h-4.864c-0.16 0-0.256 0.128-0.256 0.256 0 0.16 0.128 0.256 0.256 0.256h4.352l-4.928 4.32-1.984-1.504c-0.128-0.096-0.288-0.064-0.384 0.064s-0.064 0.288 0.064 0.384l2.176 1.632c0 0 0.032 0 0.032 0.032 0 0 0.032 0 0.032 0 0.032 0 0.064 0.032 0.096 0.032 0 0 0 0 0 0s0 0 0 0c0.032 0 0.064 0 0.096-0.032 0 0 0.032 0 0.032-0.032 0 0 0.032 0 0.032-0.032l4.96-4.32v3.552c0 0.16 0.128 0.256 0.256 0.256 0.16 0 0.256-0.128 0.256-0.256v-4l2.624-2.272c0.128-0.096 0.128-0.256 0.032-0.384-0.064-0.096-0.256-0.128-0.352-0.032zM29.792 0.992h-27.584c-1.184 0-2.176 0.96-2.176 2.176v20.032c0 1.184 0.96 2.176 2.176 2.176h9.888c0.192 1.12-0.256 2.272-1.184 2.912l-0.96 0.704c-0.064 0.032-0.128 0.128-0.16 0.192h-0.032c-0.608 0-1.088 0.48-1.088 1.088s0.48 1.088 1.088 1.088h12.448c0.608 0 1.088-0.48 1.088-1.088s-0.48-1.088-1.088-1.088h-0.032c-0.032-0.064-0.064-0.128-0.128-0.192l-0.992-0.704c-0.896-0.64-1.344-1.792-1.184-2.912h9.888c1.184 0 2.176-0.96 2.176-2.176v-20.032c0.032-1.184-0.928-2.176-2.144-2.176zM22.24 29.696c0.288 0 0.544 0.256 0.544 0.544s-0.256 0.544-0.544 0.544h-12.48c-0.288 0-0.544-0.256-0.544-0.544s0.256-0.544 0.544-0.544h12.48zM20.768 28.704l0.608 0.448h-10.752l0.608-0.448c1.056-0.736 1.6-2.048 1.408-3.36h6.72c-0.192 1.312 0.352 2.624 1.408 3.36zM31.424 23.2c0 0.896-0.736 1.632-1.632 1.632h-27.584c-0.896 0-1.632-0.736-1.632-1.632v-2.72h30.848v2.72zM31.424 19.936h-30.848v-16.768c0-0.896 0.736-1.632 1.632-1.632h27.616c0.896 0 1.632 0.736 1.632 1.632v16.768zM2.72 18.336h26.528v-14.624h-26.528v14.624zM14.112 4.256h14.624v13.536h-14.624v-13.536zM3.264 4.256h10.272v13.536h-10.272v-13.536zM12.224 9.12h-0.832c-0.064-0.608-0.288-1.184-0.672-1.632l0.576-0.576c0.096-0.096 0.096-0.288 0-0.384s-0.288-0.096-0.384 0l-0.576 0.576c-0.448-0.384-1.024-0.608-1.632-0.672v-0.832c0-0.16-0.128-0.256-0.256-0.256-0.16 0-0.256 0.128-0.256 0.256v0.832c-0.608 0.064-1.184 0.288-1.632 0.672l-0.576-0.576c-0.096-0.096-0.288-0.096-0.384 0s-0.096 0.288 0 0.384l0.576 0.576c-0.384 0.448-0.608 1.024-0.672 1.632h-0.832c-0.16 0-0.256 0.128-0.256 0.256 0 0.16 0.128 0.256 0.256 0.256h0.768c0.064 0.608 0.288 1.184 0.672 1.632l-0.576 0.576c-0.096 0.096-0.096 0.288 0 0.384 0.064 0.064 0.128 0.064 0.192 0.064s0.128-0.032 0.192-0.064l0.576-0.576c0.448 0.384 1.024 0.608 1.632 0.672v0.832c0 0.16 0.128 0.256 0.256 0.256 0.16 0 0.256-0.128 0.256-0.256v-0.832c0.608-0.064 1.184-0.288 1.632-0.672l0.576 0.576c0.064 0.064 0.128 0.064 0.192 0.064s0.128-0.032 0.192-0.064c0.096-0.096 0.096-0.288 0-0.384l-0.576-0.576c0.384-0.448 0.608-1.024 0.672-1.632h0.832c0.16 0 0.256-0.128 0.256-0.256 0.064-0.128-0.064-0.256-0.192-0.256zM8.416 11.84c-1.344 0-2.432-1.088-2.432-2.432s1.088-2.432 2.432-2.432c1.344 0 2.432 1.088 2.432 2.432 0 1.312-1.088 2.432-2.432 2.432zM10.304 14.816c0-0.16-0.128-0.256-0.256-0.256h-4.864c-0.16 0-0.256 0.128-0.256 0.256 0 0.16 0.128 0.256 0.256 0.256h4.864c0.16 0 0.256-0.128 0.256-0.256zM11.68 16.16h-4.352c-0.16 0-0.256 0.128-0.256 0.256 0 0.16 0.128 0.256 0.256 0.256h4.32c0.16 0 0.256-0.128 0.256-0.256 0.032-0.128-0.096-0.256-0.224-0.256zM26.272 15.616h-1.088c-0.16 0-0.256 0.128-0.256 0.256 0 0.16 0.128 0.256 0.256 0.256h1.088c0.16 0 0.256-0.128 0.256-0.256 0.032-0.128-0.096-0.256-0.256-0.256zM22.496 15.616h-1.632c-0.16 0-0.256 0.128-0.256 0.256 0 0.16 0.128 0.256 0.256 0.256h1.632c0.16 0 0.256-0.128 0.256-0.256s-0.096-0.256-0.256-0.256zM18.176 15.616h-1.632c-0.16 0-0.256 0.128-0.256 0.256 0 0.16 0.128 0.256 0.256 0.256h1.632c0.16 0 0.256-0.128 0.256-0.256s-0.128-0.256-0.256-0.256z"></path>
</svg>
