<?xml version="1.0" encoding="utf-8"?>
<!-- Generated by IcoMoon.io -->
<!DOCTYPE svg PUBLIC "-//W3C//DTD SVG 1.1//EN" "http://www.w3.org/Graphics/SVG/1.1/DTD/svg11.dtd">
<svg version="1.1" xmlns="http://www.w3.org/2000/svg" xmlns:xlink="http://www.w3.org/1999/xlink" width="32" height="32" viewBox="0 0 32 32">
<path fill="#444444" d="M12.512 16.448c-0.256 0-0.448-0.16-0.512-0.416-0.544-2.272 0.896-4.576 3.168-5.12s4.576 0.896 5.12 3.168c0.064 0.288-0.096 0.576-0.384 0.64s-0.576-0.096-0.64-0.384c-0.416-1.728-2.112-2.784-3.84-2.368-1.696 0.416-2.784 2.112-2.368 3.84 0.064 0.288-0.096 0.576-0.384 0.64-0.064 0-0.128 0-0.16 0z"></path>
<path fill="#444444" d="M31.456 15.648c-0.288 0-0.544-0.224-0.544-0.544 0-1.76-1.44-3.2-3.2-3.2s-3.2 1.44-3.2 3.2c0 0.288-0.224 0.544-0.544 0.544s-0.544-0.224-0.544-0.544c0-2.336 1.92-4.256 4.256-4.256s4.256 1.92 4.256 4.256c0.064 0.288-0.192 0.544-0.48 0.544z"></path>
<path fill="#444444" d="M9.184 20.64c-0.128 0-0.224-0.032-0.352-0.128-0.864-0.736-1.408-1.728-1.536-2.88-0.096-1.12 0.224-2.24 0.96-3.104 1.12-1.344 2.912-1.888 4.576-1.344 0.288 0.096 0.448 0.384 0.352 0.672s-0.384 0.448-0.672 0.352c-1.248-0.384-2.592 0-3.424 1.024-0.544 0.672-0.8 1.472-0.704 2.336s0.48 1.6 1.152 2.144c0.224 0.192 0.256 0.512 0.064 0.736-0.096 0.128-0.256 0.192-0.416 0.192z"></path>
<path fill="#444444" d="M3.328 28.704c-0.096 0-0.192-0.032-0.288-0.064-2.88-1.76-3.776-5.536-2.048-8.416 1.472-2.432 4.384-3.52 7.104-2.656 0.288 0.096 0.448 0.384 0.352 0.672s-0.384 0.448-0.672 0.352c-2.24-0.704-4.64 0.192-5.856 2.176-1.44 2.368-0.672 5.504 1.696 6.944 0.256 0.16 0.32 0.48 0.192 0.736-0.128 0.16-0.288 0.256-0.48 0.256z"></path>
<path fill="#444444" d="M27.744 11.648c-0.288 0-0.544-0.224-0.544-0.544 0-2.784-2.272-5.056-5.056-5.056s-5.024 2.272-5.024 5.056c0 0.288-0.224 0.544-0.544 0.544s-0.544-0.224-0.544-0.544c0-3.36 2.752-6.112 6.112-6.112s6.112 2.752 6.112 6.112c0 0.32-0.224 0.544-0.512 0.544z"></path>
<path fill="#444444" d="M31.456 27.872c-0.288 0-0.544-0.224-0.544-0.544 0-1.184-0.96-2.112-2.112-2.112s-2.112 0.96-2.112 2.112c0 0.288-0.224 0.544-0.544 0.544s-0.544-0.256-0.544-0.544c0-1.76 1.44-3.2 3.2-3.2s3.2 1.44 3.2 3.2c0 0.288-0.256 0.544-0.544 0.544z"></path>
<path fill="#444444" d="M28.8 25.216c-0.288 0-0.544-0.224-0.544-0.544 0-1.76-1.44-3.2-3.2-3.2s-3.2 1.44-3.2 3.2c0 0.288-0.224 0.544-0.544 0.544-0.288 0-0.544-0.224-0.544-0.544 0-2.336 1.92-4.256 4.256-4.256s4.256 1.92 4.256 4.256c0.064 0.288-0.192 0.544-0.48 0.544z"></path>
<path fill="#444444" d="M2.72 12.448h-2.176c-0.288 0-0.544-0.224-0.544-0.544s0.224-0.544 0.544-0.544h2.208c0.288 0 0.544 0.224 0.544 0.544s-0.256 0.544-0.576 0.544z"></path>
<path fill="#444444" d="M11.168 4c-0.288 0-0.544-0.224-0.544-0.544v-2.176c0-0.288 0.224-0.544 0.544-0.544s0.544 0.224 0.544 0.544v2.208c0 0.288-0.256 0.512-0.544 0.512z"></path>
<path fill="#444444" d="M5.216 6.496c-0.128 0-0.288-0.064-0.384-0.16l-2.112-2.112c-0.192-0.192-0.192-0.544 0-0.736s0.544-0.192 0.736 0l2.112 2.112c0.192 0.192 0.192 0.544 0 0.736-0.096 0.096-0.224 0.16-0.352 0.16z"></path>
<path fill="#444444" d="M17.12 6.496c-0.128 0-0.288-0.064-0.384-0.16-0.192-0.192-0.192-0.544 0-0.736l2.112-2.112c0.192-0.192 0.544-0.192 0.736 0s0.192 0.544 0 0.736l-2.112 2.112c-0.064 0.096-0.192 0.16-0.352 0.16z"></path>
<path fill="#444444" d="M7.872 4.672c-0.192 0-0.416-0.128-0.48-0.32l-0.416-1.024c-0.128-0.256 0-0.576 0.288-0.704 0.256-0.128 0.576 0 0.704 0.288l0.416 1.024c0.128 0.256 0 0.576-0.288 0.704-0.096 0.032-0.16 0.032-0.224 0.032z"></path>
<path fill="#444444" d="M14.336 4.64c-0.064 0-0.128 0-0.192-0.032-0.288-0.096-0.416-0.416-0.288-0.704l0.384-1.024c0.096-0.288 0.416-0.416 0.704-0.288 0.288 0.096 0.416 0.416 0.288 0.704l-0.416 1.024c-0.096 0.192-0.288 0.32-0.48 0.32z"></path>
<path fill="#444444" d="M2.4 16.16c-0.192 0-0.416-0.128-0.48-0.32-0.128-0.256 0-0.576 0.288-0.704l0.992-0.416c0.256-0.128 0.576 0 0.704 0.288 0.128 0.256 0 0.576-0.288 0.704l-1.024 0.416c-0.064 0.032-0.128 0.032-0.192 0.032z"></path>
<path fill="#444444" d="M3.36 9.28c-0.064 0-0.128 0-0.192-0.032l-1.024-0.416c-0.288-0.096-0.416-0.416-0.288-0.704 0.096-0.288 0.416-0.416 0.704-0.288l1.024 0.416c0.288 0.096 0.416 0.416 0.288 0.704-0.128 0.192-0.32 0.32-0.512 0.32z"></path>
<path fill="#444444" d="M8.64 18.816l-0.896-0.288c-0.32-0.096-0.64-0.16-0.992-0.224h-0.128l-0.128-0.064c-2.016-1.504-3.2-3.808-3.2-6.304 0-4.352 3.52-7.872 7.872-7.872 2.784 0 5.28 1.44 6.72 3.808l0.16 0.288-0.192 0.288c-0.512 0.8-0.8 1.728-0.8 2.688 0 0.032 0 0.064 0 0.128l0.032 0.736-0.608-0.064c-0.384-0.032-0.768-0.032-1.12 0.064-1.024 0.224-1.856 0.96-2.24 1.92l-0.192 0.48-0.448-0.224c-1.216-0.384-2.56 0-3.424 1.024-0.64 0.768-0.864 1.76-0.64 2.72l0.224 0.896zM7.008 17.28c0.096 0 0.192 0.032 0.288 0.032-0.032-1.024 0.32-2.016 0.96-2.816 1.024-1.216 2.592-1.792 4.128-1.472 0.576-1.088 1.568-1.856 2.784-2.144 0.288-0.064 0.576-0.096 0.896-0.096 0.064-0.928 0.32-1.856 0.768-2.656-1.28-1.92-3.36-3.040-5.664-3.040-3.744 0-6.816 3.040-6.816 6.816 0 2.144 0.96 4.096 2.656 5.376z"></path>
</svg>
