<?xml version="1.0" encoding="utf-8"?>
<!-- Generated by IcoMoon.io -->
<!DOCTYPE svg PUBLIC "-//W3C//DTD SVG 1.1//EN" "http://www.w3.org/Graphics/SVG/1.1/DTD/svg11.dtd">
<svg version="1.1" xmlns="http://www.w3.org/2000/svg" xmlns:xlink="http://www.w3.org/1999/xlink" width="32" height="32" viewBox="0 0 32 32">
<path fill="#444444" d="M13.92 8.16c-0.16-0.032-0.288 0.096-0.288 0.224-0.032 0.16 0.096 0.288 0.224 0.288 3.2 0.384 6.176 2.368 7.744 5.216 0.064 0.096 0.128 0.128 0.224 0.128 0.032 0 0.096 0 0.128-0.032 0.128-0.064 0.192-0.224 0.096-0.384-1.6-2.944-4.736-5.056-8.128-5.44zM32 25.664l-2.144-6.464c1.12-1.952 1.728-4.16 1.728-6.432 0-7.072-5.728-12.8-12.8-12.8-5.024 0-9.6 2.944-11.648 7.552-4 2.208-6.688 6.4-6.688 11.232 0 2.272 0.608 4.48 1.728 6.432l-2.176 6.464c-0.032 0.096 0 0.192 0.064 0.256s0.128 0.096 0.192 0.096c0.032 0 0.032 0 0.064 0l7.040-1.856c1.792 0.928 3.84 1.408 5.856 1.408 5.12 0 9.504-3.008 11.584-7.328l6.848 1.792c0.032 0 0.032 0 0.064 0 0.064 0 0.16-0.032 0.192-0.096 0.096-0.032 0.128-0.16 0.096-0.256zM24.896 22.496c-0.032 0.064-0.064 0.16-0.096 0.224-0.032 0.128-0.096 0.256-0.128 0.352-0.032 0.064-0.064 0.16-0.096 0.224-0.064 0.128-0.096 0.224-0.16 0.352-1.856 4.352-6.176 7.36-11.168 7.36-1.728 0-3.456-0.384-5.024-1.056l2.656-0.576c0.16-0.032 0.224-0.192 0.192-0.32-0.032-0.16-0.16-0.224-0.32-0.192l-3.392 0.736c0 0 0 0 0 0s0 0 0 0l-6.688 1.728 2.048-6.112c0.032-0.064 0-0.16-0.032-0.224-1.12-1.888-1.728-4.064-1.728-6.24 0-4.8 2.752-8.928 6.752-10.944 0.064-0.032 0.16-0.064 0.224-0.128 0.096-0.064 0.224-0.096 0.32-0.16 0.096-0.032 0.224-0.096 0.32-0.128s0.192-0.064 0.288-0.096c0.16-0.064 0.32-0.128 0.48-0.16 0.032 0 0.096-0.032 0.128-0.032 0.224-0.064 0.448-0.128 0.704-0.192 0 0 0.032 0 0.032 0 0.224-0.064 0.448-0.096 0.672-0.128 0.064 0 0.096-0.032 0.16-0.032 0.192-0.032 0.384-0.064 0.544-0.096 0.064 0 0.128-0.032 0.192-0.032 0.192-0.032 0.352-0.032 0.544-0.064 0.064 0 0.128 0 0.192 0 0.224 0 0.48-0.032 0.704-0.032 6.752 0 12.256 5.504 12.256 12.256 0 0.224 0 0.416-0.032 0.64 0 0.096 0 0.192-0.032 0.288 0 0.128 0 0.224-0.032 0.352 0 0.096-0.032 0.224-0.032 0.32s-0.032 0.192-0.032 0.288c-0.032 0.096-0.032 0.224-0.064 0.32s-0.032 0.192-0.064 0.288c-0.032 0.096-0.032 0.192-0.064 0.288s-0.064 0.224-0.064 0.32c-0.032 0.096-0.064 0.192-0.064 0.256 0 0.128-0.064 0.256-0.096 0.352zM25.024 23.712c0-0.032 0.032-0.064 0.032-0.096 0.064-0.16 0.128-0.32 0.192-0.48 0.032-0.064 0.032-0.128 0.064-0.192 0.032-0.128 0.096-0.256 0.128-0.384s0.064-0.224 0.096-0.352c0.032-0.096 0.064-0.16 0.064-0.256 0.032-0.16 0.064-0.288 0.096-0.448 0-0.064 0.032-0.128 0.032-0.16 0.032-0.16 0.064-0.32 0.096-0.512 0-0.032 0-0.096 0.032-0.128 0.032-0.16 0.032-0.352 0.064-0.512 0-0.032 0-0.096 0-0.128 0.032-0.16 0.032-0.352 0.032-0.512 0-0.032 0-0.096 0-0.128 0-0.224 0.032-0.448 0.032-0.64 0-7.072-5.728-12.8-12.8-12.8-0.224 0-0.448 0-0.672 0.032-0.032 0-0.064 0-0.096 0-0.192 0-0.384 0.032-0.576 0.032-0.032 0-0.064 0-0.096 0-0.192 0.032-0.384 0.032-0.576 0.064-0.032 0-0.064 0-0.096 0.032-0.192 0.032-0.384 0.064-0.544 0.096-0.032 0-0.096 0.032-0.128 0.032-0.16 0.032-0.32 0.064-0.512 0.128-0.064 0.032-0.128 0.032-0.192 0.064-0.128 0.032-0.288 0.096-0.416 0.128-0.096 0.032-0.16 0.064-0.256 0.096s-0.224 0.064-0.32 0.128c-0.096 0.032-0.224 0.096-0.32 0.128-0.064 0.032-0.16 0.064-0.224 0.096s-0.16 0.064-0.224 0.096c2.112-4.032 6.272-6.592 10.88-6.592 6.752 0 12.256 5.504 12.256 12.256 0 2.208-0.608 4.352-1.728 6.24-0.032 0.064-0.064 0.16-0.032 0.224l2.048 6.112-6.336-1.664z"></path>
</svg>
