<?xml version="1.0" encoding="utf-8"?>
<!-- Generated by IcoMoon.io -->
<!DOCTYPE svg PUBLIC "-//W3C//DTD SVG 1.1//EN" "http://www.w3.org/Graphics/SVG/1.1/DTD/svg11.dtd">
<svg version="1.1" xmlns="http://www.w3.org/2000/svg" xmlns:xlink="http://www.w3.org/1999/xlink" width="32" height="32" viewBox="0 0 32 32">
<path fill="#444444" d="M16.020 0c-8.85 0-16.020 7.17-16.020 16.020s7.17 16.020 16.020 16.020 16.020-7.17 16.020-16.020-7.211-16.020-16.020-16.020zM15.898 26.428c0 0 0 0 0 0-1.803 0-2.294-0.779-2.294-2.131 0-1.147 0.86-2.172 2.294-2.172 0 0 0 0 0 0 1.762 0 2.294 0.86 2.294 2.172 0 1.188-0.819 2.131-2.294 2.131zM17.782 18.028c-0.082 1.106-0.738 1.188-3.278 1.188-0.123 0-0.205 0-0.328 0l-0.656-13.152c-0.041-0.656 0.574-0.779 4.22-0.779 0.246 0 0.492 0 0.779 0 0 0 0 0 0 0s0 0 0 0c0.041 0 0.123 0 0.082 0.082 0 0.123-0.819 12.661-0.819 12.661z"></path>
</svg>
