<?xml version="1.0" encoding="utf-8"?>
<!-- Generated by IcoMoon.io -->
<!DOCTYPE svg PUBLIC "-//W3C//DTD SVG 1.1//EN" "http://www.w3.org/Graphics/SVG/1.1/DTD/svg11.dtd">
<svg version="1.1" xmlns="http://www.w3.org/2000/svg" xmlns:xlink="http://www.w3.org/1999/xlink" width="32" height="32" viewBox="0 0 32 32">
<path fill="#444444" d="M31.456 15.616c-0.288 0-0.544-0.224-0.544-0.544 0-1.76-1.44-3.2-3.2-3.2s-3.2 1.44-3.2 3.2c0 0.288-0.224 0.544-0.544 0.544s-0.544-0.224-0.544-0.544c0-2.368 1.92-4.256 4.256-4.256 2.368 0 4.256 1.92 4.256 4.256 0.064 0.288-0.16 0.544-0.48 0.544z"></path>
<path fill="#444444" d="M12.544 16.64c-0.256 0-0.448-0.16-0.512-0.416-0.544-2.304 0.896-4.576 3.168-5.12 2.304-0.544 4.608 0.896 5.12 3.168 0.064 0.288-0.096 0.576-0.384 0.64s-0.576-0.096-0.64-0.384c-0.416-1.728-2.144-2.784-3.84-2.368-1.728 0.416-2.784 2.144-2.368 3.84 0.064 0.288-0.096 0.576-0.384 0.64-0.064 0-0.096 0-0.16 0z"></path>
<path fill="#444444" d="M9.216 20.864c-0.128 0-0.224-0.032-0.352-0.128-0.864-0.736-1.44-1.76-1.536-2.88s0.224-2.24 0.96-3.136c1.12-1.344 2.912-1.888 4.576-1.344 0.288 0.096 0.448 0.384 0.352 0.672s-0.384 0.448-0.672 0.352c-1.248-0.384-2.592 0-3.424 1.024-0.544 0.672-0.8 1.504-0.704 2.336s0.48 1.632 1.152 2.176c0.224 0.192 0.256 0.512 0.064 0.736-0.128 0.128-0.256 0.192-0.416 0.192z"></path>
<path fill="#444444" d="M3.328 28.928c-0.096 0-0.192-0.032-0.288-0.064-2.88-1.76-3.808-5.536-2.048-8.416 1.472-2.432 4.416-3.52 7.104-2.656 0.288 0.096 0.448 0.384 0.352 0.672s-0.384 0.448-0.672 0.352c-2.24-0.736-4.64 0.192-5.888 2.208-1.44 2.4-0.704 5.504 1.696 6.976 0.256 0.16 0.32 0.48 0.192 0.736-0.064 0.128-0.256 0.192-0.448 0.192z"></path>
<path fill="#444444" d="M27.84 11.84c-0.288 0-0.544-0.224-0.544-0.544 0-2.784-2.272-5.056-5.056-5.056s-5.056 2.272-5.056 5.056c0 0.288-0.224 0.544-0.544 0.544-0.288 0-0.544-0.224-0.544-0.544 0-3.392 2.752-6.144 6.144-6.144s6.144 2.752 6.144 6.144c-0.032 0.32-0.256 0.544-0.544 0.544z"></path>
<path fill="#444444" d="M2.752 12.64h-2.208c-0.288 0-0.544-0.224-0.544-0.544s0.224-0.544 0.544-0.544h2.208c0.288 0 0.544 0.224 0.544 0.544s-0.256 0.544-0.544 0.544z"></path>
<path fill="#444444" d="M11.2 4.192c-0.288 0-0.544-0.224-0.544-0.544v-2.208c0-0.288 0.224-0.544 0.544-0.544s0.544 0.224 0.544 0.544v2.208c0 0.288-0.256 0.544-0.544 0.544z"></path>
<path fill="#444444" d="M5.216 6.656c-0.128 0-0.288-0.064-0.384-0.16l-2.112-2.112c-0.224-0.224-0.224-0.544 0-0.768s0.544-0.224 0.768 0l2.112 2.112c0.224 0.224 0.224 0.544 0 0.768-0.096 0.096-0.256 0.16-0.384 0.16z"></path>
<path fill="#444444" d="M17.184 6.656c-0.128 0-0.288-0.064-0.384-0.16-0.224-0.224-0.224-0.544 0-0.768l2.112-2.112c0.224-0.224 0.544-0.224 0.768 0s0.224 0.544 0 0.768l-2.112 2.112c-0.128 0.096-0.256 0.16-0.384 0.16z"></path>
<path fill="#444444" d="M7.904 4.864c-0.192 0-0.416-0.128-0.48-0.32l-0.448-1.024c-0.128-0.256 0-0.576 0.288-0.704 0.256-0.128 0.576 0 0.704 0.288l0.416 1.024c0.128 0.256 0 0.576-0.288 0.704-0.064 0-0.128 0.032-0.192 0.032z"></path>
<path fill="#444444" d="M14.368 4.8c-0.064 0-0.128 0-0.192-0.032-0.288-0.096-0.416-0.416-0.288-0.704l0.416-1.024c0.096-0.256 0.416-0.416 0.672-0.288 0.288 0.096 0.416 0.416 0.288 0.704l-0.384 1.024c-0.096 0.192-0.288 0.32-0.512 0.32z"></path>
<path fill="#444444" d="M2.4 16.384c-0.192 0-0.416-0.128-0.48-0.32-0.128-0.256 0-0.576 0.288-0.704l1.024-0.416c0.256-0.128 0.576 0 0.704 0.288 0.128 0.256 0 0.576-0.288 0.704l-1.056 0.384c-0.064 0.032-0.128 0.064-0.192 0.064z"></path>
<path fill="#444444" d="M3.36 9.472c-0.064 0-0.128 0-0.192-0.032l-1.024-0.416c-0.288-0.096-0.416-0.416-0.288-0.704 0.096-0.288 0.416-0.416 0.704-0.288l1.024 0.416c0.288 0.096 0.416 0.416 0.288 0.704-0.096 0.192-0.32 0.32-0.512 0.32z"></path>
<path fill="#444444" d="M8.672 19.040l-0.896-0.288c-0.32-0.096-0.64-0.16-0.992-0.224h-0.128l-0.128-0.096c-2.048-1.504-3.2-3.808-3.2-6.336 0-4.352 3.552-7.904 7.904-7.904 2.784 0 5.312 1.44 6.752 3.84l0.16 0.288-0.192 0.288c-0.512 0.8-0.8 1.76-0.8 2.72 0 0.032 0 0.064 0 0.128l0.032 0.736-0.64-0.064c-0.384-0.032-0.768-0.032-1.12 0.064-1.024 0.224-1.856 0.96-2.24 1.952l-0.192 0.48-0.448-0.224c-1.248-0.384-2.592 0-3.424 1.024-0.64 0.768-0.864 1.76-0.64 2.72l0.192 0.896zM7.040 17.504c0.096 0 0.192 0.032 0.288 0.032-0.032-1.024 0.32-2.016 0.96-2.816 1.024-1.248 2.592-1.792 4.128-1.472 0.576-1.088 1.6-1.856 2.784-2.144 0.288-0.064 0.576-0.096 0.896-0.096 0.064-0.928 0.32-1.856 0.768-2.656-1.28-1.92-3.36-3.040-5.664-3.040-3.776 0-6.816 3.072-6.816 6.816 0 2.112 0.96 4.064 2.656 5.376z"></path>
<path fill="#444444" d="M28.256 21.472c-0.288 0-0.544-0.224-0.544-0.544v-2.656c0-0.288 0.224-0.544 0.544-0.544 0.288 0 0.544 0.224 0.544 0.544v2.656c0 0.32-0.224 0.544-0.544 0.544z"></path>
<path fill="#444444" d="M28.256 24.128c-0.288 0-0.544-0.224-0.544-0.544v-2.656c0-0.288 0.224-0.544 0.544-0.544 0.288 0 0.544 0.224 0.544 0.544v2.656c0 0.32-0.224 0.544-0.544 0.544z"></path>
<path fill="#444444" d="M28.256 21.472c-0.096 0-0.192-0.032-0.256-0.064l-2.304-1.344c-0.256-0.16-0.352-0.48-0.192-0.736s0.48-0.352 0.736-0.192l2.304 1.344c0.256 0.16 0.352 0.48 0.192 0.736-0.096 0.16-0.288 0.256-0.48 0.256z"></path>
<path fill="#444444" d="M30.56 22.816c-0.096 0-0.192-0.032-0.256-0.064l-2.304-1.344c-0.256-0.16-0.352-0.48-0.192-0.736s0.48-0.352 0.736-0.192l2.304 1.344c0.256 0.16 0.352 0.48 0.192 0.736-0.096 0.16-0.288 0.256-0.48 0.256z"></path>
<path fill="#444444" d="M28.256 21.472c-0.192 0-0.352-0.096-0.448-0.256-0.16-0.256-0.064-0.576 0.192-0.736l2.304-1.344c0.256-0.16 0.576-0.064 0.736 0.192s0.064 0.576-0.192 0.736l-2.304 1.344c-0.096 0.032-0.192 0.064-0.288 0.064z"></path>
<path fill="#444444" d="M25.952 22.816c-0.192 0-0.352-0.096-0.448-0.256-0.16-0.256-0.064-0.576 0.192-0.736l2.304-1.344c0.256-0.16 0.576-0.064 0.736 0.192s0.064 0.576-0.192 0.736l-2.304 1.344c-0.096 0.032-0.192 0.064-0.288 0.064z"></path>
<path fill="#444444" d="M17.056 21.472c-0.288 0-0.544-0.224-0.544-0.544v-2.656c0-0.288 0.224-0.544 0.544-0.544 0.288 0 0.544 0.224 0.544 0.544v2.656c0 0.32-0.224 0.544-0.544 0.544z"></path>
<path fill="#444444" d="M17.056 24.128c-0.288 0-0.544-0.224-0.544-0.544v-2.656c0-0.288 0.224-0.544 0.544-0.544 0.288 0 0.544 0.224 0.544 0.544v2.656c0 0.32-0.224 0.544-0.544 0.544z"></path>
<path fill="#444444" d="M17.056 21.472c-0.096 0-0.192-0.032-0.256-0.064l-2.304-1.344c-0.256-0.16-0.352-0.48-0.192-0.736s0.48-0.352 0.736-0.192l2.304 1.344c0.256 0.16 0.352 0.48 0.192 0.736-0.096 0.16-0.288 0.256-0.48 0.256z"></path>
<path fill="#444444" d="M19.36 22.816c-0.096 0-0.192-0.032-0.256-0.064l-2.304-1.344c-0.256-0.16-0.352-0.48-0.192-0.736s0.48-0.352 0.736-0.192l2.304 1.344c0.256 0.16 0.352 0.48 0.192 0.736-0.096 0.16-0.288 0.256-0.48 0.256z"></path>
<path fill="#444444" d="M17.056 21.472c-0.192 0-0.352-0.096-0.448-0.256-0.16-0.256-0.064-0.576 0.192-0.736l2.304-1.344c0.256-0.16 0.576-0.064 0.736 0.192s0.064 0.576-0.192 0.736l-2.304 1.344c-0.096 0.032-0.192 0.064-0.288 0.064z"></path>
<path fill="#444444" d="M14.752 22.816c-0.192 0-0.352-0.096-0.448-0.256-0.16-0.256-0.064-0.576 0.192-0.736l2.304-1.344c0.256-0.16 0.576-0.064 0.736 0.192s0.064 0.576-0.192 0.736l-2.304 1.344c-0.096 0.032-0.192 0.064-0.288 0.064z"></path>
<path fill="#444444" d="M22.944 28.416c-0.288 0-0.544-0.224-0.544-0.544v-2.656c0-0.288 0.224-0.544 0.544-0.544 0.288 0 0.544 0.224 0.544 0.544v2.656c-0.032 0.32-0.256 0.544-0.544 0.544z"></path>
<path fill="#444444" d="M22.944 31.104c-0.288 0-0.544-0.224-0.544-0.544v-2.656c0-0.288 0.224-0.544 0.544-0.544 0.288 0 0.544 0.224 0.544 0.544v2.656c-0.032 0.288-0.256 0.544-0.544 0.544z"></path>
<path fill="#444444" d="M22.944 28.416c-0.096 0-0.192-0.032-0.256-0.064l-2.304-1.344c-0.288-0.128-0.384-0.448-0.224-0.704s0.48-0.352 0.736-0.192l2.304 1.344c0.256 0.16 0.352 0.48 0.192 0.736-0.096 0.128-0.288 0.224-0.448 0.224z"></path>
<path fill="#444444" d="M25.248 29.76c-0.096 0-0.192-0.032-0.256-0.064l-2.304-1.344c-0.256-0.16-0.352-0.48-0.192-0.736s0.48-0.352 0.736-0.192l2.304 1.344c0.256 0.16 0.352 0.48 0.192 0.736-0.128 0.16-0.288 0.256-0.48 0.256z"></path>
<path fill="#444444" d="M22.944 28.416c-0.192 0-0.352-0.096-0.448-0.256-0.16-0.256-0.064-0.576 0.192-0.736l2.304-1.344c0.256-0.16 0.576-0.064 0.736 0.192s0.064 0.576-0.192 0.736l-2.304 1.344c-0.128 0.064-0.192 0.064-0.288 0.064z"></path>
<path fill="#444444" d="M20.64 29.76c-0.192 0-0.352-0.096-0.448-0.256-0.16-0.256-0.064-0.576 0.192-0.736l2.304-1.344c0.256-0.16 0.576-0.064 0.736 0.192s0.064 0.576-0.192 0.736l-2.304 1.344c-0.128 0.032-0.224 0.064-0.288 0.064z"></path>
</svg>
