<?xml version="1.0" encoding="utf-8"?>
<!-- Generated by IcoMoon.io -->
<!DOCTYPE svg PUBLIC "-//W3C//DTD SVG 1.1//EN" "http://www.w3.org/Graphics/SVG/1.1/DTD/svg11.dtd">
<svg version="1.1" xmlns="http://www.w3.org/2000/svg" xmlns:xlink="http://www.w3.org/1999/xlink" width="32" height="32" viewBox="0 0 32 32">
<path fill="#444444" d="M29.632 7.488h-3.072v-1.632h-3.776v1.632h-1.088v-0.256c0-3.136-2.56-5.696-5.696-5.696s-5.696 2.56-5.696 5.696v0.256h-1.088v-1.632h-3.808v1.632h-3.040c-1.312 0-2.368 1.056-2.368 2.368v18.048c0 1.312 1.056 2.368 2.368 2.368h27.264c1.312 0 2.368-1.056 2.368-2.368v-18.048c0-1.312-1.056-2.368-2.368-2.368zM0.544 9.856c0-0.992 0.832-1.824 1.824-1.824h1.28c-0.384 1.504-1.6 2.72-3.104 3.104v-1.28zM2.368 29.728c-0.992 0-1.824-0.832-1.824-1.824v-1.28c1.536 0.384 2.72 1.6 3.104 3.104h-1.28zM5.408 29.728h-1.216c-0.416-1.824-1.856-3.264-3.68-3.68v-14.336c1.824-0.416 3.264-1.856 3.68-3.68h1.216v21.696zM10.848 7.2c0-2.848 2.304-5.152 5.152-5.152s5.152 2.304 5.152 5.152v0.256h-1.632v-0.256c0-1.952-1.568-3.52-3.52-3.52s-3.52 1.568-3.52 3.52v0.256h-1.632v-0.256zM18.976 7.2v0.256h-5.952v-0.256c0-1.632 1.344-2.976 2.976-2.976s2.976 1.344 2.976 2.976zM8.672 29.728h-2.72v-21.696h2.72v21.696zM8.672 7.488h-2.72v-1.088h2.72v1.088zM22.784 29.728h-13.568v-21.696h13.568v21.696zM26.048 29.728h-2.72v-21.696h2.72v21.696zM26.048 7.488h-2.72v-1.088h2.72v1.088zM31.456 27.904c0 0.992-0.832 1.824-1.824 1.824h-1.28c0.384-1.536 1.6-2.72 3.104-3.104v1.28zM31.456 26.048c-1.824 0.416-3.264 1.856-3.68 3.68h-1.216v-21.696h1.216c0.416 1.824 1.856 3.264 3.68 3.68v14.336zM31.456 11.136c-1.536-0.384-2.72-1.6-3.104-3.104h1.28c0.992 0 1.824 0.832 1.824 1.824v1.28zM16.128 22.144h5.024v-5.984h-0.384l0.448-0.224-2.112-4.512-6.528 3.040 0.8 1.696h-0.896v2.976l-0.864-0.352-1.504 3.52 5.056 2.144 0.96-2.304zM13.312 14.752l5.568-2.592 1.664 3.52-1.024 0.48h-5.536l-0.672-1.408zM13.024 16.704h7.584v4.896h-4.224l0.288-0.704-3.648-1.536v-2.656zM10.848 22.016l1.056-2.528 4.064 1.696-0.384 0.928-0.672 1.6-4.064-1.696z"></path>
</svg>
