<?xml version="1.0" encoding="utf-8"?>
<!-- Generated by IcoMoon.io -->
<!DOCTYPE svg PUBLIC "-//W3C//DTD SVG 1.1//EN" "http://www.w3.org/Graphics/SVG/1.1/DTD/svg11.dtd">
<svg version="1.1" xmlns="http://www.w3.org/2000/svg" xmlns:xlink="http://www.w3.org/1999/xlink" width="32" height="32" viewBox="0 0 32 32">
<path fill="#444444" d="M22.080 20.544c-0.32 0-0.608-0.288-0.608-0.608v-3.040c0-0.32 0.256-0.608 0.608-0.608s0.608 0.288 0.608 0.608v3.040c0 0.352-0.288 0.608-0.608 0.608z"></path>
<path fill="#444444" d="M22.080 23.584c-0.32 0-0.608-0.288-0.608-0.608v-3.040c0-0.32 0.256-0.608 0.608-0.608s0.608 0.288 0.608 0.608v3.040c0 0.352-0.288 0.608-0.608 0.608z"></path>
<path fill="#444444" d="M22.080 20.544c-0.096 0-0.192-0.032-0.288-0.096l-2.624-1.504c-0.288-0.16-0.384-0.544-0.224-0.832s0.544-0.384 0.832-0.224l2.624 1.504c0.288 0.16 0.384 0.544 0.224 0.832-0.128 0.224-0.352 0.32-0.544 0.32z"></path>
<path fill="#444444" d="M24.704 22.080c-0.096 0-0.192-0.032-0.288-0.096l-2.656-1.504c-0.288-0.16-0.384-0.544-0.224-0.832s0.544-0.384 0.832-0.224l2.624 1.504c0.288 0.16 0.384 0.544 0.224 0.832-0.096 0.192-0.288 0.32-0.512 0.32z"></path>
<path fill="#444444" d="M22.080 20.544c-0.224 0-0.416-0.096-0.512-0.288-0.16-0.288-0.064-0.672 0.224-0.832l2.624-1.504c0.288-0.16 0.672-0.064 0.832 0.224s0.064 0.672-0.224 0.832l-2.656 1.504c-0.096 0.032-0.192 0.064-0.288 0.064z"></path>
<path fill="#444444" d="M19.456 22.080c-0.224 0-0.416-0.096-0.512-0.288-0.16-0.288-0.064-0.672 0.224-0.832l2.624-1.504c0.288-0.16 0.672-0.064 0.832 0.224s0.064 0.672-0.224 0.832l-2.624 1.504c-0.128 0.032-0.224 0.064-0.32 0.064z"></path>
<path fill="#444444" d="M9.312 20.544c-0.32 0-0.608-0.288-0.608-0.608v-3.040c0-0.32 0.256-0.608 0.608-0.608 0.32 0 0.608 0.288 0.608 0.608v3.040c0 0.352-0.256 0.608-0.608 0.608z"></path>
<path fill="#444444" d="M9.312 23.584c-0.32 0-0.608-0.288-0.608-0.608v-3.040c0-0.32 0.256-0.608 0.608-0.608 0.32 0 0.608 0.288 0.608 0.608v3.040c0 0.352-0.256 0.608-0.608 0.608z"></path>
<path fill="#444444" d="M9.312 20.544c-0.096 0-0.192-0.032-0.288-0.096l-2.624-1.504c-0.288-0.16-0.384-0.544-0.224-0.832s0.544-0.384 0.832-0.224l2.624 1.504c0.288 0.16 0.384 0.544 0.224 0.832-0.128 0.224-0.32 0.32-0.544 0.32z"></path>
<path fill="#444444" d="M11.936 22.080c-0.096 0-0.192-0.032-0.288-0.096l-2.624-1.504c-0.288-0.16-0.384-0.544-0.224-0.832s0.544-0.384 0.832-0.224l2.624 1.504c0.288 0.16 0.384 0.544 0.224 0.832-0.128 0.192-0.32 0.32-0.544 0.32z"></path>
<path fill="#444444" d="M9.312 20.544c-0.224 0-0.416-0.096-0.512-0.288-0.16-0.288-0.064-0.672 0.224-0.832l2.624-1.504c0.288-0.16 0.672-0.064 0.832 0.224s0.064 0.672-0.224 0.832l-2.624 1.504c-0.096 0.032-0.224 0.064-0.32 0.064z"></path>
<path fill="#444444" d="M6.688 22.080c-0.224 0-0.416-0.096-0.512-0.288-0.16-0.288-0.064-0.672 0.224-0.832l2.624-1.504c0.288-0.16 0.672-0.064 0.832 0.224s0.064 0.672-0.224 0.832l-2.624 1.504c-0.128 0.032-0.224 0.064-0.32 0.064z"></path>
<path fill="#444444" d="M22.080 4.736c-0.32 0-0.608-0.288-0.608-0.608v-3.040c0-0.32 0.256-0.608 0.608-0.608s0.608 0.288 0.608 0.608v3.040c0 0.352-0.288 0.608-0.608 0.608z"></path>
<path fill="#444444" d="M22.080 8.576c-0.32 0-0.608-0.288-0.608-0.608v-3.040c0-0.32 0.256-0.608 0.608-0.608s0.608 0.288 0.608 0.608v3.040c0 0.352-0.288 0.608-0.608 0.608z"></path>
<path fill="#444444" d="M22.080 4.736c-0.096 0-0.192-0.032-0.288-0.096l-2.624-1.504c-0.288-0.16-0.384-0.544-0.224-0.832s0.544-0.384 0.832-0.224l2.624 1.504c0.288 0.16 0.384 0.544 0.224 0.832-0.128 0.224-0.352 0.32-0.544 0.32z"></path>
<path fill="#444444" d="M24.704 6.272c-0.096 0-0.192-0.032-0.288-0.096l-2.656-1.504c-0.288-0.16-0.384-0.544-0.224-0.832s0.544-0.384 0.832-0.224l2.624 1.504c0.288 0.16 0.384 0.544 0.224 0.832-0.096 0.192-0.288 0.32-0.512 0.32z"></path>
<path fill="#444444" d="M22.080 4.736c-0.224 0-0.416-0.096-0.512-0.288-0.16-0.288-0.064-0.672 0.224-0.832l2.624-1.504c0.288-0.16 0.672-0.064 0.832 0.224s0.064 0.672-0.224 0.832l-2.624 1.504c-0.128 0.064-0.224 0.064-0.32 0.064z"></path>
<path fill="#444444" d="M19.456 6.272c-0.224 0-0.416-0.096-0.512-0.288-0.16-0.288-0.064-0.672 0.224-0.832l2.624-1.504c0.288-0.16 0.672-0.064 0.832 0.224s0.064 0.672-0.224 0.832l-2.624 1.504c-0.128 0.032-0.224 0.064-0.32 0.064z"></path>
<path fill="#444444" d="M9.312 4.736c-0.32 0-0.608-0.288-0.608-0.608v-3.040c0-0.32 0.256-0.608 0.608-0.608 0.32 0 0.608 0.288 0.608 0.608v3.040c0 0.352-0.256 0.608-0.608 0.608z"></path>
<path fill="#444444" d="M9.312 7.776c-0.32 0-0.608-0.288-0.608-0.608v-3.040c0-0.32 0.256-0.608 0.608-0.608 0.32 0 0.608 0.288 0.608 0.608v3.040c0 0.352-0.256 0.608-0.608 0.608z"></path>
<path fill="#444444" d="M9.312 4.736c-0.096 0-0.192-0.032-0.288-0.096l-2.624-1.504c-0.288-0.16-0.384-0.544-0.224-0.832s0.544-0.384 0.832-0.224l2.624 1.504c0.288 0.16 0.384 0.544 0.224 0.832-0.128 0.224-0.32 0.32-0.544 0.32z"></path>
<path fill="#444444" d="M11.936 6.272c-0.096 0-0.192-0.032-0.288-0.096l-2.624-1.504c-0.288-0.16-0.384-0.544-0.224-0.832s0.544-0.384 0.832-0.224l2.624 1.504c0.288 0.16 0.384 0.544 0.224 0.832-0.128 0.192-0.32 0.32-0.544 0.32z"></path>
<path fill="#444444" d="M9.312 4.736c-0.224 0-0.416-0.096-0.512-0.288-0.16-0.288-0.064-0.672 0.224-0.832l2.624-1.504c0.288-0.192 0.672-0.096 0.832 0.192s0.064 0.672-0.224 0.832l-2.624 1.504c-0.096 0.096-0.224 0.096-0.32 0.096z"></path>
<path fill="#444444" d="M6.688 6.272c-0.224 0-0.416-0.096-0.512-0.288-0.16-0.288-0.064-0.672 0.224-0.832l2.624-1.504c0.288-0.16 0.672-0.064 0.832 0.224s0.064 0.672-0.224 0.832l-2.624 1.504c-0.128 0.032-0.224 0.064-0.32 0.064z"></path>
<path fill="#444444" d="M16 28.48c-0.32 0-0.608-0.288-0.608-0.608v-3.040c0-0.32 0.256-0.608 0.608-0.608s0.608 0.288 0.608 0.608v3.040c0 0.32-0.256 0.608-0.608 0.608z"></path>
<path fill="#444444" d="M16 31.52c-0.32 0-0.608-0.288-0.608-0.608v-3.040c0-0.32 0.256-0.608 0.608-0.608s0.608 0.288 0.608 0.608v3.040c0 0.32-0.256 0.608-0.608 0.608z"></path>
<path fill="#444444" d="M16 28.48c-0.096 0-0.192-0.032-0.288-0.096l-2.656-1.504c-0.288-0.16-0.384-0.544-0.224-0.832s0.544-0.384 0.832-0.224l2.624 1.504c0.288 0.16 0.384 0.544 0.224 0.832-0.096 0.192-0.288 0.32-0.512 0.32z"></path>
<path fill="#444444" d="M18.624 29.984c-0.096 0-0.192-0.032-0.288-0.096l-2.624-1.504c-0.288-0.16-0.384-0.544-0.224-0.832s0.544-0.384 0.832-0.224l2.624 1.504c0.288 0.16 0.384 0.544 0.224 0.832-0.128 0.224-0.32 0.32-0.544 0.32z"></path>
<path fill="#444444" d="M16 28.48c-0.224 0-0.416-0.096-0.512-0.288-0.16-0.288-0.064-0.672 0.224-0.832l2.624-1.504c0.288-0.16 0.672-0.064 0.832 0.224s0.064 0.672-0.224 0.832l-2.624 1.472c-0.096 0.064-0.224 0.096-0.32 0.096z"></path>
<path fill="#444444" d="M13.376 29.984c-0.224 0-0.416-0.096-0.512-0.288-0.16-0.288-0.064-0.672 0.224-0.832l2.624-1.504c0.288-0.16 0.672-0.064 0.832 0.224s0.064 0.672-0.224 0.832l-2.624 1.504c-0.128 0.032-0.224 0.064-0.32 0.064z"></path>
<path fill="#444444" d="M3.232 28.48c-0.32 0-0.608-0.288-0.608-0.608v-3.040c0-0.32 0.256-0.608 0.608-0.608s0.608 0.288 0.608 0.608v3.040c0 0.32-0.256 0.608-0.608 0.608z"></path>
<path fill="#444444" d="M3.232 31.52c-0.32 0-0.608-0.288-0.608-0.608v-3.040c0-0.32 0.256-0.608 0.608-0.608s0.608 0.256 0.608 0.608v3.040c0 0.32-0.256 0.608-0.608 0.608z"></path>
<path fill="#444444" d="M3.232 28.48c-0.096 0-0.192-0.032-0.288-0.096l-2.624-1.504c-0.288-0.16-0.384-0.544-0.224-0.832s0.544-0.384 0.832-0.224l2.624 1.504c0.288 0.16 0.384 0.544 0.224 0.832-0.128 0.192-0.32 0.32-0.544 0.32z"></path>
<path fill="#444444" d="M5.856 29.984c-0.096 0-0.192-0.032-0.288-0.096l-2.624-1.504c-0.288-0.16-0.384-0.544-0.224-0.832s0.544-0.384 0.832-0.224l2.624 1.504c0.288 0.16 0.384 0.544 0.224 0.832-0.128 0.224-0.32 0.32-0.544 0.32z"></path>
<path fill="#444444" d="M3.232 28.48c-0.224 0-0.416-0.096-0.512-0.288-0.16-0.288-0.064-0.672 0.224-0.832l2.624-1.504c0.288-0.16 0.672-0.064 0.832 0.224s0.064 0.672-0.224 0.832l-2.624 1.504c-0.096 0.032-0.224 0.064-0.32 0.064z"></path>
<path fill="#444444" d="M0.608 29.984c-0.224 0-0.416-0.096-0.512-0.288-0.192-0.32-0.096-0.672 0.224-0.832l2.624-1.504c0.288-0.16 0.672-0.064 0.832 0.224s0.064 0.672-0.224 0.832l-2.624 1.504c-0.096 0.032-0.224 0.064-0.32 0.064z"></path>
<path fill="#444444" d="M28.768 28.48c-0.32 0-0.608-0.288-0.608-0.608v-3.040c0-0.32 0.256-0.608 0.608-0.608s0.608 0.288 0.608 0.608v3.040c0 0.32-0.288 0.608-0.608 0.608z"></path>
<path fill="#444444" d="M28.768 31.52c-0.32 0-0.608-0.288-0.608-0.608v-3.040c0-0.32 0.256-0.608 0.608-0.608s0.608 0.288 0.608 0.608v3.040c0 0.32-0.288 0.608-0.608 0.608z"></path>
<path fill="#444444" d="M28.768 28.48c-0.096 0-0.192-0.032-0.288-0.096l-2.656-1.504c-0.288-0.16-0.384-0.544-0.224-0.832s0.544-0.384 0.832-0.224l2.624 1.504c0.288 0.16 0.384 0.544 0.224 0.832-0.096 0.192-0.32 0.32-0.512 0.32z"></path>
<path fill="#444444" d="M31.392 29.984c-0.096 0-0.192-0.032-0.288-0.096l-2.624-1.504c-0.288-0.16-0.384-0.544-0.224-0.832s0.544-0.384 0.832-0.224l2.624 1.504c0.288 0.16 0.384 0.544 0.224 0.832-0.128 0.224-0.32 0.32-0.544 0.32z"></path>
<path fill="#444444" d="M28.768 28.48c-0.224 0-0.416-0.096-0.512-0.288-0.16-0.288-0.064-0.672 0.224-0.832l2.624-1.504c0.288-0.16 0.672-0.064 0.832 0.224s0.064 0.672-0.224 0.832l-2.624 1.504c-0.128 0.032-0.224 0.064-0.32 0.064z"></path>
<path fill="#444444" d="M26.144 29.984c-0.224 0-0.416-0.096-0.512-0.288-0.16-0.288-0.064-0.672 0.224-0.832l2.624-1.504c0.288-0.16 0.672-0.064 0.832 0.224s0.064 0.672-0.224 0.832l-2.624 1.504c-0.128 0.032-0.224 0.064-0.32 0.064z"></path>
<path fill="#444444" d="M16 12.672c-0.32 0-0.608-0.288-0.608-0.608v-3.040c0-0.32 0.256-0.608 0.608-0.608s0.608 0.288 0.608 0.608v3.040c0 0.32-0.256 0.608-0.608 0.608z"></path>
<path fill="#444444" d="M16 15.712c-0.32 0-0.608-0.288-0.608-0.608v-3.040c0-0.32 0.256-0.608 0.608-0.608s0.608 0.288 0.608 0.608v3.040c0 0.32-0.256 0.608-0.608 0.608z"></path>
<path fill="#444444" d="M16 12.672c-0.096 0-0.192-0.032-0.288-0.096l-2.624-1.504c-0.288-0.16-0.384-0.544-0.224-0.832s0.544-0.384 0.832-0.224l2.624 1.504c0.288 0.16 0.384 0.544 0.224 0.832-0.128 0.192-0.32 0.32-0.544 0.32z"></path>
<path fill="#444444" d="M18.624 14.176c-0.096 0-0.192-0.032-0.288-0.096l-2.624-1.504c-0.288-0.16-0.384-0.544-0.224-0.832s0.544-0.384 0.832-0.224l2.624 1.504c0.288 0.16 0.384 0.544 0.224 0.832-0.128 0.224-0.32 0.32-0.544 0.32z"></path>
<path fill="#444444" d="M16 12.672c-0.224 0-0.416-0.096-0.512-0.288-0.16-0.288-0.064-0.672 0.224-0.832l2.624-1.504c0.288-0.16 0.672-0.064 0.832 0.224s0.064 0.672-0.224 0.832l-2.624 1.472c-0.096 0.064-0.224 0.096-0.32 0.096z"></path>
<path fill="#444444" d="M13.376 14.176c-0.224 0-0.416-0.096-0.512-0.288-0.16-0.288-0.064-0.672 0.224-0.832l2.624-1.504c0.288-0.16 0.672-0.064 0.832 0.224s0.064 0.672-0.224 0.832l-2.624 1.504c-0.128 0.064-0.224 0.064-0.32 0.064z"></path>
<path fill="#444444" d="M3.232 12.672c-0.32 0-0.608-0.288-0.608-0.608v-3.040c0-0.32 0.256-0.608 0.608-0.608s0.608 0.288 0.608 0.608v3.040c0 0.32-0.256 0.608-0.608 0.608z"></path>
<path fill="#444444" d="M3.232 15.712c-0.32 0-0.608-0.288-0.608-0.608v-3.040c0-0.32 0.256-0.608 0.608-0.608s0.608 0.288 0.608 0.608v3.040c0 0.32-0.256 0.608-0.608 0.608z"></path>
<path fill="#444444" d="M3.232 12.672c-0.096 0-0.192-0.032-0.288-0.096l-2.624-1.504c-0.32-0.16-0.416-0.544-0.224-0.832 0.16-0.288 0.544-0.384 0.832-0.224l2.624 1.504c0.288 0.16 0.384 0.544 0.224 0.832-0.128 0.192-0.32 0.32-0.544 0.32z"></path>
<path fill="#444444" d="M5.856 14.176c-0.096 0-0.192-0.032-0.288-0.096l-2.624-1.504c-0.288-0.16-0.384-0.544-0.224-0.832s0.544-0.384 0.832-0.224l2.624 1.504c0.288 0.16 0.384 0.544 0.224 0.832-0.128 0.224-0.32 0.32-0.544 0.32z"></path>
<path fill="#444444" d="M3.232 12.672c-0.224 0-0.416-0.096-0.512-0.288-0.16-0.32-0.064-0.672 0.224-0.864l2.624-1.504c0.288-0.16 0.672-0.064 0.832 0.224s0.064 0.672-0.224 0.832l-2.624 1.504c-0.096 0.064-0.224 0.096-0.32 0.096z"></path>
<path fill="#444444" d="M0.608 14.176c-0.224 0-0.416-0.096-0.512-0.288-0.192-0.288-0.096-0.672 0.224-0.832l2.624-1.536c0.288-0.16 0.672-0.064 0.832 0.224s0.064 0.672-0.224 0.832l-2.624 1.504c-0.096 0.096-0.224 0.096-0.32 0.096z"></path>
<path fill="#444444" d="M28.768 12.672c-0.32 0-0.608-0.288-0.608-0.608v-3.040c0-0.32 0.256-0.608 0.608-0.608s0.608 0.288 0.608 0.608v3.040c0 0.32-0.288 0.608-0.608 0.608z"></path>
<path fill="#444444" d="M28.768 15.712c-0.32 0-0.608-0.288-0.608-0.608v-3.040c0-0.32 0.256-0.608 0.608-0.608s0.608 0.288 0.608 0.608v3.040c0 0.32-0.288 0.608-0.608 0.608z"></path>
<path fill="#444444" d="M28.768 12.672c-0.096 0-0.192-0.032-0.288-0.096l-2.624-1.504c-0.288-0.16-0.384-0.544-0.224-0.832s0.544-0.384 0.832-0.224l2.624 1.504c0.288 0.16 0.384 0.544 0.224 0.832-0.128 0.192-0.352 0.32-0.544 0.32z"></path>
<path fill="#444444" d="M31.392 14.176c-0.096 0-0.192-0.032-0.288-0.096l-2.624-1.504c-0.288-0.16-0.384-0.544-0.224-0.832s0.544-0.384 0.832-0.224l2.624 1.504c0.288 0.16 0.384 0.544 0.224 0.832-0.128 0.224-0.32 0.32-0.544 0.32z"></path>
<path fill="#444444" d="M28.768 12.672c-0.224 0-0.416-0.096-0.512-0.288-0.16-0.288-0.064-0.672 0.224-0.832l2.624-1.504c0.288-0.16 0.672-0.064 0.832 0.224s0.064 0.672-0.224 0.832l-2.624 1.504c-0.128 0.032-0.224 0.064-0.32 0.064z"></path>
<path fill="#444444" d="M26.144 14.176c-0.224 0-0.416-0.096-0.512-0.288-0.16-0.288-0.064-0.672 0.224-0.832l2.624-1.504c0.288-0.16 0.672-0.064 0.832 0.224s0.064 0.672-0.224 0.832l-2.624 1.504c-0.128 0.064-0.224 0.064-0.32 0.064z"></path>
</svg>
