<?xml version="1.0" encoding="utf-8"?>
<!-- Generated by IcoMoon.io -->
<!DOCTYPE svg PUBLIC "-//W3C//DTD SVG 1.1//EN" "http://www.w3.org/Graphics/SVG/1.1/DTD/svg11.dtd">
<svg version="1.1" xmlns="http://www.w3.org/2000/svg" xmlns:xlink="http://www.w3.org/1999/xlink" width="32" height="32" viewBox="0 0 32 32">
<path fill="#444444" d="M0.64 17.92c-0.352 0-0.64-0.288-0.64-0.64 0-3.168 2.592-5.76 5.76-5.76h14.080c2.464 0 4.48-2.016 4.48-4.48s-2.016-4.48-4.48-4.48c-0.352 0-0.64-0.288-0.64-0.64s0.288-0.64 0.64-0.64c3.168 0 5.76 2.592 5.76 5.76s-2.592 5.76-5.76 5.76h-14.080c-2.464 0-4.48 2.016-4.48 4.48 0 0.352-0.288 0.64-0.64 0.64z"></path>
<path fill="#444444" d="M24.32 30.72c-0.352 0-0.64-0.288-0.64-0.64s0.288-0.64 0.64-0.64c2.464 0 4.48-2.016 4.48-4.48s-2.016-4.48-4.48-4.48h-12.8c-0.352 0-0.64-0.288-0.64-0.64s0.288-0.64 0.64-0.64h12.8c3.168 0 5.76 2.592 5.76 5.76s-2.592 5.76-5.76 5.76z"></path>
<path fill="#444444" d="M19.84 10.24c-0.352 0-0.64-0.288-0.64-0.64s0.288-0.64 0.64-0.64c1.056 0 1.92-0.864 1.92-1.92s-0.864-1.92-1.92-1.92c-1.056 0-1.92 0.864-1.92 1.92 0 0.352-0.288 0.64-0.64 0.64s-0.64-0.288-0.64-0.64c0-1.76 1.44-3.2 3.2-3.2s3.2 1.44 3.2 3.2-1.44 3.2-3.2 3.2z"></path>
<path fill="#444444" d="M24.32 28.16c-1.76 0-3.2-1.44-3.2-3.2 0-0.352 0.288-0.64 0.64-0.64s0.64 0.288 0.64 0.64c0 1.056 0.864 1.92 1.92 1.92s1.92-0.864 1.92-1.92-0.864-1.92-1.92-1.92c-0.352 0-0.64-0.288-0.64-0.64s0.288-0.64 0.64-0.64c1.76 0 3.2 1.44 3.2 3.2s-1.44 3.2-3.2 3.2z"></path>
<path fill="#444444" d="M20.48 23.040h-3.84c-0.352 0-0.64-0.288-0.64-0.64s0.288-0.64 0.64-0.64h3.84c0.352 0 0.64 0.288 0.64 0.64s-0.288 0.64-0.64 0.64z"></path>
<path fill="#444444" d="M17.28 10.24h-3.84c-0.352 0-0.64-0.288-0.64-0.64s0.288-0.64 0.64-0.64h3.84c0.352 0 0.64 0.288 0.64 0.64s-0.288 0.64-0.64 0.64z"></path>
<path fill="#444444" d="M25.6 15.36h-19.84c-0.352 0-0.64-0.288-0.64-0.64s0.288-0.64 0.64-0.64h19.84c0.352 0 0.64 0.288 0.64 0.64s-0.288 0.64-0.64 0.64z"></path>
<path fill="#444444" d="M31.36 17.92h-23.040c-0.352 0-0.64-0.288-0.64-0.64s0.288-0.64 0.64-0.64h23.040c0.352 0 0.64 0.288 0.64 0.64s-0.288 0.64-0.64 0.64z"></path>
</svg>
