<?xml version="1.0" encoding="utf-8"?>
<!-- Generated by IcoMoon.io -->
<!DOCTYPE svg PUBLIC "-//W3C//DTD SVG 1.1//EN" "http://www.w3.org/Graphics/SVG/1.1/DTD/svg11.dtd">
<svg version="1.1" xmlns="http://www.w3.org/2000/svg" xmlns:xlink="http://www.w3.org/1999/xlink" width="32" height="32" viewBox="0 0 32 32">
<path fill="#444444" d="M30.624 30.016l-8-8.576c2.016-2.272 3.232-5.312 3.232-8.608 0-7.040-5.568-12.8-12.416-12.8s-12.416 5.728-12.416 12.8c0 7.040 5.568 12.8 12.416 12.8 2.816 0 5.408-0.96 7.488-2.592l8.032 8.64c0.224 0.224 0.512 0.352 0.8 0.352s0.576-0.096 0.768-0.32c0.512-0.512 0.544-1.248 0.096-1.696zM3.296 12.8c0-5.76 4.544-10.464 10.144-10.464s10.144 4.704 10.144 10.464c0 5.76-4.544 10.464-10.144 10.464-5.568 0-10.144-4.672-10.144-10.464z"></path>
</svg>
