<?xml version="1.0" encoding="utf-8"?>
<!-- Generated by IcoMoon.io -->
<!DOCTYPE svg PUBLIC "-//W3C//DTD SVG 1.1//EN" "http://www.w3.org/Graphics/SVG/1.1/DTD/svg11.dtd">
<svg version="1.1" xmlns="http://www.w3.org/2000/svg" xmlns:xlink="http://www.w3.org/1999/xlink" width="32" height="32" viewBox="0 0 32 32">
<path fill="#444444" d="M14.4 22.72c-0.096 0-0.192-0.032-0.288-0.064-0.288-0.16-0.416-0.544-0.256-0.864l1.28-2.304c0.16-0.288 0.544-0.416 0.864-0.256 0.288 0.16 0.416 0.544 0.256 0.864l-1.28 2.304c-0.128 0.192-0.352 0.32-0.576 0.32z"></path>
<path fill="#444444" d="M16.96 18.080c-0.096 0-0.192-0.032-0.288-0.064-0.288-0.16-0.416-0.544-0.256-0.864l1.28-2.304c0.16-0.288 0.544-0.416 0.864-0.256 0.288 0.16 0.416 0.544 0.256 0.864l-1.28 2.304c-0.128 0.192-0.352 0.32-0.576 0.32z"></path>
<path fill="#444444" d="M16.544 27.968c-0.096 0-0.192-0.032-0.288-0.064-0.288-0.16-0.416-0.544-0.256-0.864l1.28-2.304c0.16-0.288 0.544-0.416 0.864-0.256 0.288 0.16 0.416 0.544 0.256 0.864l-1.28 2.304c-0.128 0.192-0.352 0.32-0.576 0.32z"></path>
<path fill="#444444" d="M19.136 23.328c-0.096 0-0.192-0.032-0.288-0.064-0.288-0.16-0.416-0.544-0.256-0.864l1.28-2.304c0.16-0.288 0.544-0.416 0.864-0.256 0.288 0.16 0.416 0.544 0.256 0.864l-1.28 2.304c-0.16 0.192-0.384 0.32-0.576 0.32z"></path>
<path fill="#444444" d="M9.664 22.112c-0.096 0-0.192-0.032-0.288-0.064-0.288-0.16-0.416-0.544-0.256-0.864l1.28-2.304c0.16-0.288 0.544-0.416 0.864-0.256 0.288 0.16 0.416 0.544 0.256 0.864l-1.28 2.304c-0.128 0.224-0.352 0.32-0.576 0.32z"></path>
<path fill="#444444" d="M7.104 26.752c-0.096 0-0.192-0.032-0.288-0.064-0.288-0.16-0.416-0.544-0.256-0.864l1.28-2.304c0.16-0.288 0.544-0.416 0.864-0.256 0.288 0.16 0.416 0.544 0.256 0.864l-1.28 2.304c-0.128 0.224-0.352 0.32-0.576 0.32z"></path>
<path fill="#444444" d="M11.84 27.36c-0.096 0-0.192-0.032-0.288-0.064-0.288-0.16-0.416-0.544-0.256-0.864l1.28-2.304c0.16-0.288 0.544-0.416 0.864-0.256 0.288 0.16 0.416 0.544 0.256 0.864l-1.28 2.304c-0.16 0.192-0.352 0.32-0.576 0.32z"></path>
<path fill="#444444" d="M9.248 32c-0.096 0-0.192-0.032-0.288-0.064-0.288-0.16-0.416-0.544-0.256-0.864l1.28-2.304c0.16-0.288 0.544-0.416 0.864-0.256 0.288 0.16 0.416 0.544 0.256 0.864l-1.28 2.304c-0.128 0.192-0.352 0.32-0.576 0.32z"></path>
<path fill="#444444" d="M12.256 17.472c-0.096 0-0.192-0.032-0.288-0.064-0.288-0.16-0.416-0.544-0.256-0.864l1.28-2.304c0.16-0.288 0.544-0.416 0.864-0.256 0.288 0.16 0.416 0.544 0.256 0.864l-1.28 2.304c-0.16 0.224-0.352 0.32-0.576 0.32z"></path>
<path fill="#444444" d="M23.84 23.904c-0.096 0-0.192-0.032-0.288-0.064-0.288-0.16-0.416-0.544-0.256-0.864l1.28-2.304c0.16-0.288 0.544-0.416 0.864-0.256 0.288 0.16 0.416 0.544 0.256 0.864l-1.28 2.304c-0.128 0.224-0.352 0.32-0.576 0.32z"></path>
<path fill="#444444" d="M26.432 19.264c-0.096 0-0.192-0.032-0.288-0.064-0.288-0.16-0.416-0.544-0.256-0.864l1.28-2.304c0.16-0.288 0.544-0.416 0.864-0.256 0.288 0.16 0.416 0.544 0.256 0.864l-1.28 2.304c-0.16 0.224-0.384 0.32-0.576 0.32z"></path>
<path fill="#444444" d="M22.112 8.8c-0.096 0-0.192-0.032-0.288-0.064-0.288-0.16-0.416-0.544-0.256-0.864l1.28-2.304c0.16-0.288 0.544-0.416 0.864-0.256 0.288 0.16 0.416 0.544 0.256 0.864l-1.28 2.304c-0.128 0.224-0.352 0.32-0.576 0.32z"></path>
<path fill="#444444" d="M24.672 4.16c-0.096 0-0.192-0.032-0.288-0.064-0.288-0.16-0.416-0.544-0.256-0.864l1.28-2.304c0.16-0.288 0.544-0.416 0.864-0.256 0.288 0.16 0.416 0.544 0.256 0.864l-1.28 2.304c-0.128 0.224-0.352 0.32-0.576 0.32z"></path>
<path fill="#444444" d="M21.696 18.688c-0.096 0-0.192-0.032-0.288-0.064-0.288-0.16-0.416-0.544-0.256-0.864l1.28-2.304c0.16-0.288 0.544-0.416 0.864-0.256 0.288 0.16 0.416 0.544 0.256 0.864l-1.28 2.304c-0.16 0.192-0.352 0.32-0.576 0.32z"></path>
<path fill="#444444" d="M24.256 14.048c-0.096 0-0.192-0.032-0.288-0.064-0.288-0.16-0.416-0.544-0.256-0.864l1.28-2.304c0.16-0.288 0.544-0.416 0.864-0.256 0.288 0.16 0.416 0.544 0.256 0.864l-1.28 2.304c-0.128 0.192-0.352 0.32-0.576 0.32z"></path>
<path fill="#444444" d="M17.408 8.224c-0.096 0-0.192-0.032-0.288-0.064-0.288-0.16-0.416-0.544-0.256-0.864l1.28-2.304c0.16-0.288 0.544-0.416 0.864-0.256 0.288 0.16 0.416 0.544 0.256 0.864l-1.28 2.304c-0.16 0.192-0.384 0.32-0.576 0.32z"></path>
<path fill="#444444" d="M14.816 12.832c-0.096 0-0.192-0.032-0.288-0.064-0.288-0.16-0.416-0.544-0.256-0.864l1.28-2.304c0.16-0.288 0.544-0.416 0.864-0.256 0.288 0.16 0.416 0.544 0.256 0.864l-1.28 2.304c-0.128 0.224-0.352 0.32-0.576 0.32z"></path>
<path fill="#444444" d="M5.824 19.968c-0.096 0-0.192-0.032-0.288-0.064-0.288-0.16-0.416-0.544-0.256-0.864l1.28-2.304c0.16-0.288 0.544-0.416 0.864-0.256 0.288 0.16 0.416 0.544 0.256 0.864l-1.28 2.304c-0.16 0.224-0.352 0.32-0.576 0.32z"></path>
<path fill="#444444" d="M8.384 15.328c-0.096 0-0.192-0.032-0.288-0.064-0.32-0.16-0.416-0.544-0.256-0.864l1.28-2.304c0.16-0.288 0.544-0.416 0.864-0.256 0.288 0.16 0.416 0.544 0.256 0.864l-1.28 2.304c-0.128 0.224-0.352 0.32-0.576 0.32z"></path>
<path fill="#444444" d="M13.536 6.080c-0.096 0-0.192-0.032-0.288-0.064-0.288-0.16-0.416-0.544-0.256-0.864l1.28-2.304c0.16-0.288 0.544-0.416 0.864-0.256 0.288 0.16 0.416 0.544 0.256 0.864l-1.312 2.304c-0.128 0.192-0.32 0.32-0.544 0.32z"></path>
<path fill="#444444" d="M10.944 10.72c-0.096 0-0.192-0.032-0.288-0.064-0.288-0.16-0.416-0.544-0.256-0.864l1.28-2.304c0.16-0.288 0.544-0.416 0.864-0.256 0.288 0.16 0.416 0.544 0.256 0.864l-1.28 2.304c-0.128 0.192-0.352 0.32-0.576 0.32z"></path>
<path fill="#444444" d="M19.552 13.44c-0.096 0-0.192-0.032-0.288-0.064-0.288-0.16-0.416-0.544-0.256-0.864l1.28-2.304c0.16-0.288 0.544-0.416 0.864-0.256 0.288 0.16 0.416 0.544 0.256 0.864l-1.28 2.304c-0.16 0.224-0.352 0.32-0.576 0.32z"></path>
<path fill="#444444" d="M19.968 3.584c-0.096 0-0.192-0.032-0.288-0.064-0.288-0.16-0.416-0.544-0.256-0.864l1.28-2.304c0.16-0.288 0.544-0.416 0.864-0.256 0.288 0.16 0.416 0.544 0.256 0.864l-1.28 2.304c-0.16 0.192-0.352 0.32-0.576 0.32z"></path>
</svg>
