<?xml version="1.0" encoding="utf-8"?>
<!-- Generated by IcoMoon.io -->
<!DOCTYPE svg PUBLIC "-//W3C//DTD SVG 1.1//EN" "http://www.w3.org/Graphics/SVG/1.1/DTD/svg11.dtd">
<svg version="1.1" xmlns="http://www.w3.org/2000/svg" xmlns:xlink="http://www.w3.org/1999/xlink" width="32" height="32" viewBox="0 0 32 32">
<path fill="#444444" d="M27.776 24.128l0.448 2.272c0.032 0.16 0 0.32-0.096 0.448s-0.256 0.192-0.416 0.192h-1.056c-0.128 0-0.288-0.064-0.384-0.16l-2.496-2.528h-14.528l-2.496 2.528c-0.096 0.096-0.224 0.16-0.384 0.16h-1.056c-0.16 0-0.32-0.064-0.416-0.192s-0.128-0.288-0.096-0.448l0.416-2.080c-2.912-0.256-5.216-2.72-5.216-5.728v-5.792c0-0.832 0.544-1.536 1.312-1.792 0.032-0.032 0.032-0.032 0.064-0.032l3.424-1.536v-2.88c0-0.864 0.704-1.568 1.568-1.568h19.264c0.864 0 1.568 0.704 1.568 1.568v2.848l3.424 1.536c0.032 0 0.064 0.032 0.064 0.064 0.768 0.256 1.312 0.96 1.312 1.792v5.792c-0.032 2.592-1.824 4.832-4.224 5.536zM26.848 25.952h0.192l-0.32-1.6h-1.472l1.6 1.6zM6.144 25.952l1.6-1.6h-1.472l-0.32 1.6h0.192zM3.040 11.36l0.032 0.032c0.064 0.064 0.096 0.096 0.16 0.16 0.032 0.032 0.064 0.064 0.096 0.128s0.096 0.128 0.128 0.192c0.032 0.032 0.064 0.096 0.064 0.128 0.032 0.064 0.064 0.16 0.096 0.256 0 0.032 0.032 0.096 0.032 0.128 0.032 0.128 0.032 0.256 0.032 0.384v4.352c0.064-0.032 0.128-0.064 0.192-0.096s0.128-0.096 0.192-0.128c0.064-0.032 0.128-0.064 0.192-0.096 0.128-0.064 0.288-0.128 0.416-0.192 0.032 0 0.032-0.032 0.064-0.032v-5.952l-1.696 0.736zM26.496 17.504c-0.096-0.032-0.192-0.032-0.256-0.064-0.064 0-0.128-0.032-0.192-0.032-0.16-0.032-0.32-0.032-0.48-0.032h-7.872c-0.672 0-1.184 0.544-1.184 1.216v2.016h9.76c1.088 0 1.984-0.896 1.984-2.016v-0.064c-0.096-0.096-0.16-0.16-0.256-0.256 0 0 0 0-0.032-0.032-0.128-0.096-0.256-0.192-0.416-0.288-0.032-0.032-0.064-0.032-0.096-0.064-0.288-0.16-0.608-0.32-0.96-0.384zM15.424 18.56c0-0.672-0.544-1.216-1.184-1.216h-7.872c-0.16 0-0.32 0-0.48 0.032-0.064 0-0.128 0.032-0.224 0.032-0.096 0.032-0.16 0.032-0.256 0.064-0.352 0.096-0.672 0.224-0.96 0.416-0.032 0-0.064 0.032-0.064 0.032-0.128 0.096-0.288 0.192-0.416 0.288v0c-0.096 0.064-0.16 0.16-0.256 0.256v0.064c0 1.12 0.896 2.016 1.984 2.016h9.76l-0.032-1.984zM26.112 6.56c0-0.288-0.224-0.512-0.512-0.512h-19.264c-0.288 0-0.512 0.224-0.512 0.512v9.728c0.192-0.032 0.352-0.032 0.544-0.032h7.872c0.704 0 1.312 0.32 1.728 0.8 0.416-0.512 1.024-0.8 1.728-0.8h7.872c0.16 0 0.352 0 0.544 0.032v-9.728zM27.168 10.592v5.952c0.032 0 0.032 0.032 0.064 0.032 0.128 0.064 0.288 0.128 0.416 0.192 0.064 0.032 0.128 0.064 0.224 0.128 0.064 0.032 0.128 0.064 0.192 0.128 0.064 0.032 0.128 0.064 0.192 0.096v-4.32c0-0.128 0.032-0.256 0.032-0.384 0-0.032 0.032-0.064 0.032-0.128 0.032-0.096 0.064-0.16 0.096-0.256 0.032-0.032 0.032-0.096 0.064-0.128 0.032-0.064 0.064-0.128 0.128-0.192 0.032-0.032 0.064-0.064 0.096-0.128s0.096-0.128 0.16-0.16l0.032-0.032-1.728-0.8zM30.912 12.8c0-0.448-0.352-0.8-0.8-0.8s-0.8 0.352-0.8 0.8v5.792c0 1.696-1.376 3.072-3.040 3.072h-20.576c-1.696 0-3.040-1.376-3.040-3.072v-5.792c0-0.448-0.352-0.8-0.8-0.8s-0.8 0.352-0.8 0.8v5.792c0 2.592 2.080 4.704 4.64 4.704h20.576c2.56 0 4.64-2.112 4.64-4.704v-5.792zM17.568 10.912c-0.288 0-0.544-0.256-0.544-0.544s0.224-0.544 0.544-0.544 0.544 0.256 0.544 0.544-0.256 0.544-0.544 0.544zM16.512 12.512c-0.288 0-0.544-0.256-0.544-0.544s0.224-0.544 0.544-0.544c0.288 0 0.544 0.256 0.544 0.544-0.032 0.32-0.256 0.544-0.544 0.544zM15.424 10.912c-0.288 0-0.544-0.256-0.544-0.544s0.224-0.544 0.544-0.544 0.544 0.256 0.544 0.544-0.224 0.544-0.544 0.544zM14.368 12.512c-0.288 0-0.544-0.256-0.544-0.544s0.224-0.544 0.544-0.544c0.288 0 0.544 0.256 0.544 0.544 0 0.32-0.256 0.544-0.544 0.544zM13.312 10.912c-0.288 0-0.544-0.256-0.544-0.544s0.224-0.544 0.544-0.544 0.544 0.256 0.544 0.544-0.256 0.544-0.544 0.544z"></path>
</svg>
