<?xml version="1.0" encoding="utf-8"?>
<!-- Generated by IcoMoon.io -->
<!DOCTYPE svg PUBLIC "-//W3C//DTD SVG 1.1//EN" "http://www.w3.org/Graphics/SVG/1.1/DTD/svg11.dtd">
<svg version="1.1" xmlns="http://www.w3.org/2000/svg" xmlns:xlink="http://www.w3.org/1999/xlink" width="32" height="32" viewBox="0 0 32 32">
<path fill="#444444" d="M16 27.2c-6.176 0-11.2-5.024-11.2-11.2s5.024-11.2 11.2-11.2 11.2 5.024 11.2 11.2-5.024 11.2-11.2 11.2zM16 5.888c-5.6 0-10.112 4.544-10.112 10.112s4.512 10.112 10.112 10.112 10.112-4.512 10.112-10.112-4.512-10.112-10.112-10.112z"></path>
<path fill="#444444" d="M16 24.544c-4.704 0-8.544-3.84-8.544-8.544s3.84-8.544 8.544-8.544 8.544 3.84 8.544 8.544-3.84 8.544-8.544 8.544zM16 8.544c-4.128 0-7.456 3.36-7.456 7.456s3.328 7.456 7.456 7.456 7.456-3.328 7.456-7.456-3.328-7.456-7.456-7.456z"></path>
<path fill="#444444" d="M16 4.288c-0.288 0-0.544-0.224-0.544-0.544v-3.2c0-0.288 0.256-0.544 0.544-0.544s0.544 0.224 0.544 0.544v3.2c0 0.288-0.256 0.544-0.544 0.544z"></path>
<path fill="#444444" d="M16 32c-0.288 0-0.544-0.224-0.544-0.544v-3.2c0-0.288 0.224-0.544 0.544-0.544s0.544 0.224 0.544 0.544v3.2c0 0.288-0.256 0.544-0.544 0.544z"></path>
<path fill="#444444" d="M31.456 16.544h-3.2c-0.288 0-0.544-0.224-0.544-0.544s0.224-0.544 0.544-0.544h3.2c0.288 0 0.544 0.224 0.544 0.544s-0.256 0.544-0.544 0.544z"></path>
<path fill="#444444" d="M3.744 16.544h-3.2c-0.288 0-0.544-0.256-0.544-0.544s0.224-0.544 0.544-0.544h3.2c0.288 0 0.544 0.224 0.544 0.544s-0.256 0.544-0.544 0.544z"></path>
<path fill="#444444" d="M24.672 7.872c-0.128 0-0.288-0.064-0.384-0.16-0.224-0.224-0.224-0.544 0-0.768l3.072-3.072c0.224-0.224 0.544-0.224 0.768 0s0.224 0.544 0 0.768l-3.072 3.072c-0.128 0.096-0.256 0.16-0.384 0.16z"></path>
<path fill="#444444" d="M4.288 28.256c-0.128 0-0.288-0.064-0.384-0.16-0.224-0.224-0.224-0.544 0-0.768l3.072-3.072c0.224-0.224 0.544-0.224 0.768 0s0.224 0.544 0 0.768l-3.072 3.072c-0.128 0.096-0.256 0.16-0.384 0.16z"></path>
<path fill="#444444" d="M27.712 28.256c-0.128 0-0.288-0.064-0.384-0.16l-3.072-3.072c-0.224-0.224-0.224-0.544 0-0.768s0.544-0.224 0.768 0l3.072 3.072c0.224 0.224 0.224 0.544 0 0.768-0.096 0.096-0.224 0.16-0.384 0.16z"></path>
<path fill="#444444" d="M7.328 7.872c-0.128 0-0.288-0.064-0.384-0.16l-3.072-3.072c-0.224-0.224-0.224-0.544 0-0.768s0.544-0.224 0.768 0l3.072 3.072c0.224 0.224 0.224 0.544 0 0.768-0.096 0.096-0.256 0.16-0.384 0.16z"></path>
<path fill="#444444" d="M27.296 11.744c-0.192 0-0.416-0.128-0.48-0.32-0.128-0.256 0-0.576 0.288-0.704l1.472-0.64c0.256-0.128 0.576 0 0.704 0.288 0.128 0.256 0 0.576-0.288 0.704l-1.472 0.64c-0.096 0.032-0.16 0.032-0.224 0.032z"></path>
<path fill="#444444" d="M3.232 21.952c-0.192 0-0.416-0.128-0.48-0.32-0.128-0.256 0-0.576 0.288-0.704l1.472-0.64c0.256-0.128 0.576 0 0.704 0.288 0.128 0.256 0 0.576-0.288 0.704l-1.472 0.64c-0.064 0-0.128 0.032-0.224 0.032z"></path>
<path fill="#444444" d="M28.864 21.728c-0.064 0-0.128 0-0.192-0.032l-1.472-0.608c-0.288-0.096-0.416-0.416-0.288-0.704 0.096-0.288 0.416-0.416 0.704-0.288l1.472 0.608c0.288 0.096 0.416 0.416 0.288 0.704-0.128 0.192-0.32 0.32-0.512 0.32z"></path>
<path fill="#444444" d="M4.64 11.936c-0.064 0-0.128 0-0.192-0.032l-1.472-0.608c-0.288-0.096-0.416-0.416-0.32-0.672 0.096-0.288 0.416-0.416 0.704-0.288l1.472 0.608c0.288 0.096 0.416 0.416 0.288 0.704-0.064 0.16-0.288 0.288-0.48 0.288z"></path>
<path fill="#444444" d="M21.408 29.28c-0.192 0-0.416-0.128-0.48-0.32l-0.64-1.472c-0.128-0.256 0-0.576 0.288-0.704 0.256-0.128 0.576 0 0.704 0.288l0.64 1.472c0.128 0.256 0 0.576-0.288 0.704-0.064 0.032-0.16 0.032-0.224 0.032z"></path>
<path fill="#444444" d="M11.2 5.248c-0.192 0-0.416-0.128-0.48-0.32l-0.64-1.472c-0.128-0.256 0-0.576 0.288-0.704 0.256-0.128 0.576 0 0.704 0.288l0.64 1.472c0.128 0.256 0 0.576-0.288 0.704-0.064 0.032-0.16 0.032-0.224 0.032z"></path>
<path fill="#444444" d="M10.816 29.376c-0.064 0-0.128 0-0.192-0.032-0.288-0.096-0.416-0.416-0.288-0.704l0.608-1.472c0.096-0.288 0.416-0.416 0.704-0.288 0.288 0.096 0.416 0.416 0.288 0.704l-0.608 1.472c-0.096 0.192-0.32 0.32-0.512 0.32z"></path>
<path fill="#444444" d="M20.608 5.152c-0.064 0-0.128 0-0.192-0.032-0.288-0.096-0.416-0.416-0.288-0.704l0.608-1.472c0.064-0.256 0.384-0.384 0.64-0.288 0.288 0.096 0.416 0.416 0.288 0.704l-0.608 1.472c-0.064 0.224-0.256 0.32-0.448 0.32z"></path>
</svg>
