<svg xmlns="http://www.w3.org/2000/svg" xmlns:xlink="http://www.w3.org/1999/xlink" preserveAspectRatio="xMidYMid" width="162" height="107" viewBox="0 0 162 107">
  <defs>
    <style>
      .cls-1 {
        fill: #fff;
        filter: url(#drop-shadow-1);
        fill-rule: evenodd;
      }
    </style>

    <filter id="drop-shadow-1" filterUnits="userSpaceOnUse">
      <feOffset dy="2" in="SourceAlpha"/>
      <feGaussianBlur stdDeviation="2.449" result="dropBlur"/>
      <feFlood flood-opacity="0.4"/>
      <feComposite operator="in" in2="dropBlur" result="dropShadowComp"/>
      <feComposite in="SourceGraphic" result="shadowed"/>
    </filter>
  </defs>
  <path d="M153.390,55.874 C153.027,60.307 150.698,60.649 141.183,60.649 C140.776,60.649 140.355,60.645 139.922,60.644 L137.529,8.547 C137.419,5.878 139.589,5.522 153.228,5.522 C154.142,5.522 155.109,5.495 156.129,5.495 C156.131,5.495 156.133,5.495 156.135,5.495 C156.141,5.495 156.147,5.495 156.154,5.495 C156.291,5.495 156.561,5.533 156.485,5.863 C156.403,6.214 153.390,55.874 153.390,55.874 ZM136.810,80.827 C136.796,87.315 139.737,90.247 146.346,90.247 L146.377,90.247 C146.501,90.247 146.620,90.223 146.743,90.220 L148.406,95.681 C148.627,96.444 148.559,97.054 148.197,97.567 C147.484,98.579 145.627,99.078 141.790,99.291 C140.141,99.380 137.924,99.498 134.964,99.498 C134.580,99.498 134.184,99.495 133.775,99.491 L133.254,99.485 L128.305,80.755 L113.145,81.591 L110.500,97.957 C110.098,100.313 109.114,101.092 103.741,101.388 C102.483,101.457 100.784,101.498 99.197,101.498 C97.649,101.498 96.223,101.461 94.960,101.388 L94.169,101.344 L110.820,18.347 C111.286,15.287 115.464,15.059 116.836,14.984 C117.921,14.923 118.938,14.893 119.868,14.893 C121.305,14.893 122.534,14.966 123.483,15.111 L123.909,15.177 L141.352,72.501 C138.365,74.252 136.818,77.555 136.810,80.827 ZM122.143,57.312 C120.813,52.277 119.646,45.999 118.797,40.862 C118.364,46.610 117.793,52.755 117.005,57.605 L115.351,67.993 L124.795,67.472 L122.143,57.312 ZM92.579,91.446 C92.199,91.446 91.948,91.138 91.948,90.757 L91.948,53.137 L81.968,53.137 L81.968,88.516 C81.968,89.237 81.962,89.917 81.436,90.447 C80.707,91.182 79.357,91.375 74.643,91.427 C74.621,89.765 74.535,87.607 74.421,84.750 L74.394,84.065 L74.353,83.036 L73.329,83.072 L67.497,83.281 L67.497,60.170 C68.039,60.088 68.799,59.860 69.431,59.174 C70.888,57.593 70.775,54.799 70.438,46.506 L70.409,45.811 L70.367,44.783 L69.345,44.820 L67.497,44.886 L67.497,28.555 L68.858,28.507 C69.695,28.476 70.758,28.329 71.566,27.452 C72.935,25.968 72.841,23.647 72.493,15.008 L72.465,14.323 L72.424,13.295 L71.400,13.332 L67.497,13.472 L67.497,10.366 C67.497,9.645 67.444,8.963 67.971,8.432 C68.964,7.433 71.036,7.433 81.237,7.433 C81.615,7.433 81.968,7.742 81.968,8.122 L81.968,40.099 L91.948,40.099 L91.948,10.366 C91.948,9.645 91.890,8.963 92.417,8.432 C93.410,7.433 95.477,7.433 105.682,7.433 C106.061,7.433 106.419,7.742 106.419,8.122 L106.419,35.050 L95.106,91.445 C94.323,91.446 93.484,91.446 92.579,91.446 ZM41.448,14.411 C38.542,14.517 37.558,16.950 37.558,18.558 L37.558,18.585 L37.438,18.612 L40.282,91.242 C39.874,91.248 39.377,91.251 38.905,91.251 C37.020,91.251 34.486,91.208 31.277,91.154 C31.095,91.151 30.922,91.076 30.795,90.943 C30.669,90.812 30.599,90.635 30.602,90.452 L31.303,52.905 L21.089,52.730 L20.432,88.036 C20.386,90.487 19.582,90.825 13.820,90.825 C11.937,90.825 9.402,90.783 6.193,90.729 C6.011,90.725 5.830,90.650 5.704,90.518 C5.577,90.386 5.500,90.209 5.504,90.026 L7.003,9.408 C7.042,6.951 7.848,6.611 13.635,6.611 C15.512,6.611 18.034,6.654 21.227,6.707 C21.409,6.711 21.601,6.785 21.727,6.918 C21.854,7.049 21.940,7.227 21.937,7.410 L21.338,39.275 L31.555,39.451 L32.105,9.825 C32.152,7.375 32.957,7.035 38.715,7.035 C40.598,7.035 43.138,7.079 46.349,7.133 C46.531,7.136 46.721,7.212 46.848,7.344 C46.974,7.475 47.068,7.652 47.065,7.835 L46.976,14.210 L41.448,14.411 ZM41.365,15.445 L71.437,14.365 L71.465,15.050 C71.791,23.139 71.889,25.580 70.812,26.750 C70.264,27.344 69.499,27.449 68.821,27.473 L67.497,27.521 L67.497,27.521 L53.832,28.012 L54.570,46.384 L67.497,45.921 L67.497,45.921 L69.381,45.853 L69.410,46.538 C69.725,54.301 69.844,57.205 68.676,58.471 C68.551,58.607 68.416,58.709 68.279,58.798 C68.245,58.820 68.212,58.842 68.178,58.861 C68.047,58.936 67.913,58.999 67.780,59.043 C67.751,59.053 67.723,59.058 67.694,59.066 C67.628,59.085 67.562,59.106 67.497,59.120 L67.497,59.111 C67.282,59.156 67.073,59.182 66.898,59.189 L55.094,59.616 L56.095,84.726 L67.497,84.316 L67.497,84.316 L73.366,84.106 L73.393,84.791 C73.411,85.235 73.427,85.656 73.444,86.067 C73.448,86.184 73.453,86.303 73.458,86.418 C73.473,86.802 73.487,87.175 73.501,87.530 C73.502,87.577 73.504,87.628 73.506,87.674 C73.520,88.052 73.533,88.411 73.545,88.757 C73.548,88.848 73.551,88.937 73.554,89.026 C73.564,89.309 73.572,89.582 73.580,89.843 C73.582,89.909 73.584,89.979 73.586,90.044 C73.594,90.345 73.601,90.631 73.606,90.905 C73.608,90.982 73.609,91.057 73.610,91.132 C73.612,91.233 73.614,91.339 73.616,91.436 C73.615,91.436 73.615,91.436 73.614,91.436 C73.657,94.557 73.466,95.789 72.794,96.517 C72.245,97.112 71.483,97.188 70.748,97.214 L41.532,98.266 L38.346,18.571 C38.359,17.503 39.008,15.531 41.365,15.445 ZM146.349,89.244 C139.739,89.244 137.827,86.107 137.839,80.817 C137.850,76.236 140.967,72.194 146.361,72.194 C146.371,72.194 146.381,72.194 146.390,72.194 C152.866,72.194 154.903,75.681 154.890,80.862 C154.880,85.438 151.759,89.244 146.377,89.244 C146.368,89.244 146.358,89.244 146.349,89.244 Z" class="cls-1"/>
</svg>
