<?xml version="1.0" encoding="utf-8"?>
<!-- Generator: Adobe Illustrator 19.0.1, SVG Export Plug-In . SVG Version: 6.00 Build 0)  -->
<svg version="1.1" id="Travel" xmlns="http://www.w3.org/2000/svg" xmlns:xlink="http://www.w3.org/1999/xlink" x="0px" y="0px"
	 viewBox="0 0 58 52" style="enable-background:new 0 0 58 52;" xml:space="preserve">
<style type="text/css">
	.st0{fill:#805333;}
	.st1{fill:#CB8252;}
	.st2{fill:#BDC3C7;}
	.st3{fill:#71C285;}
	.st4{fill:#E1705C;}
	.st5{fill:#F0C419;}
	.st6{fill:#E4C05C;}
</style>
<path class="st0" d="M54.1,52H3.9C1.7,52,0,50.3,0,48.1V14.9C0,12.7,1.7,11,3.9,11h50.3c2.1,0,3.9,1.7,3.9,3.9v33.3
	C58,50.3,56.3,52,54.1,52z"/>
<rect x="10" y="8" class="st1" width="6" height="44"/>
<rect x="42" y="8" class="st1" width="6" height="44"/>
<path class="st2" d="M29,0c-5.5,0-10,4.5-10,10v1h4v-1c0-3.3,2.7-6,6-6s6,2.7,6,6v1h4v-1C39,4.5,34.5,0,29,0z"/>
<rect x="19.6" y="33.5" transform="matrix(0.9213 0.3888 -0.3888 0.9213 16.1012 -6.5322)" class="st3" width="9.1" height="6.1"/>
<polygon class="st4" points="23,27 23,32.7 29.6,35.5 28.9,37 38,37 38,27 "/>
<polygon class="st5" points="35.6,27 38,25.9 34.5,18.4 23.4,23.6 25,27 "/>
<path class="st6" d="M58,17.9v-3c0-2.1-1.7-3.9-3.9-3.9h-3C51.8,14.5,54.5,17.2,58,17.9z"/>
<path class="st6" d="M58,48.1v-3c-3.5,0.6-6.2,3.4-6.9,6.9h3C56.3,52,58,50.3,58,48.1z"/>
<path class="st6" d="M0,17.9c3.5-0.6,6.2-3.4,6.9-6.9h-3C1.7,11,0,12.7,0,14.9V17.9z"/>
<path class="st6" d="M0,45.1v3C0,50.3,1.7,52,3.9,52h3C6.2,48.5,3.5,45.8,0,45.1z"/>
</svg>
